<ttFont>
<head>
    <!-- Most of this table will be recalculated by the compiler -->
    <tableVersion value="1.0"/>
    <fontRevision value="1.301"/>
    <checkSumAdjustment value="0x54173df4"/>
    <magicNumber value="0x5f0f3cf5"/>
    <flags value="00000000 00001011"/>
    <unitsPerEm value="1000"/>
    <created value="Tue Oct  2 22:58:00 2007"/>
    <modified value="Thu Mar  6 18:39:56 2014"/>
    <xMin value="-56"/>
    <yMin value="-228"/>
    <xMax value="813"/>
    <yMax value="1015"/>
    <macStyle value="00000000 00000000"/>
    <lowestRecPPEM value="9"/>
    <fontDirectionHint value="2"/>
    <indexToLocFormat value="0"/>
    <glyphDataFormat value="0"/>
  </head>
    <TTGlyph name="A" xMin="29" yMin="0" xMax="488" yMax="742">
      <contour>
        <pt x="456" y="0" on="1"/>
        <pt x="387" y="234" on="1"/>
        <pt x="131" y="234" on="1"/>
        <pt x="62" y="0" on="1"/>
        <pt x="29" y="0" on="1"/>
        <pt x="254" y="742" on="1"/>
        <pt x="265" y="742" on="1"/>
        <pt x="488" y="0" on="1"/>
      </contour>
      <contour>
        <pt x="259" y="666" on="1"/>
        <pt x="139" y="262" on="1"/>
        <pt x="378" y="262" on="1"/>
      </contour>
    </TTGlyph>
    <TTGlyph name="AE" xMin="30" yMin="0" xMax="719" yMax="733">
      <contour>
        <pt x="419" y="0" on="1"/>
        <pt x="419" y="234" on="1"/>
        <pt x="191" y="234" on="1"/>
        <pt x="66" y="0" on="1"/>
        <pt x="30" y="0" on="1"/>
        <pt x="420" y="733" on="1"/>
        <pt x="719" y="733" on="1"/>
        <pt x="719" y="704" on="1"/>
        <pt x="451" y="704" on="1"/>
        <pt x="451" y="388" on="1"/>
        <pt x="696" y="388" on="1"/>
        <pt x="696" y="359" on="1"/>
        <pt x="451" y="359" on="1"/>
        <pt x="451" y="29" on="1"/>
        <pt x="719" y="29" on="1"/>
        <pt x="719" y="0" on="1"/>
      </contour>
      <contour>
        <pt x="419" y="662" on="1"/>
        <pt x="206" y="262" on="1"/>
        <pt x="419" y="262" on="1"/>
      </contour>
    </TTGlyph>
    <TTGlyph name="AEacute" xMin="30" yMin="0" xMax="719" yMax="902">
      <component glyphName="acute" x="332" y="301" flags="0x4"/>
      <component glyphName="AE" x="0" y="0" flags="0x4"/>
    </TTGlyph>
    <TTGlyph name="Aacute" xMin="29" yMin="0" xMax="488" yMax="907">
      <component glyphName="A" x="0" y="0" flags="0x204"/>
      <component glyphName="acute" x="107" y="306" flags="0x4"/>
    </TTGlyph>
    <TTGlyph name="Abreve" xMin="29" yMin="0" xMax="488" yMax="900">
      <component glyphName="A" x="0" y="0" flags="0x204"/>
      <component glyphName="breve" x="51" y="306" flags="0x4"/>
    </TTGlyph>
    <TTGlyph name="Acircumflex" xMin="29" yMin="0" xMax="488" yMax="901">
      <component glyphName="A" x="0" y="0" flags="0x204"/>
      <component glyphName="circumflex" x="50" y="306" flags="0x4"/>
    </TTGlyph>
    <TTGlyph name="Adieresis" xMin="29" yMin="0" xMax="488" yMax="861">
      <component glyphName="A" x="0" y="0" flags="0x204"/>
      <component glyphName="dieresis" x="51" y="306" flags="0x4"/>
    </TTGlyph>
    <TTGlyph name="Agrave" xMin="29" yMin="0" xMax="488" yMax="907">
      <component glyphName="A" x="0" y="0" flags="0x204"/>
      <component glyphName="grave" x="-4" y="306" flags="0x4"/>
    </TTGlyph>
    <TTGlyph name="Amacron" xMin="29" yMin="0" xMax="488" yMax="843">
      <component glyphName="A" x="0" y="0" flags="0x204"/>
      <component glyphName="macron" x="51" y="306" flags="0x4"/>
    </TTGlyph>
    <TTGlyph name="Aogonek" xMin="29" yMin="-202" xMax="507" yMax="742">
      <contour>
        <pt x="507" y="-168" on="1"/>
        <pt x="496" y="-183" on="0"/>
        <pt x="465" y="-202" on="0"/>
        <pt x="444" y="-202" on="1"/>
        <pt x="416" y="-202" on="0"/>
        <pt x="382" y="-166" on="0"/>
        <pt x="382" y="-134" on="1"/>
        <pt x="382" y="-103" on="0"/>
        <pt x="418" y="-37" on="0"/>
        <pt x="455" y="3" on="1"/>
        <pt x="387" y="234" on="1"/>
        <pt x="131" y="234" on="1"/>
        <pt x="62" y="0" on="1"/>
        <pt x="29" y="0" on="1"/>
        <pt x="254" y="742" on="1"/>
        <pt x="265" y="742" on="1"/>
        <pt x="488" y="0" on="1"/>
        <pt x="453" y="-35" on="0"/>
        <pt x="411" y="-102" on="0"/>
        <pt x="411" y="-132" on="1"/>
        <pt x="411" y="-152" on="0"/>
        <pt x="431" y="-175" on="0"/>
        <pt x="447" y="-175" on="1"/>
        <pt x="461" y="-175" on="0"/>
        <pt x="483" y="-161" on="0"/>
        <pt x="491" y="-150" on="1"/>
      </contour>
      <contour>
        <pt x="259" y="666" on="1"/>
        <pt x="139" y="262" on="1"/>
        <pt x="378" y="262" on="1"/>
      </contour>
    </TTGlyph>
    <TTGlyph name="Aring" xMin="29" yMin="0" xMax="488" yMax="865">
      <contour>
        <pt x="340" y="784" on="1"/>
        <pt x="340" y="755" on="0"/>
        <pt x="304" y="710" on="0"/>
        <pt x="275" y="704" on="1"/>
        <pt x="488" y="0" on="1"/>
        <pt x="456" y="0" on="1"/>
        <pt x="385" y="234" on="1"/>
        <pt x="133" y="234" on="1"/>
        <pt x="62" y="0" on="1"/>
        <pt x="29" y="0" on="1"/>
        <pt x="244" y="704" on="1"/>
        <pt x="215" y="710" on="0"/>
        <pt x="179" y="755" on="0"/>
        <pt x="179" y="784" on="1"/>
        <pt x="179" y="816" on="0"/>
        <pt x="225" y="865" on="0"/>
        <pt x="260" y="865" on="1"/>
        <pt x="295" y="865" on="0"/>
        <pt x="340" y="816" on="0"/>
      </contour>
      <contour>
        <pt x="259" y="656" on="1"/>
        <pt x="141" y="262" on="1"/>
        <pt x="376" y="262" on="1"/>
      </contour>
      <contour>
        <pt x="315" y="784" on="1"/>
        <pt x="315" y="808" on="0"/>
        <pt x="286" y="843" on="0"/>
        <pt x="260" y="843" on="1"/>
        <pt x="234" y="843" on="0"/>
        <pt x="205" y="808" on="0"/>
        <pt x="205" y="784" on="1"/>
        <pt x="205" y="760" on="0"/>
        <pt x="234" y="725" on="0"/>
        <pt x="260" y="725" on="1"/>
        <pt x="286" y="725" on="0"/>
        <pt x="315" y="760" on="0"/>
      </contour>
    </TTGlyph>
    <TTGlyph name="Aringacute" xMin="29" yMin="0" xMax="488" yMax="1015">
      <component glyphName="acute" x="99" y="414" flags="0x4"/>
      <component glyphName="Aring" x="0" y="0" flags="0x4"/>
    </TTGlyph>
    <TTGlyph name="Atilde" xMin="29" yMin="0" xMax="488" yMax="868">
      <component glyphName="A" x="0" y="0" flags="0x204"/>
      <component glyphName="tilde" x="52" y="306" flags="0x4"/>
    </TTGlyph>
    <TTGlyph name="B" xMin="72" yMin="-7" xMax="412" yMax="740">
      <contour>
        <pt x="412" y="197" on="1"/>
        <pt x="412" y="152" on="0"/>
        <pt x="382" y="77" on="0"/>
        <pt x="324" y="23" on="0"/>
        <pt x="239" y="-7" on="0"/>
        <pt x="184" y="-7" on="1"/>
        <pt x="154" y="-7" on="0"/>
        <pt x="97" y="-1" on="0"/>
        <pt x="72" y="3" on="1"/>
        <pt x="72" y="731" on="1"/>
        <pt x="99" y="735" on="0"/>
        <pt x="154" y="740" on="0"/>
        <pt x="183" y="740" on="1"/>
        <pt x="238" y="740" on="0"/>
        <pt x="319" y="712" on="0"/>
        <pt x="373" y="663" on="0"/>
        <pt x="400" y="597" on="0"/>
        <pt x="400" y="560" on="1"/>
        <pt x="400" y="522" on="0"/>
        <pt x="376" y="462" on="0"/>
        <pt x="336" y="417" on="0"/>
        <pt x="282" y="387" on="0"/>
        <pt x="252" y="380" on="1"/>
        <pt x="322" y="368" on="0"/>
        <pt x="412" y="273" on="0"/>
      </contour>
      <contour>
        <pt x="368" y="558" on="1"/>
        <pt x="368" y="627" on="0"/>
        <pt x="276" y="712" on="0"/>
        <pt x="181" y="712" on="1"/>
        <pt x="143" y="712" on="0"/>
        <pt x="104" y="706" on="1"/>
        <pt x="104" y="394" on="1"/>
        <pt x="121" y="393" on="0"/>
        <pt x="152" y="393" on="0"/>
        <pt x="166" y="393" on="1"/>
        <pt x="261" y="393" on="0"/>
        <pt x="368" y="480" on="0"/>
      </contour>
      <contour>
        <pt x="381" y="196" on="1"/>
        <pt x="381" y="280" on="0"/>
        <pt x="269" y="366" on="0"/>
        <pt x="169" y="366" on="1"/>
        <pt x="157" y="366" on="0"/>
        <pt x="121" y="366" on="0"/>
        <pt x="104" y="365" on="1"/>
        <pt x="104" y="28" on="1"/>
        <pt x="144" y="22" on="0"/>
        <pt x="185" y="22" on="1"/>
        <pt x="277" y="22" on="0"/>
        <pt x="381" y="114" on="0"/>
      </contour>
    </TTGlyph>
    <TTGlyph name="C" xMin="46" yMin="-8" xMax="482" yMax="743">
      <contour>
        <pt x="481" y="57" on="1"/>
        <pt x="447" y="31" on="0"/>
        <pt x="364" y="-8" on="0"/>
        <pt x="307" y="-8" on="1"/>
        <pt x="251" y="-8" on="0"/>
        <pt x="156" y="40" on="0"/>
        <pt x="86" y="134" on="0"/>
        <pt x="46" y="273" on="0"/>
        <pt x="46" y="364" on="1"/>
        <pt x="46" y="455" on="0"/>
        <pt x="87" y="597" on="0"/>
        <pt x="158" y="693" on="0"/>
        <pt x="254" y="743" on="0"/>
        <pt x="309" y="743" on="1"/>
        <pt x="366" y="743" on="0"/>
        <pt x="448" y="705" on="0"/>
        <pt x="482" y="679" on="1"/>
        <pt x="465" y="654" on="1"/>
        <pt x="432" y="680" on="0"/>
        <pt x="357" y="714" on="0"/>
        <pt x="309" y="714" on="1"/>
        <pt x="262" y="714" on="0"/>
        <pt x="178" y="667" on="0"/>
        <pt x="115" y="577" on="0"/>
        <pt x="78" y="447" on="0"/>
        <pt x="78" y="364" on="1"/>
        <pt x="78" y="281" on="0"/>
        <pt x="115" y="153" on="0"/>
        <pt x="178" y="65" on="0"/>
        <pt x="262" y="20" on="0"/>
        <pt x="309" y="20" on="1"/>
        <pt x="356" y="20" on="0"/>
        <pt x="429" y="53" on="0"/>
        <pt x="464" y="79" on="1"/>
      </contour>
    </TTGlyph>
    <TTGlyph name="Cacute" xMin="46" yMin="-8" xMax="482" yMax="907">
      <component glyphName="acute" x="148" y="306" flags="0x4"/>
      <component glyphName="C" x="0" y="0" flags="0x4"/>
    </TTGlyph>
    <TTGlyph name="Ccaron" xMin="46" yMin="-8" xMax="482" yMax="901">
      <component glyphName="caron" x="91" y="306" flags="0x4"/>
      <component glyphName="C" x="0" y="0" flags="0x4"/>
    </TTGlyph>
    <TTGlyph name="Ccedilla" xMin="46" yMin="-198" xMax="482" yMax="743">
      <contour>
        <pt x="377" y="-129" on="1"/>
        <pt x="377" y="-157" on="0"/>
        <pt x="334" y="-198" on="0"/>
        <pt x="293" y="-198" on="1"/>
        <pt x="272" y="-198" on="0"/>
        <pt x="229" y="-183" on="0"/>
        <pt x="209" y="-171" on="1"/>
        <pt x="221" y="-147" on="1"/>
        <pt x="240" y="-158" on="0"/>
        <pt x="277" y="-171" on="0"/>
        <pt x="295" y="-171" on="1"/>
        <pt x="321" y="-171" on="0"/>
        <pt x="347" y="-148" on="0"/>
        <pt x="347" y="-130" on="1"/>
        <pt x="347" y="-109" on="0"/>
        <pt x="306" y="-76" on="0"/>
        <pt x="258" y="-71" on="1"/>
        <pt x="256" y="-67" on="1"/>
        <pt x="272" y="-5" on="1"/>
        <pt x="223" y="2" on="0"/>
        <pt x="140" y="56" on="0"/>
        <pt x="80" y="149" on="0"/>
        <pt x="46" y="280" on="0"/>
        <pt x="46" y="364" on="1"/>
        <pt x="46" y="455" on="0"/>
        <pt x="87" y="597" on="0"/>
        <pt x="158" y="693" on="0"/>
        <pt x="254" y="743" on="0"/>
        <pt x="309" y="743" on="1"/>
        <pt x="366" y="743" on="0"/>
        <pt x="448" y="705" on="0"/>
        <pt x="482" y="679" on="1"/>
        <pt x="465" y="654" on="1"/>
        <pt x="432" y="680" on="0"/>
        <pt x="357" y="714" on="0"/>
        <pt x="309" y="714" on="1"/>
        <pt x="262" y="714" on="0"/>
        <pt x="178" y="667" on="0"/>
        <pt x="115" y="577" on="0"/>
        <pt x="78" y="447" on="0"/>
        <pt x="78" y="364" on="1"/>
        <pt x="78" y="281" on="0"/>
        <pt x="115" y="153" on="0"/>
        <pt x="178" y="65" on="0"/>
        <pt x="262" y="20" on="0"/>
        <pt x="309" y="20" on="1"/>
        <pt x="356" y="20" on="0"/>
        <pt x="429" y="53" on="0"/>
        <pt x="464" y="79" on="1"/>
        <pt x="481" y="57" on="1"/>
        <pt x="447" y="31" on="0"/>
        <pt x="364" y="-8" on="0"/>
        <pt x="307" y="-8" on="1"/>
        <pt x="300" y="-8" on="1"/>
        <pt x="289" y="-50" on="1"/>
        <pt x="334" y="-59" on="0"/>
        <pt x="377" y="-102" on="0"/>
      </contour>
    </TTGlyph>
    <TTGlyph name="Cdotaccent" xMin="46" yMin="-8" xMax="482" yMax="861">
      <component glyphName="C" x="0" y="0" flags="0x204"/>
      <component glyphName="dotaccent" x="92" y="306" flags="0x4"/>
    </TTGlyph>
    <TTGlyph name="D" xMin="72" yMin="-7" xMax="493" yMax="740">
      <contour>
        <pt x="493" y="370" on="1"/>
        <pt x="493" y="288" on="0"/>
        <pt x="451" y="150" on="0"/>
        <pt x="371" y="49" on="0"/>
        <pt x="255" y="-7" on="0"/>
        <pt x="182" y="-7" on="1"/>
        <pt x="151" y="-7" on="0"/>
        <pt x="91" y="-1" on="0"/>
        <pt x="72" y="2" on="1"/>
        <pt x="72" y="732" on="1"/>
        <pt x="89" y="735" on="0"/>
        <pt x="149" y="740" on="0"/>
        <pt x="181" y="740" on="1"/>
        <pt x="256" y="740" on="0"/>
        <pt x="372" y="681" on="0"/>
        <pt x="452" y="580" on="0"/>
        <pt x="493" y="445" on="0"/>
      </contour>
      <contour>
        <pt x="460" y="370" on="1"/>
        <pt x="460" y="440" on="0"/>
        <pt x="422" y="565" on="0"/>
        <pt x="350" y="657" on="0"/>
        <pt x="246" y="711" on="0"/>
        <pt x="180" y="711" on="1"/>
        <pt x="157" y="711" on="0"/>
        <pt x="118" y="708" on="0"/>
        <pt x="104" y="706" on="1"/>
        <pt x="104" y="27" on="1"/>
        <pt x="118" y="25" on="0"/>
        <pt x="157" y="22" on="0"/>
        <pt x="180" y="22" on="1"/>
        <pt x="245" y="22" on="0"/>
        <pt x="349" y="72" on="0"/>
        <pt x="421" y="163" on="0"/>
        <pt x="460" y="292" on="0"/>
      </contour>
    </TTGlyph>
    <TTGlyph name="Dcaron" xMin="72" yMin="-7" xMax="493" yMax="896">
      <component glyphName="caron" x="35" y="301" flags="0x4"/>
      <component glyphName="D" x="0" y="0" flags="0x4"/>
    </TTGlyph>
    <TTGlyph name="Dcroat" xMin="38" yMin="-8" xMax="515" yMax="740">
      <component glyphName="Eth" x="0" y="0" flags="0x204"/>
    </TTGlyph>
    <TTGlyph name="E" xMin="72" yMin="0" xMax="372" yMax="733">
      <contour>
        <pt x="72" y="0" on="1"/>
        <pt x="72" y="733" on="1"/>
        <pt x="372" y="733" on="1"/>
        <pt x="372" y="704" on="1"/>
        <pt x="104" y="704" on="1"/>
        <pt x="104" y="388" on="1"/>
        <pt x="350" y="388" on="1"/>
        <pt x="350" y="359" on="1"/>
        <pt x="104" y="359" on="1"/>
        <pt x="104" y="29" on="1"/>
        <pt x="372" y="29" on="1"/>
        <pt x="372" y="0" on="1"/>
      </contour>
    </TTGlyph>
    <TTGlyph name="Eacute" xMin="72" yMin="0" xMax="372" yMax="902">
      <component glyphName="acute" x="69" y="301" flags="0x4"/>
      <component glyphName="E" x="0" y="0" flags="0x4"/>
    </TTGlyph>
    <TTGlyph name="Ebreve" xMin="72" yMin="0" xMax="372" yMax="895">
      <component glyphName="E" x="0" y="0" flags="0x204"/>
      <component glyphName="breve" x="13" y="301" flags="0x4"/>
    </TTGlyph>
    <TTGlyph name="Ecaron" xMin="72" yMin="0" xMax="372" yMax="896">
      <component glyphName="caron" x="12" y="301" flags="0x4"/>
      <component glyphName="E" x="0" y="0" flags="0x4"/>
    </TTGlyph>
    <TTGlyph name="Ecircumflex" xMin="72" yMin="0" xMax="372" yMax="896">
      <component glyphName="circumflex" x="12" y="301" flags="0x4"/>
      <component glyphName="E" x="0" y="0" flags="0x4"/>
    </TTGlyph>
    <TTGlyph name="Edieresis" xMin="72" yMin="0" xMax="372" yMax="856">
      <component glyphName="dieresis" x="13" y="301" flags="0x4"/>
      <component glyphName="E" x="0" y="0" flags="0x4"/>
    </TTGlyph>
    <TTGlyph name="Edotaccent" xMin="72" yMin="0" xMax="372" yMax="856">
      <component glyphName="E" x="0" y="0" flags="0x204"/>
      <component glyphName="dotaccent" x="13" y="301" flags="0x4"/>
    </TTGlyph>
    <TTGlyph name="Egrave" xMin="72" yMin="0" xMax="372" yMax="902">
      <component glyphName="E" x="0" y="0" flags="0x204"/>
      <component glyphName="grave" x="-42" y="301" flags="0x4"/>
    </TTGlyph>
    <TTGlyph name="Emacron" xMin="72" yMin="0" xMax="372" yMax="838">
      <component glyphName="E" x="0" y="0" flags="0x204"/>
      <component glyphName="macron" x="13" y="301" flags="0x4"/>
    </TTGlyph>
    <TTGlyph name="Eogonek" xMin="72" yMin="-202" xMax="375" yMax="733">
      <contour>
        <pt x="356" y="0" on="1"/>
        <pt x="321" y="-35" on="0"/>
        <pt x="279" y="-102" on="0"/>
        <pt x="279" y="-132" on="1"/>
        <pt x="279" y="-152" on="0"/>
        <pt x="299" y="-175" on="0"/>
        <pt x="315" y="-175" on="1"/>
        <pt x="329" y="-175" on="0"/>
        <pt x="351" y="-161" on="0"/>
        <pt x="359" y="-150" on="1"/>
        <pt x="375" y="-168" on="1"/>
        <pt x="364" y="-183" on="0"/>
        <pt x="333" y="-202" on="0"/>
        <pt x="312" y="-202" on="1"/>
        <pt x="284" y="-202" on="0"/>
        <pt x="250" y="-166" on="0"/>
        <pt x="250" y="-134" on="1"/>
        <pt x="250" y="-104" on="0"/>
        <pt x="285" y="-39" on="0"/>
        <pt x="320" y="0" on="1"/>
        <pt x="72" y="0" on="1"/>
        <pt x="72" y="733" on="1"/>
        <pt x="372" y="733" on="1"/>
        <pt x="372" y="704" on="1"/>
        <pt x="104" y="704" on="1"/>
        <pt x="104" y="388" on="1"/>
        <pt x="350" y="388" on="1"/>
        <pt x="350" y="359" on="1"/>
        <pt x="104" y="359" on="1"/>
        <pt x="104" y="29" on="1"/>
        <pt x="372" y="29" on="1"/>
        <pt x="372" y="0" on="1"/>
      </contour>
    </TTGlyph>
    <TTGlyph name="Eth" xMin="38" yMin="-8" xMax="515" yMax="740">
      <contour>
        <pt x="515" y="370" on="1"/>
        <pt x="515" y="288" on="0"/>
        <pt x="473" y="149" on="0"/>
        <pt x="393" y="49" on="0"/>
        <pt x="277" y="-8" on="0"/>
        <pt x="204" y="-8" on="1"/>
        <pt x="173" y="-8" on="0"/>
        <pt x="113" y="-2" on="0"/>
        <pt x="94" y="1" on="1"/>
        <pt x="94" y="358" on="1"/>
        <pt x="38" y="358" on="1"/>
        <pt x="38" y="387" on="1"/>
        <pt x="94" y="387" on="1"/>
        <pt x="94" y="732" on="1"/>
        <pt x="111" y="735" on="0"/>
        <pt x="171" y="740" on="0"/>
        <pt x="203" y="740" on="1"/>
        <pt x="278" y="740" on="0"/>
        <pt x="394" y="681" on="0"/>
        <pt x="474" y="580" on="0"/>
        <pt x="515" y="445" on="0"/>
      </contour>
      <contour>
        <pt x="482" y="370" on="1"/>
        <pt x="482" y="441" on="0"/>
        <pt x="444" y="565" on="0"/>
        <pt x="372" y="658" on="0"/>
        <pt x="268" y="712" on="0"/>
        <pt x="202" y="712" on="1"/>
        <pt x="179" y="712" on="0"/>
        <pt x="140" y="709" on="0"/>
        <pt x="126" y="707" on="1"/>
        <pt x="126" y="387" on="1"/>
        <pt x="255" y="387" on="1"/>
        <pt x="255" y="358" on="1"/>
        <pt x="126" y="358" on="1"/>
        <pt x="126" y="26" on="1"/>
        <pt x="140" y="24" on="0"/>
        <pt x="179" y="20" on="0"/>
        <pt x="202" y="20" on="1"/>
        <pt x="267" y="20" on="0"/>
        <pt x="371" y="71" on="0"/>
        <pt x="443" y="163" on="0"/>
        <pt x="482" y="292" on="0"/>
      </contour>
    </TTGlyph>
    <TTGlyph name="Euro" xMin="23" yMin="-8" xMax="438" yMax="667">
      <contour>
        <pt x="23" y="385" on="1"/>
        <pt x="23" y="412" on="1"/>
        <pt x="85" y="412" on="1"/>
        <pt x="102" y="537" on="0"/>
        <pt x="220" y="667" on="0"/>
        <pt x="302" y="667" on="1"/>
        <pt x="345" y="667" on="0"/>
        <pt x="412" y="639" on="0"/>
        <pt x="438" y="619" on="1"/>
        <pt x="421" y="593" on="1"/>
        <pt x="396" y="613" on="0"/>
        <pt x="336" y="639" on="0"/>
        <pt x="301" y="639" on="1"/>
        <pt x="232" y="639" on="0"/>
        <pt x="132" y="522" on="0"/>
        <pt x="117" y="412" on="1"/>
        <pt x="363" y="412" on="1"/>
        <pt x="363" y="385" on="1"/>
        <pt x="113" y="385" on="1"/>
        <pt x="111" y="371" on="0"/>
        <pt x="111" y="343" on="0"/>
        <pt x="111" y="327" on="1"/>
        <pt x="111" y="310" on="0"/>
        <pt x="112" y="280" on="0"/>
        <pt x="113" y="266" on="1"/>
        <pt x="363" y="266" on="1"/>
        <pt x="363" y="239" on="1"/>
        <pt x="117" y="239" on="1"/>
        <pt x="133" y="131" on="0"/>
        <pt x="234" y="21" on="0"/>
        <pt x="302" y="21" on="1"/>
        <pt x="337" y="21" on="0"/>
        <pt x="396" y="46" on="0"/>
        <pt x="423" y="67" on="1"/>
        <pt x="438" y="43" on="1"/>
        <pt x="412" y="23" on="0"/>
        <pt x="345" y="-8" on="0"/>
        <pt x="301" y="-8" on="1"/>
        <pt x="218" y="-8" on="0"/>
        <pt x="102" y="116" on="0"/>
        <pt x="85" y="239" on="1"/>
        <pt x="23" y="239" on="1"/>
        <pt x="23" y="266" on="1"/>
        <pt x="80" y="266" on="1"/>
        <pt x="79" y="280" on="0"/>
        <pt x="79" y="310" on="0"/>
        <pt x="79" y="327" on="1"/>
        <pt x="79" y="343" on="0"/>
        <pt x="79" y="371" on="0"/>
        <pt x="81" y="385" on="1"/>
      </contour>
    </TTGlyph>
    <TTGlyph name="Euro.lin" xMin="26" yMin="-8" xMax="505" yMax="735">
      <contour>
        <pt x="26" y="425" on="1"/>
        <pt x="26" y="452" on="1"/>
        <pt x="97" y="452" on="1"/>
        <pt x="106" y="521" on="0"/>
        <pt x="152" y="627" on="0"/>
        <pt x="218" y="698" on="0"/>
        <pt x="301" y="735" on="0"/>
        <pt x="348" y="735" on="1"/>
        <pt x="398" y="735" on="0"/>
        <pt x="474" y="703" on="0"/>
        <pt x="505" y="680" on="1"/>
        <pt x="488" y="654" on="1"/>
        <pt x="459" y="676" on="0"/>
        <pt x="389" y="706" on="0"/>
        <pt x="347" y="706" on="1"/>
        <pt x="307" y="706" on="0"/>
        <pt x="236" y="673" on="0"/>
        <pt x="179" y="608" on="0"/>
        <pt x="138" y="513" on="0"/>
        <pt x="129" y="452" on="1"/>
        <pt x="417" y="452" on="1"/>
        <pt x="417" y="425" on="1"/>
        <pt x="125" y="425" on="1"/>
        <pt x="123" y="409" on="0"/>
        <pt x="123" y="377" on="0"/>
        <pt x="123" y="360" on="1"/>
        <pt x="123" y="324" on="0"/>
        <pt x="126" y="293" on="1"/>
        <pt x="417" y="293" on="1"/>
        <pt x="417" y="265" on="1"/>
        <pt x="129" y="265" on="1"/>
        <pt x="148" y="145" on="0"/>
        <pt x="269" y="20" on="0"/>
        <pt x="348" y="20" on="1"/>
        <pt x="390" y="20" on="0"/>
        <pt x="458" y="50" on="0"/>
        <pt x="490" y="73" on="1"/>
        <pt x="505" y="49" on="1"/>
        <pt x="474" y="26" on="0"/>
        <pt x="397" y="-8" on="0"/>
        <pt x="346" y="-8" on="1"/>
        <pt x="299" y="-8" on="0"/>
        <pt x="217" y="27" on="0"/>
        <pt x="151" y="95" on="0"/>
        <pt x="106" y="197" on="0"/>
        <pt x="96" y="265" on="1"/>
        <pt x="26" y="265" on="1"/>
        <pt x="26" y="293" on="1"/>
        <pt x="93" y="293" on="1"/>
        <pt x="91" y="309" on="0"/>
        <pt x="91" y="341" on="0"/>
        <pt x="91" y="360" on="1"/>
        <pt x="91" y="377" on="0"/>
        <pt x="92" y="409" on="0"/>
        <pt x="93" y="425" on="1"/>
      </contour>
    </TTGlyph>
    <TTGlyph name="F" xMin="72" yMin="0" xMax="373" yMax="733">
      <contour>
        <pt x="104" y="704" on="1"/>
        <pt x="104" y="384" on="1"/>
        <pt x="348" y="384" on="1"/>
        <pt x="348" y="356" on="1"/>
        <pt x="104" y="356" on="1"/>
        <pt x="104" y="0" on="1"/>
        <pt x="72" y="0" on="1"/>
        <pt x="72" y="733" on="1"/>
        <pt x="373" y="733" on="1"/>
        <pt x="373" y="704" on="1"/>
      </contour>
    </TTGlyph>
    <TTGlyph name="G" xMin="46" yMin="-7" xMax="491" yMax="743">
      <contour>
        <pt x="491" y="356" on="1"/>
        <pt x="491" y="57" on="1"/>
        <pt x="457" y="26" on="0"/>
        <pt x="369" y="-7" on="0"/>
        <pt x="316" y="-7" on="1"/>
        <pt x="260" y="-7" on="0"/>
        <pt x="161" y="39" on="0"/>
        <pt x="88" y="132" on="0"/>
        <pt x="46" y="272" on="0"/>
        <pt x="46" y="365" on="1"/>
        <pt x="46" y="456" on="0"/>
        <pt x="87" y="597" on="0"/>
        <pt x="160" y="693" on="0"/>
        <pt x="258" y="743" on="0"/>
        <pt x="315" y="743" on="1"/>
        <pt x="372" y="743" on="0"/>
        <pt x="455" y="705" on="0"/>
        <pt x="490" y="677" on="1"/>
        <pt x="472" y="653" on="1"/>
        <pt x="438" y="680" on="0"/>
        <pt x="363" y="714" on="0"/>
        <pt x="314" y="714" on="1"/>
        <pt x="265" y="714" on="0"/>
        <pt x="179" y="667" on="0"/>
        <pt x="115" y="578" on="0"/>
        <pt x="78" y="448" on="0"/>
        <pt x="78" y="365" on="1"/>
        <pt x="78" y="281" on="0"/>
        <pt x="114" y="152" on="0"/>
        <pt x="179" y="65" on="0"/>
        <pt x="267" y="20" on="0"/>
        <pt x="318" y="20" on="1"/>
        <pt x="360" y="20" on="0"/>
        <pt x="433" y="46" on="0"/>
        <pt x="460" y="69" on="1"/>
        <pt x="460" y="327" on="1"/>
        <pt x="304" y="327" on="1"/>
        <pt x="304" y="356" on="1"/>
      </contour>
    </TTGlyph>
    <TTGlyph name="G.alt" xMin="46" yMin="-7" xMax="530" yMax="743">
      <contour>
        <pt x="530" y="360" on="1"/>
        <pt x="530" y="281" on="0"/>
        <pt x="498" y="146" on="0"/>
        <pt x="438" y="48" on="0"/>
        <pt x="352" y="-7" on="0"/>
        <pt x="298" y="-7" on="1"/>
        <pt x="244" y="-7" on="0"/>
        <pt x="152" y="42" on="0"/>
        <pt x="85" y="136" on="0"/>
        <pt x="46" y="275" on="0"/>
        <pt x="46" y="365" on="1"/>
        <pt x="46" y="455" on="0"/>
        <pt x="86" y="595" on="0"/>
        <pt x="157" y="692" on="0"/>
        <pt x="252" y="743" on="0"/>
        <pt x="308" y="743" on="1"/>
        <pt x="365" y="743" on="0"/>
        <pt x="452" y="700" on="0"/>
        <pt x="487" y="664" on="1"/>
        <pt x="465" y="642" on="1"/>
        <pt x="434" y="673" on="0"/>
        <pt x="360" y="714" on="0"/>
        <pt x="307" y="715" on="1"/>
        <pt x="260" y="715" on="0"/>
        <pt x="176" y="667" on="0"/>
        <pt x="114" y="576" on="0"/>
        <pt x="78" y="446" on="0"/>
        <pt x="78" y="365" on="1"/>
        <pt x="78" y="283" on="0"/>
        <pt x="112" y="155" on="0"/>
        <pt x="171" y="66" on="0"/>
        <pt x="252" y="20" on="0"/>
        <pt x="299" y="20" on="1"/>
        <pt x="342" y="20" on="0"/>
        <pt x="414" y="66" on="0"/>
        <pt x="467" y="148" on="0"/>
        <pt x="496" y="262" on="0"/>
        <pt x="498" y="331" on="1"/>
        <pt x="288" y="331" on="1"/>
        <pt x="288" y="360" on="1"/>
      </contour>
    </TTGlyph>
    <TTGlyph name="Gbreve" xMin="46" yMin="-7" xMax="491" yMax="900">
      <component glyphName="G" x="0" y="0" flags="0x204"/>
      <component glyphName="breve" x="94" y="306" flags="0x4"/>
    </TTGlyph>
    <TTGlyph name="Gbreve.alt" xMin="46" yMin="-7" xMax="530" yMax="900">
      <component glyphName="G.alt" x="0" y="0" flags="0x204"/>
      <component glyphName="breve" x="100" y="306" flags="0x4"/>
    </TTGlyph>
    <TTGlyph name="Gcommaaccent" xMin="46" yMin="-214" xMax="491" yMax="743">
      <component glyphName="commaaccent" x="235" y="0" flags="0x4"/>
      <component glyphName="G" x="0" y="0" flags="0x4"/>
    </TTGlyph>
    <TTGlyph name="Gcommaaccent.alt" xMin="46" yMin="-214" xMax="530" yMax="743">
      <component glyphName="commaaccent" x="232" y="0" flags="0x4"/>
      <component glyphName="G.alt" x="0" y="0" flags="0x4"/>
    </TTGlyph>
    <TTGlyph name="Gdotaccent" xMin="46" yMin="-7" xMax="491" yMax="861">
      <component glyphName="G" x="0" y="0" flags="0x204"/>
      <component glyphName="dotaccent" x="93" y="306" flags="0x4"/>
    </TTGlyph>
    <TTGlyph name="Gdotaccent.alt" xMin="46" yMin="-7" xMax="530" yMax="861">
      <component glyphName="G.alt" x="0" y="0" flags="0x4"/>
      <component glyphName="dotaccent" x="99" y="306" flags="0x4"/>
    </TTGlyph>
    <TTGlyph name="H" xMin="72" yMin="0" xMax="453" yMax="733">
      <contour>
        <pt x="421" y="0" on="1"/>
        <pt x="421" y="360" on="1"/>
        <pt x="104" y="360" on="1"/>
        <pt x="104" y="0" on="1"/>
        <pt x="72" y="0" on="1"/>
        <pt x="72" y="733" on="1"/>
        <pt x="104" y="733" on="1"/>
        <pt x="104" y="389" on="1"/>
        <pt x="421" y="389" on="1"/>
        <pt x="421" y="733" on="1"/>
        <pt x="453" y="733" on="1"/>
        <pt x="453" y="0" on="1"/>
      </contour>
    </TTGlyph>
    <TTGlyph name="Hbar" xMin="10" yMin="0" xMax="515" yMax="733">
      <contour>
        <pt x="421" y="0" on="1"/>
        <pt x="421" y="360" on="1"/>
        <pt x="104" y="360" on="1"/>
        <pt x="104" y="0" on="1"/>
        <pt x="72" y="0" on="1"/>
        <pt x="72" y="564" on="1"/>
        <pt x="10" y="564" on="1"/>
        <pt x="10" y="592" on="1"/>
        <pt x="72" y="592" on="1"/>
        <pt x="72" y="733" on="1"/>
        <pt x="104" y="733" on="1"/>
        <pt x="104" y="592" on="1"/>
        <pt x="421" y="592" on="1"/>
        <pt x="421" y="733" on="1"/>
        <pt x="453" y="733" on="1"/>
        <pt x="453" y="592" on="1"/>
        <pt x="515" y="592" on="1"/>
        <pt x="515" y="564" on="1"/>
        <pt x="453" y="564" on="1"/>
        <pt x="453" y="0" on="1"/>
      </contour>
      <contour>
        <pt x="421" y="389" on="1"/>
        <pt x="421" y="564" on="1"/>
        <pt x="104" y="564" on="1"/>
        <pt x="104" y="389" on="1"/>
      </contour>
    </TTGlyph>
    <TTGlyph name="I" xMin="75" yMin="0" xMax="107" yMax="733">
      <contour>
        <pt x="75" y="0" on="1"/>
        <pt x="75" y="733" on="1"/>
        <pt x="107" y="733" on="1"/>
        <pt x="107" y="0" on="1"/>
      </contour>
    </TTGlyph>
    <TTGlyph name="Iacute" xMin="64" yMin="0" xMax="223" yMax="902">
      <component glyphName="I" x="0" y="0" flags="0x204"/>
      <component glyphName="acute" x="-60" y="301" flags="0x4"/>
    </TTGlyph>
    <TTGlyph name="Ibreve" xMin="-8" yMin="0" xMax="192" yMax="895">
      <component glyphName="I" x="0" y="0" flags="0x204"/>
      <component glyphName="breve" x="-116" y="301" flags="0x4"/>
    </TTGlyph>
    <TTGlyph name="Icircumflex" xMin="-11" yMin="0" xMax="195" yMax="896">
      <component glyphName="I" x="0" y="0" flags="0x204"/>
      <component glyphName="circumflex" x="-117" y="301" flags="0x4"/>
    </TTGlyph>
    <TTGlyph name="Idieresis" xMin="-1" yMin="0" xMax="186" yMax="856">
      <component glyphName="I" x="0" y="0" flags="0x204"/>
      <component glyphName="dieresis" x="-116" y="301" flags="0x4"/>
    </TTGlyph>
    <TTGlyph name="Idotaccent" xMin="64" yMin="0" xMax="121" yMax="856">
      <component glyphName="I" x="0" y="0" flags="0x204"/>
      <component glyphName="dotaccent" x="-116" y="301" flags="0x4"/>
    </TTGlyph>
    <TTGlyph name="Igrave" xMin="-40" yMin="0" xMax="119" yMax="902">
      <component glyphName="I" x="0" y="0" flags="0x204"/>
      <component glyphName="grave" x="-173" y="301" flags="0x4"/>
    </TTGlyph>
    <TTGlyph name="Imacron" xMin="-21" yMin="0" xMax="206" yMax="838">
      <component glyphName="I" x="0" y="0" flags="0x204"/>
      <component glyphName="macron" x="-116" y="301" flags="0x4"/>
    </TTGlyph>
    <TTGlyph name="Iogonek" xMin="19" yMin="-201" xMax="143" yMax="733">
      <contour>
        <pt x="143" y="-167" on="1"/>
        <pt x="132" y="-182" on="0"/>
        <pt x="101" y="-201" on="0"/>
        <pt x="80" y="-201" on="1"/>
        <pt x="53" y="-201" on="0"/>
        <pt x="19" y="-164" on="0"/>
        <pt x="19" y="-131" on="1"/>
        <pt x="19" y="-102" on="0"/>
        <pt x="46" y="-39" on="0"/>
        <pt x="75" y="1" on="1"/>
        <pt x="75" y="733" on="1"/>
        <pt x="107" y="733" on="1"/>
        <pt x="107" y="0" on="1"/>
        <pt x="76" y="-40" on="0"/>
        <pt x="48" y="-101" on="0"/>
        <pt x="48" y="-130" on="1"/>
        <pt x="48" y="-152" on="0"/>
        <pt x="67" y="-175" on="0"/>
        <pt x="82" y="-175" on="1"/>
        <pt x="109" y="-175" on="0"/>
        <pt x="128" y="-150" on="1"/>
      </contour>
    </TTGlyph>
    <TTGlyph name="J" xMin="11" yMin="-11" xMax="286" yMax="733">
      <contour>
        <pt x="286" y="163" on="1"/>
        <pt x="286" y="78" on="0"/>
        <pt x="207" y="-11" on="0"/>
        <pt x="139" y="-11" on="1"/>
        <pt x="98" y="-11" on="0"/>
        <pt x="35" y="17" on="0"/>
        <pt x="11" y="38" on="1"/>
        <pt x="30" y="62" on="1"/>
        <pt x="53" y="41" on="0"/>
        <pt x="107" y="17" on="0"/>
        <pt x="140" y="17" on="1"/>
        <pt x="191" y="17" on="0"/>
        <pt x="255" y="90" on="0"/>
        <pt x="255" y="164" on="1"/>
        <pt x="255" y="733" on="1"/>
        <pt x="286" y="733" on="1"/>
      </contour>
    </TTGlyph>
    <TTGlyph name="K" xMin="72" yMin="0" xMax="416" yMax="733">
      <contour>
        <pt x="376" y="0" on="1"/>
        <pt x="104" y="364" on="1"/>
        <pt x="104" y="0" on="1"/>
        <pt x="72" y="0" on="1"/>
        <pt x="72" y="733" on="1"/>
        <pt x="104" y="733" on="1"/>
        <pt x="104" y="386" on="1"/>
        <pt x="368" y="733" on="1"/>
        <pt x="407" y="733" on="1"/>
        <pt x="132" y="376" on="1"/>
        <pt x="416" y="0" on="1"/>
      </contour>
    </TTGlyph>
    <TTGlyph name="Kcommaaccent" xMin="72" yMin="-204" xMax="416" yMax="733">
      <component glyphName="commaaccent" x="162" y="10" flags="0x4"/>
      <component glyphName="K" x="0" y="0" flags="0x4"/>
    </TTGlyph>
    <TTGlyph name="L" xMin="72" yMin="0" xMax="373" yMax="733">
      <contour>
        <pt x="72" y="0" on="1"/>
        <pt x="72" y="733" on="1"/>
        <pt x="104" y="733" on="1"/>
        <pt x="104" y="28" on="1"/>
        <pt x="373" y="28" on="1"/>
        <pt x="373" y="0" on="1"/>
      </contour>
    </TTGlyph>
    <TTGlyph name="Lacute" xMin="72" yMin="0" xMax="373" yMax="902">
      <component glyphName="acute" x="-46" y="301" flags="0x4"/>
      <component glyphName="L" x="0" y="0" flags="0x4"/>
    </TTGlyph>
    <TTGlyph name="Lcaron" xMin="72" yMin="0" xMax="373" yMax="734">
      <component glyphName="caron.alt" x="109" y="-2" flags="0x4"/>
      <component glyphName="L" x="0" y="0" flags="0x4"/>
    </TTGlyph>
    <TTGlyph name="Lcommaaccent" xMin="72" yMin="-214" xMax="373" yMax="733">
      <component glyphName="commaaccent" x="155" y="0" flags="0x4"/>
      <component glyphName="L" x="0" y="0" flags="0x4"/>
    </TTGlyph>
    <TTGlyph name="Ldot" xMin="72" yMin="0" xMax="373" yMax="733">
      <component glyphName="L" x="0" y="0" flags="0x204"/>
      <component glyphName="dotaccent" x="69" y="-158" flags="0x4"/>
    </TTGlyph>
    <TTGlyph name="Lslash" xMin="32" yMin="0" xMax="396" yMax="733">
      <contour>
        <pt x="96" y="0" on="1"/>
        <pt x="96" y="346" on="1"/>
        <pt x="32" y="317" on="1"/>
        <pt x="32" y="347" on="1"/>
        <pt x="96" y="376" on="1"/>
        <pt x="96" y="733" on="1"/>
        <pt x="128" y="733" on="1"/>
        <pt x="128" y="390" on="1"/>
        <pt x="236" y="440" on="1"/>
        <pt x="236" y="409" on="1"/>
        <pt x="128" y="360" on="1"/>
        <pt x="128" y="28" on="1"/>
        <pt x="396" y="28" on="1"/>
        <pt x="396" y="0" on="1"/>
      </contour>
    </TTGlyph>
    <TTGlyph name="M" xMin="66" yMin="0" xMax="564" yMax="738">
      <contour>
        <pt x="534" y="0" on="1"/>
        <pt x="524" y="634" on="1"/>
        <pt x="319" y="159" on="1"/>
        <pt x="311" y="159" on="1"/>
        <pt x="106" y="634" on="1"/>
        <pt x="97" y="0" on="1"/>
        <pt x="66" y="0" on="1"/>
        <pt x="81" y="736" on="1"/>
        <pt x="93" y="738" on="1"/>
        <pt x="316" y="222" on="1"/>
        <pt x="538" y="738" on="1"/>
        <pt x="550" y="736" on="1"/>
        <pt x="564" y="0" on="1"/>
      </contour>
    </TTGlyph>
    <TTGlyph name="M.alt" xMin="66" yMin="0" xMax="564" yMax="738">
      <contour>
        <pt x="534" y="0" on="1"/>
        <pt x="524" y="635" on="1"/>
        <pt x="319" y="189" on="1"/>
        <pt x="311" y="189" on="1"/>
        <pt x="106" y="635" on="1"/>
        <pt x="97" y="0" on="1"/>
        <pt x="66" y="0" on="1"/>
        <pt x="81" y="736" on="1"/>
        <pt x="93" y="738" on="1"/>
        <pt x="316" y="250" on="1"/>
        <pt x="538" y="738" on="1"/>
        <pt x="550" y="736" on="1"/>
        <pt x="564" y="0" on="1"/>
      </contour>
    </TTGlyph>
    <TTGlyph name="N" xMin="72" yMin="-4" xMax="466" yMax="737">
      <contour>
        <pt x="454" y="-4" on="1"/>
        <pt x="102" y="642" on="1"/>
        <pt x="102" y="0" on="1"/>
        <pt x="72" y="0" on="1"/>
        <pt x="72" y="736" on="1"/>
        <pt x="85" y="737" on="1"/>
        <pt x="436" y="91" on="1"/>
        <pt x="436" y="733" on="1"/>
        <pt x="466" y="733" on="1"/>
        <pt x="466" y="-3" on="1"/>
      </contour>
    </TTGlyph>
    <TTGlyph name="Nacute" xMin="72" yMin="-4" xMax="466" yMax="897">
      <component glyphName="acute" x="116" y="296" flags="0x4"/>
      <component glyphName="N" x="0" y="0" flags="0x4"/>
    </TTGlyph>
    <TTGlyph name="Ncaron" xMin="72" yMin="-4" xMax="466" yMax="891">
      <component glyphName="caron" x="59" y="296" flags="0x4"/>
      <component glyphName="N" x="0" y="0" flags="0x4"/>
    </TTGlyph>
    <TTGlyph name="Ncommaaccent" xMin="72" yMin="-204" xMax="466" yMax="737">
      <component glyphName="commaaccent" x="202" y="10" flags="0x4"/>
      <component glyphName="N" x="0" y="0" flags="0x4"/>
    </TTGlyph>
    <TTGlyph name="Ntilde" xMin="72" yMin="-4" xMax="466" yMax="858">
      <component glyphName="N" x="0" y="0" flags="0x204"/>
      <component glyphName="tilde" x="61" y="296" flags="0x4"/>
    </TTGlyph>
    <TTGlyph name="O" xMin="46" yMin="-8" xMax="544" yMax="741">
      <contour>
        <pt x="544" y="367" on="1"/>
        <pt x="544" y="287" on="0"/>
        <pt x="508" y="149" on="0"/>
        <pt x="443" y="49" on="0"/>
        <pt x="351" y="-8" on="0"/>
        <pt x="296" y="-8" on="1"/>
        <pt x="240" y="-8" on="0"/>
        <pt x="148" y="49" on="0"/>
        <pt x="82" y="149" on="0"/>
        <pt x="46" y="287" on="0"/>
        <pt x="46" y="367" on="1"/>
        <pt x="46" y="447" on="0"/>
        <pt x="82" y="584" on="0"/>
        <pt x="148" y="684" on="0"/>
        <pt x="240" y="741" on="0"/>
        <pt x="296" y="741" on="1"/>
        <pt x="351" y="741" on="0"/>
        <pt x="443" y="684" on="0"/>
        <pt x="508" y="584" on="0"/>
        <pt x="544" y="447" on="0"/>
      </contour>
      <contour>
        <pt x="512" y="367" on="1"/>
        <pt x="512" y="442" on="0"/>
        <pt x="480" y="569" on="0"/>
        <pt x="422" y="661" on="0"/>
        <pt x="343" y="713" on="0"/>
        <pt x="296" y="713" on="1"/>
        <pt x="249" y="713" on="0"/>
        <pt x="169" y="661" on="0"/>
        <pt x="111" y="569" on="0"/>
        <pt x="78" y="442" on="0"/>
        <pt x="78" y="367" on="1"/>
        <pt x="78" y="292" on="0"/>
        <pt x="111" y="164" on="0"/>
        <pt x="169" y="72" on="0"/>
        <pt x="249" y="20" on="0"/>
        <pt x="296" y="20" on="1"/>
        <pt x="343" y="20" on="0"/>
        <pt x="422" y="72" on="0"/>
        <pt x="480" y="164" on="0"/>
        <pt x="512" y="292" on="0"/>
      </contour>
    </TTGlyph>
    <TTGlyph name="OE" xMin="44" yMin="-6" xMax="728" yMax="740">
      <contour>
        <pt x="445" y="0" on="1"/>
        <pt x="426" y="-2" on="0"/>
        <pt x="381" y="-6" on="0"/>
        <pt x="355" y="-6" on="1"/>
        <pt x="282" y="-6" on="0"/>
        <pt x="167" y="51" on="0"/>
        <pt x="87" y="151" on="0"/>
        <pt x="44" y="287" on="0"/>
        <pt x="44" y="365" on="1"/>
        <pt x="44" y="443" on="0"/>
        <pt x="86" y="580" on="0"/>
        <pt x="166" y="681" on="0"/>
        <pt x="282" y="740" on="0"/>
        <pt x="356" y="740" on="1"/>
        <pt x="384" y="740" on="0"/>
        <pt x="440" y="735" on="0"/>
        <pt x="458" y="733" on="1"/>
        <pt x="728" y="733" on="1"/>
        <pt x="728" y="704" on="1"/>
        <pt x="460" y="704" on="1"/>
        <pt x="460" y="388" on="1"/>
        <pt x="705" y="388" on="1"/>
        <pt x="705" y="359" on="1"/>
        <pt x="460" y="359" on="1"/>
        <pt x="460" y="29" on="1"/>
        <pt x="728" y="29" on="1"/>
        <pt x="728" y="0" on="1"/>
      </contour>
      <contour>
        <pt x="428" y="707" on="1"/>
        <pt x="414" y="709" on="0"/>
        <pt x="378" y="712" on="0"/>
        <pt x="357" y="712" on="1"/>
        <pt x="291" y="712" on="0"/>
        <pt x="187" y="659" on="0"/>
        <pt x="115" y="565" on="0"/>
        <pt x="77" y="438" on="0"/>
        <pt x="77" y="364" on="1"/>
        <pt x="77" y="289" on="0"/>
        <pt x="116" y="163" on="0"/>
        <pt x="188" y="73" on="0"/>
        <pt x="292" y="22" on="0"/>
        <pt x="357" y="22" on="1"/>
        <pt x="378" y="22" on="0"/>
        <pt x="414" y="24" on="0"/>
        <pt x="428" y="26" on="1"/>
      </contour>
    </TTGlyph>
    <TTGlyph name="Oacute" xMin="46" yMin="-8" xMax="544" yMax="907">
      <component glyphName="acute" x="142" y="306" flags="0x4"/>
      <component glyphName="O" x="0" y="0" flags="0x4"/>
    </TTGlyph>
    <TTGlyph name="Obreve" xMin="46" yMin="-8" xMax="544" yMax="900">
      <component glyphName="O" x="0" y="0" flags="0x204"/>
      <component glyphName="breve" x="87" y="306" flags="0x4"/>
    </TTGlyph>
    <TTGlyph name="Ocircumflex" xMin="46" yMin="-8" xMax="544" yMax="901">
      <component glyphName="circumflex" x="85" y="306" flags="0x4"/>
      <component glyphName="O" x="0" y="0" flags="0x4"/>
    </TTGlyph>
    <TTGlyph name="Odieresis" xMin="46" yMin="-8" xMax="544" yMax="861">
      <component glyphName="dieresis" x="87" y="306" flags="0x4"/>
      <component glyphName="O" x="0" y="0" flags="0x4"/>
    </TTGlyph>
    <TTGlyph name="Ograve" xMin="46" yMin="-8" xMax="544" yMax="907">
      <component glyphName="O" x="0" y="0" flags="0x204"/>
      <component glyphName="grave" x="30" y="306" flags="0x4"/>
    </TTGlyph>
    <TTGlyph name="Ohungarumlaut" xMin="46" yMin="-8" xMax="544" yMax="953">
      <component glyphName="hungarumlaut" x="123" y="306" flags="0x4"/>
      <component glyphName="O" x="0" y="0" flags="0x4"/>
    </TTGlyph>
    <TTGlyph name="Omacron" xMin="46" yMin="-8" xMax="544" yMax="843">
      <component glyphName="macron" x="87" y="306" flags="0x4"/>
      <component glyphName="O" x="0" y="0" flags="0x4"/>
    </TTGlyph>
    <TTGlyph name="Oslash" xMin="27" yMin="-8" xMax="563" yMax="742">
      <contour>
        <pt x="544" y="367" on="1"/>
        <pt x="544" y="287" on="0"/>
        <pt x="508" y="149" on="0"/>
        <pt x="443" y="49" on="0"/>
        <pt x="351" y="-8" on="0"/>
        <pt x="296" y="-8" on="1"/>
        <pt x="241" y="-8" on="0"/>
        <pt x="151" y="46" on="0"/>
        <pt x="119" y="94" on="1"/>
        <pt x="49" y="-7" on="1"/>
        <pt x="27" y="8" on="1"/>
        <pt x="48" y="39" on="0"/>
        <pt x="65" y="65" on="1"/>
        <pt x="72" y="76" on="0"/>
        <pt x="87" y="96" on="0"/>
        <pt x="92" y="104" on="1"/>
        <pt x="98" y="114" on="0"/>
        <pt x="104" y="122" on="1"/>
        <pt x="76" y="171" on="0"/>
        <pt x="46" y="295" on="0"/>
        <pt x="46" y="367" on="1"/>
        <pt x="46" y="447" on="0"/>
        <pt x="82" y="584" on="0"/>
        <pt x="148" y="684" on="0"/>
        <pt x="240" y="741" on="0"/>
        <pt x="296" y="741" on="1"/>
        <pt x="350" y="741" on="0"/>
        <pt x="438" y="688" on="0"/>
        <pt x="471" y="640" on="1"/>
        <pt x="542" y="742" on="1"/>
        <pt x="563" y="726" on="1"/>
        <pt x="545" y="699" on="0"/>
        <pt x="530" y="675" on="1"/>
        <pt x="517" y="655" on="0"/>
        <pt x="491" y="617" on="0"/>
        <pt x="486" y="612" on="1"/>
        <pt x="514" y="563" on="0"/>
        <pt x="544" y="439" on="0"/>
      </contour>
      <contour>
        <pt x="512" y="367" on="1"/>
        <pt x="512" y="428" on="0"/>
        <pt x="487" y="536" on="0"/>
        <pt x="465" y="579" on="1"/>
        <pt x="139" y="125" on="1"/>
        <pt x="168" y="75" on="0"/>
        <pt x="248" y="20" on="0"/>
        <pt x="296" y="20" on="1"/>
        <pt x="343" y="20" on="0"/>
        <pt x="422" y="72" on="0"/>
        <pt x="480" y="164" on="0"/>
        <pt x="512" y="292" on="0"/>
      </contour>
      <contour>
        <pt x="451" y="609" on="1"/>
        <pt x="422" y="659" on="0"/>
        <pt x="343" y="713" on="0"/>
        <pt x="296" y="713" on="1"/>
        <pt x="249" y="713" on="0"/>
        <pt x="169" y="661" on="0"/>
        <pt x="111" y="569" on="0"/>
        <pt x="78" y="442" on="0"/>
        <pt x="78" y="367" on="1"/>
        <pt x="78" y="305" on="0"/>
        <pt x="102" y="198" on="0"/>
        <pt x="125" y="155" on="1"/>
      </contour>
    </TTGlyph>
    <TTGlyph name="Oslashacute" xMin="27" yMin="-8" xMax="563" yMax="907">
      <component glyphName="Oslash" x="0" y="0" flags="0x204"/>
      <component glyphName="acute" x="141" y="306" flags="0x4"/>
    </TTGlyph>
    <TTGlyph name="Otilde" xMin="46" yMin="-8" xMax="544" yMax="868">
      <component glyphName="O" x="0" y="0" flags="0x204"/>
      <component glyphName="tilde" x="88" y="306" flags="0x4"/>
    </TTGlyph>
    <TTGlyph name="P" xMin="72" yMin="0" xMax="396" yMax="739">
      <contour>
        <pt x="396" y="503" on="1"/>
        <pt x="396" y="451" on="0"/>
        <pt x="365" y="363" on="0"/>
        <pt x="306" y="298" on="0"/>
        <pt x="224" y="262" on="0"/>
        <pt x="173" y="262" on="1"/>
        <pt x="156" y="262" on="0"/>
        <pt x="118" y="266" on="0"/>
        <pt x="104" y="268" on="1"/>
        <pt x="104" y="0" on="1"/>
        <pt x="72" y="0" on="1"/>
        <pt x="72" y="731" on="1"/>
        <pt x="95" y="735" on="0"/>
        <pt x="142" y="739" on="0"/>
        <pt x="168" y="739" on="1"/>
        <pt x="226" y="739" on="0"/>
        <pt x="312" y="701" on="0"/>
        <pt x="368" y="637" on="0"/>
        <pt x="396" y="551" on="0"/>
      </contour>
      <contour>
        <pt x="364" y="503" on="1"/>
        <pt x="364" y="544" on="0"/>
        <pt x="340" y="619" on="0"/>
        <pt x="291" y="676" on="0"/>
        <pt x="217" y="710" on="0"/>
        <pt x="167" y="710" on="1"/>
        <pt x="150" y="710" on="0"/>
        <pt x="119" y="708" on="0"/>
        <pt x="104" y="706" on="1"/>
        <pt x="104" y="296" on="1"/>
        <pt x="120" y="294" on="0"/>
        <pt x="156" y="290" on="0"/>
        <pt x="173" y="290" on="1"/>
        <pt x="217" y="290" on="0"/>
        <pt x="288" y="322" on="0"/>
        <pt x="337" y="379" on="0"/>
        <pt x="364" y="457" on="0"/>
      </contour>
    </TTGlyph>
    <TTGlyph name="Q" xMin="46" yMin="-10" xMax="551" yMax="741">
      <contour>
        <pt x="531" y="-10" on="1"/>
        <pt x="458" y="74" on="1"/>
        <pt x="426" y="35" on="0"/>
        <pt x="344" y="-8" on="0"/>
        <pt x="296" y="-8" on="1"/>
        <pt x="240" y="-8" on="0"/>
        <pt x="148" y="49" on="0"/>
        <pt x="82" y="149" on="0"/>
        <pt x="46" y="287" on="0"/>
        <pt x="46" y="367" on="1"/>
        <pt x="46" y="447" on="0"/>
        <pt x="82" y="584" on="0"/>
        <pt x="148" y="684" on="0"/>
        <pt x="240" y="741" on="0"/>
        <pt x="296" y="741" on="1"/>
        <pt x="351" y="741" on="0"/>
        <pt x="443" y="684" on="0"/>
        <pt x="508" y="584" on="0"/>
        <pt x="544" y="447" on="0"/>
        <pt x="544" y="367" on="1"/>
        <pt x="544" y="286" on="0"/>
        <pt x="508" y="149" on="0"/>
        <pt x="475" y="98" on="1"/>
        <pt x="551" y="11" on="1"/>
      </contour>
      <contour>
        <pt x="512" y="367" on="1"/>
        <pt x="512" y="442" on="0"/>
        <pt x="480" y="569" on="0"/>
        <pt x="422" y="661" on="0"/>
        <pt x="343" y="713" on="0"/>
        <pt x="296" y="713" on="1"/>
        <pt x="249" y="713" on="0"/>
        <pt x="169" y="661" on="0"/>
        <pt x="111" y="569" on="0"/>
        <pt x="78" y="442" on="0"/>
        <pt x="78" y="367" on="1"/>
        <pt x="78" y="292" on="0"/>
        <pt x="111" y="164" on="0"/>
        <pt x="169" y="72" on="0"/>
        <pt x="249" y="20" on="0"/>
        <pt x="296" y="20" on="1"/>
        <pt x="338" y="20" on="0"/>
        <pt x="410" y="61" on="0"/>
        <pt x="437" y="99" on="1"/>
        <pt x="427" y="111" on="0"/>
        <pt x="416" y="123" on="1"/>
        <pt x="406" y="134" on="0"/>
        <pt x="383" y="161" on="0"/>
        <pt x="370" y="175" on="1"/>
        <pt x="340" y="208" on="0"/>
        <pt x="303" y="251" on="1"/>
        <pt x="324" y="272" on="1"/>
        <pt x="453" y="124" on="1"/>
        <pt x="481" y="169" on="0"/>
        <pt x="512" y="292" on="0"/>
      </contour>
    </TTGlyph>
    <TTGlyph name="R" xMin="72" yMin="0" xMax="424" yMax="739">
      <contour>
        <pt x="388" y="0" on="1"/>
        <pt x="228" y="313" on="1"/>
        <pt x="215" y="310" on="0"/>
        <pt x="189" y="308" on="0"/>
        <pt x="175" y="308" on="1"/>
        <pt x="157" y="308" on="0"/>
        <pt x="118" y="311" on="0"/>
        <pt x="104" y="313" on="1"/>
        <pt x="104" y="0" on="1"/>
        <pt x="72" y="0" on="1"/>
        <pt x="72" y="729" on="1"/>
        <pt x="98" y="733" on="0"/>
        <pt x="147" y="739" on="0"/>
        <pt x="175" y="739" on="1"/>
        <pt x="230" y="739" on="0"/>
        <pt x="316" y="707" on="0"/>
        <pt x="373" y="650" on="0"/>
        <pt x="403" y="572" on="0"/>
        <pt x="403" y="526" on="1"/>
        <pt x="403" y="451" on="0"/>
        <pt x="324" y="344" on="0"/>
        <pt x="258" y="321" on="1"/>
        <pt x="424" y="0" on="1"/>
      </contour>
      <contour>
        <pt x="370" y="526" on="1"/>
        <pt x="370" y="566" on="0"/>
        <pt x="346" y="633" on="0"/>
        <pt x="297" y="682" on="0"/>
        <pt x="224" y="710" on="0"/>
        <pt x="175" y="710" on="1"/>
        <pt x="155" y="710" on="0"/>
        <pt x="124" y="707" on="0"/>
        <pt x="104" y="705" on="1"/>
        <pt x="104" y="341" on="1"/>
        <pt x="118" y="339" on="0"/>
        <pt x="155" y="336" on="0"/>
        <pt x="175" y="336" on="1"/>
        <pt x="217" y="336" on="0"/>
        <pt x="289" y="362" on="0"/>
        <pt x="341" y="411" on="0"/>
        <pt x="370" y="481" on="0"/>
      </contour>
    </TTGlyph>
    <TTGlyph name="Racute" xMin="72" yMin="0" xMax="424" yMax="902">
      <component glyphName="acute" x="67" y="301" flags="0x4"/>
      <component glyphName="R" x="0" y="0" flags="0x4"/>
    </TTGlyph>
    <TTGlyph name="Rcaron" xMin="72" yMin="0" xMax="424" yMax="896">
      <component glyphName="caron" x="10" y="301" flags="0x4"/>
      <component glyphName="R" x="0" y="0" flags="0x4"/>
    </TTGlyph>
    <TTGlyph name="Rcommaaccent" xMin="72" yMin="-209" xMax="424" yMax="739">
      <component glyphName="commaaccent" x="156" y="5" flags="0x4"/>
      <component glyphName="R" x="0" y="0" flags="0x4"/>
    </TTGlyph>
    <TTGlyph name="S" xMin="24" yMin="-10" xMax="369" yMax="743">
      <contour>
        <pt x="369" y="170" on="1"/>
        <pt x="369" y="128" on="0"/>
        <pt x="341" y="61" on="0"/>
        <pt x="293" y="15" on="0"/>
        <pt x="228" y="-10" on="0"/>
        <pt x="192" y="-10" on="1"/>
        <pt x="144" y="-10" on="0"/>
        <pt x="61" y="26" on="0"/>
        <pt x="24" y="54" on="1"/>
        <pt x="42" y="80" on="1"/>
        <pt x="76" y="54" on="0"/>
        <pt x="151" y="19" on="0"/>
        <pt x="194" y="19" on="1"/>
        <pt x="223" y="19" on="0"/>
        <pt x="276" y="40" on="0"/>
        <pt x="315" y="78" on="0"/>
        <pt x="338" y="132" on="0"/>
        <pt x="338" y="166" on="1"/>
        <pt x="338" y="203" on="0"/>
        <pt x="314" y="259" on="0"/>
        <pt x="274" y="305" on="0"/>
        <pt x="223" y="343" on="0"/>
        <pt x="197" y="362" on="1"/>
        <pt x="169" y="382" on="0"/>
        <pt x="116" y="423" on="0"/>
        <pt x="75" y="473" on="0"/>
        <pt x="50" y="533" on="0"/>
        <pt x="50" y="572" on="1"/>
        <pt x="50" y="610" on="0"/>
        <pt x="75" y="673" on="0"/>
        <pt x="120" y="718" on="0"/>
        <pt x="182" y="743" on="0"/>
        <pt x="219" y="743" on="1"/>
        <pt x="264" y="743" on="0"/>
        <pt x="331" y="713" on="0"/>
        <pt x="358" y="690" on="1"/>
        <pt x="340" y="665" on="1"/>
        <pt x="317" y="685" on="0"/>
        <pt x="256" y="714" on="0"/>
        <pt x="217" y="714" on="1"/>
        <pt x="187" y="714" on="0"/>
        <pt x="138" y="694" on="0"/>
        <pt x="102" y="657" on="0"/>
        <pt x="82" y="606" on="0"/>
        <pt x="82" y="576" on="1"/>
        <pt x="82" y="540" on="0"/>
        <pt x="106" y="485" on="0"/>
        <pt x="146" y="440" on="0"/>
        <pt x="196" y="401" on="0"/>
        <pt x="222" y="382" on="1"/>
        <pt x="250" y="362" on="0"/>
        <pt x="304" y="320" on="0"/>
        <pt x="344" y="270" on="0"/>
        <pt x="369" y="209" on="0"/>
      </contour>
    </TTGlyph>
    <TTGlyph name="Sacute" xMin="24" yMin="-10" xMax="369" yMax="907">
      <component glyphName="acute" x="59" y="306" flags="0x4"/>
      <component glyphName="S" x="0" y="0" flags="0x4"/>
    </TTGlyph>
    <TTGlyph name="Scaron" xMin="24" yMin="-10" xMax="369" yMax="901">
      <component glyphName="caron" x="2" y="306" flags="0x4"/>
      <component glyphName="S" x="0" y="0" flags="0x4"/>
    </TTGlyph>
    <TTGlyph name="Scedilla" xMin="24" yMin="-198" xMax="369" yMax="743">
      <contour>
        <pt x="279" y="-129" on="1"/>
        <pt x="279" y="-157" on="0"/>
        <pt x="236" y="-198" on="0"/>
        <pt x="195" y="-198" on="1"/>
        <pt x="174" y="-198" on="0"/>
        <pt x="131" y="-183" on="0"/>
        <pt x="111" y="-171" on="1"/>
        <pt x="123" y="-147" on="1"/>
        <pt x="142" y="-158" on="0"/>
        <pt x="179" y="-171" on="0"/>
        <pt x="197" y="-171" on="1"/>
        <pt x="223" y="-171" on="0"/>
        <pt x="249" y="-148" on="0"/>
        <pt x="249" y="-130" on="1"/>
        <pt x="249" y="-109" on="0"/>
        <pt x="208" y="-76" on="0"/>
        <pt x="160" y="-71" on="1"/>
        <pt x="158" y="-67" on="1"/>
        <pt x="173" y="-9" on="1"/>
        <pt x="131" y="-6" on="0"/>
        <pt x="57" y="28" on="0"/>
        <pt x="24" y="54" on="1"/>
        <pt x="42" y="80" on="1"/>
        <pt x="76" y="54" on="0"/>
        <pt x="151" y="19" on="0"/>
        <pt x="194" y="19" on="1"/>
        <pt x="223" y="19" on="0"/>
        <pt x="276" y="40" on="0"/>
        <pt x="315" y="78" on="0"/>
        <pt x="338" y="132" on="0"/>
        <pt x="338" y="166" on="1"/>
        <pt x="338" y="203" on="0"/>
        <pt x="314" y="259" on="0"/>
        <pt x="274" y="305" on="0"/>
        <pt x="223" y="343" on="0"/>
        <pt x="197" y="362" on="1"/>
        <pt x="169" y="382" on="0"/>
        <pt x="116" y="423" on="0"/>
        <pt x="75" y="473" on="0"/>
        <pt x="50" y="533" on="0"/>
        <pt x="50" y="572" on="1"/>
        <pt x="50" y="610" on="0"/>
        <pt x="75" y="673" on="0"/>
        <pt x="120" y="718" on="0"/>
        <pt x="182" y="743" on="0"/>
        <pt x="219" y="743" on="1"/>
        <pt x="264" y="743" on="0"/>
        <pt x="331" y="713" on="0"/>
        <pt x="358" y="690" on="1"/>
        <pt x="340" y="665" on="1"/>
        <pt x="317" y="685" on="0"/>
        <pt x="256" y="714" on="0"/>
        <pt x="217" y="714" on="1"/>
        <pt x="187" y="714" on="0"/>
        <pt x="138" y="694" on="0"/>
        <pt x="102" y="657" on="0"/>
        <pt x="82" y="606" on="0"/>
        <pt x="82" y="576" on="1"/>
        <pt x="82" y="540" on="0"/>
        <pt x="106" y="485" on="0"/>
        <pt x="146" y="440" on="0"/>
        <pt x="196" y="401" on="0"/>
        <pt x="222" y="382" on="1"/>
        <pt x="250" y="362" on="0"/>
        <pt x="304" y="320" on="0"/>
        <pt x="344" y="270" on="0"/>
        <pt x="369" y="209" on="0"/>
        <pt x="369" y="170" on="1"/>
        <pt x="369" y="129" on="0"/>
        <pt x="343" y="64" on="0"/>
        <pt x="297" y="18" on="0"/>
        <pt x="236" y="-8" on="0"/>
        <pt x="201" y="-10" on="1"/>
        <pt x="191" y="-50" on="1"/>
        <pt x="236" y="-59" on="0"/>
        <pt x="279" y="-102" on="0"/>
      </contour>
    </TTGlyph>
    <TTGlyph name="Scommaaccent" xMin="24" yMin="-214" xMax="369" yMax="743">
      <component glyphName="commaaccent" x="145" y="0" flags="0x4"/>
      <component glyphName="S" x="0" y="0" flags="0x4"/>
    </TTGlyph>
    <TTGlyph name="T" xMin="21" yMin="0" xMax="408" yMax="733">
      <contour>
        <pt x="230" y="704" on="1"/>
        <pt x="230" y="0" on="1"/>
        <pt x="199" y="0" on="1"/>
        <pt x="199" y="704" on="1"/>
        <pt x="21" y="704" on="1"/>
        <pt x="21" y="733" on="1"/>
        <pt x="408" y="733" on="1"/>
        <pt x="408" y="704" on="1"/>
      </contour>
    </TTGlyph>
    <TTGlyph name="Tcaron" xMin="21" yMin="0" xMax="408" yMax="896">
      <component glyphName="caron" x="4" y="301" flags="0x4"/>
      <component glyphName="T" x="0" y="0" flags="0x4"/>
    </TTGlyph>
    <TTGlyph name="Tcommaaccent" xMin="21" yMin="-214" xMax="408" yMax="733">
      <component glyphName="commaaccent" x="147" y="0" flags="0x4"/>
      <component glyphName="T" x="0" y="0" flags="0x4"/>
    </TTGlyph>
    <TTGlyph name="Thorn" xMin="72" yMin="0" xMax="396" yMax="733">
      <contour>
        <pt x="396" y="383" on="1"/>
        <pt x="396" y="331" on="0"/>
        <pt x="365" y="243" on="0"/>
        <pt x="306" y="179" on="0"/>
        <pt x="224" y="143" on="0"/>
        <pt x="173" y="143" on="1"/>
        <pt x="155" y="143" on="0"/>
        <pt x="118" y="146" on="0"/>
        <pt x="104" y="148" on="1"/>
        <pt x="104" y="0" on="1"/>
        <pt x="72" y="0" on="1"/>
        <pt x="72" y="733" on="1"/>
        <pt x="104" y="733" on="1"/>
        <pt x="104" y="617" on="1"/>
        <pt x="134" y="620" on="0"/>
        <pt x="168" y="620" on="1"/>
        <pt x="226" y="620" on="0"/>
        <pt x="312" y="582" on="0"/>
        <pt x="368" y="517" on="0"/>
        <pt x="396" y="431" on="0"/>
      </contour>
      <contour>
        <pt x="364" y="383" on="1"/>
        <pt x="364" y="424" on="0"/>
        <pt x="340" y="500" on="0"/>
        <pt x="291" y="557" on="0"/>
        <pt x="217" y="591" on="0"/>
        <pt x="167" y="591" on="1"/>
        <pt x="134" y="591" on="0"/>
        <pt x="104" y="588" on="1"/>
        <pt x="104" y="177" on="1"/>
        <pt x="119" y="175" on="0"/>
        <pt x="153" y="171" on="0"/>
        <pt x="173" y="171" on="1"/>
        <pt x="217" y="171" on="0"/>
        <pt x="288" y="203" on="0"/>
        <pt x="337" y="260" on="0"/>
        <pt x="364" y="337" on="0"/>
      </contour>
    </TTGlyph>
    <TTGlyph name="U" xMin="69" yMin="-7" xMax="460" yMax="733">
      <contour>
        <pt x="460" y="216" on="1"/>
        <pt x="460" y="105" on="0"/>
        <pt x="355" y="-7" on="0"/>
        <pt x="264" y="-7" on="1"/>
        <pt x="171" y="-7" on="0"/>
        <pt x="69" y="104" on="0"/>
        <pt x="69" y="216" on="1"/>
        <pt x="69" y="733" on="1"/>
        <pt x="101" y="733" on="1"/>
        <pt x="101" y="211" on="1"/>
        <pt x="101" y="120" on="0"/>
        <pt x="187" y="21" on="0"/>
        <pt x="265" y="21" on="1"/>
        <pt x="342" y="21" on="0"/>
        <pt x="429" y="121" on="0"/>
        <pt x="429" y="213" on="1"/>
        <pt x="429" y="733" on="1"/>
        <pt x="460" y="733" on="1"/>
      </contour>
    </TTGlyph>
    <TTGlyph name="Uacute" xMin="69" yMin="-7" xMax="460" yMax="897">
      <component glyphName="acute" x="111" y="296" flags="0x4"/>
      <component glyphName="U" x="0" y="0" flags="0x4"/>
    </TTGlyph>
    <TTGlyph name="Ubreve" xMin="69" yMin="-7" xMax="460" yMax="890">
      <component glyphName="U" x="0" y="0" flags="0x204"/>
      <component glyphName="breve" x="56" y="296" flags="0x4"/>
    </TTGlyph>
    <TTGlyph name="Ucircumflex" xMin="69" yMin="-7" xMax="460" yMax="891">
      <component glyphName="circumflex" x="54" y="296" flags="0x4"/>
      <component glyphName="U" x="0" y="0" flags="0x4"/>
    </TTGlyph>
    <TTGlyph name="Udieresis" xMin="69" yMin="-7" xMax="460" yMax="851">
      <component glyphName="dieresis" x="56" y="296" flags="0x4"/>
      <component glyphName="U" x="0" y="0" flags="0x4"/>
    </TTGlyph>
    <TTGlyph name="Ugrave" xMin="69" yMin="-7" xMax="460" yMax="897">
      <component glyphName="U" x="0" y="0" flags="0x204"/>
      <component glyphName="grave" x="0" y="296" flags="0x4"/>
    </TTGlyph>
    <TTGlyph name="Uhungarumlaut" xMin="69" yMin="-7" xMax="460" yMax="943">
      <component glyphName="U" x="0" y="0" flags="0x204"/>
      <component glyphName="hungarumlaut" x="92" y="296" flags="0x4"/>
    </TTGlyph>
    <TTGlyph name="Umacron" xMin="69" yMin="-7" xMax="460" yMax="833">
      <component glyphName="U" x="0" y="0" flags="0x204"/>
      <component glyphName="macron" x="56" y="296" flags="0x4"/>
    </TTGlyph>
    <TTGlyph name="Uogonek" xMin="69" yMin="-202" xMax="460" yMax="733">
      <contour>
        <pt x="460" y="216" on="1"/>
        <pt x="460" y="115" on="0"/>
        <pt x="372" y="4" on="0"/>
        <pt x="296" y="-5" on="1"/>
        <pt x="263" y="-39" on="0"/>
        <pt x="224" y="-103" on="0"/>
        <pt x="224" y="-132" on="1"/>
        <pt x="224" y="-152" on="0"/>
        <pt x="244" y="-175" on="0"/>
        <pt x="260" y="-175" on="1"/>
        <pt x="274" y="-175" on="0"/>
        <pt x="296" y="-161" on="0"/>
        <pt x="304" y="-150" on="1"/>
        <pt x="320" y="-168" on="1"/>
        <pt x="309" y="-183" on="0"/>
        <pt x="278" y="-202" on="0"/>
        <pt x="257" y="-202" on="1"/>
        <pt x="229" y="-202" on="0"/>
        <pt x="195" y="-166" on="0"/>
        <pt x="195" y="-134" on="1"/>
        <pt x="195" y="-79" on="0"/>
        <pt x="258" y="-7" on="1"/>
        <pt x="168" y="-5" on="0"/>
        <pt x="69" y="106" on="0"/>
        <pt x="69" y="216" on="1"/>
        <pt x="69" y="733" on="1"/>
        <pt x="101" y="733" on="1"/>
        <pt x="101" y="211" on="1"/>
        <pt x="101" y="120" on="0"/>
        <pt x="187" y="21" on="0"/>
        <pt x="265" y="21" on="1"/>
        <pt x="342" y="21" on="0"/>
        <pt x="429" y="121" on="0"/>
        <pt x="429" y="213" on="1"/>
        <pt x="429" y="733" on="1"/>
        <pt x="460" y="733" on="1"/>
      </contour>
    </TTGlyph>
    <TTGlyph name="Uring" xMin="69" yMin="-7" xMax="460" yMax="942">
      <component glyphName="ring" x="56" y="296" flags="0x4"/>
      <component glyphName="U" x="0" y="0" flags="0x4"/>
    </TTGlyph>
    <TTGlyph name="V" xMin="27" yMin="-10" xMax="483" yMax="733">
      <contour>
        <pt x="261" y="-10" on="1"/>
        <pt x="250" y="-10" on="1"/>
        <pt x="27" y="733" on="1"/>
        <pt x="60" y="733" on="1"/>
        <pt x="257" y="68" on="1"/>
        <pt x="450" y="733" on="1"/>
        <pt x="483" y="733" on="1"/>
      </contour>
    </TTGlyph>
    <TTGlyph name="W" xMin="38" yMin="-8" xMax="693" yMax="733">
      <contour>
        <pt x="551" y="-7" on="1"/>
        <pt x="537" y="-8" on="1"/>
        <pt x="366" y="642" on="1"/>
        <pt x="193" y="-8" on="1"/>
        <pt x="180" y="-7" on="1"/>
        <pt x="38" y="733" on="1"/>
        <pt x="69" y="733" on="1"/>
        <pt x="191" y="89" on="1"/>
        <pt x="360" y="733" on="1"/>
        <pt x="372" y="733" on="1"/>
        <pt x="541" y="89" on="1"/>
        <pt x="662" y="733" on="1"/>
        <pt x="693" y="733" on="1"/>
      </contour>
    </TTGlyph>
    <TTGlyph name="Wacute" xMin="38" yMin="-8" xMax="693" yMax="902">
      <component glyphName="acute" x="213" y="301" flags="0x4"/>
      <component glyphName="W" x="0" y="0" flags="0x4"/>
    </TTGlyph>
    <TTGlyph name="Wcircumflex" xMin="38" yMin="-8" xMax="693" yMax="896">
      <component glyphName="circumflex" x="156" y="301" flags="0x4"/>
      <component glyphName="W" x="0" y="0" flags="0x4"/>
    </TTGlyph>
    <TTGlyph name="Wdieresis" xMin="38" yMin="-8" xMax="693" yMax="856">
      <component glyphName="dieresis" x="157" y="301" flags="0x4"/>
      <component glyphName="W" x="0" y="0" flags="0x4"/>
    </TTGlyph>
    <TTGlyph name="Wgrave" xMin="38" yMin="-8" xMax="693" yMax="902">
      <component glyphName="W" x="0" y="0" flags="0x204"/>
      <component glyphName="grave" x="100" y="301" flags="0x4"/>
    </TTGlyph>
    <TTGlyph name="X" xMin="32" yMin="0" xMax="455" yMax="733">
      <contour>
        <pt x="420" y="0" on="1"/>
        <pt x="243" y="346" on="1"/>
        <pt x="66" y="0" on="1"/>
        <pt x="32" y="0" on="1"/>
        <pt x="226" y="375" on="1"/>
        <pt x="40" y="733" on="1"/>
        <pt x="75" y="733" on="1"/>
        <pt x="244" y="404" on="1"/>
        <pt x="412" y="733" on="1"/>
        <pt x="446" y="733" on="1"/>
        <pt x="261" y="375" on="1"/>
        <pt x="455" y="0" on="1"/>
      </contour>
    </TTGlyph>
    <TTGlyph name="Y" xMin="20" yMin="0" xMax="428" yMax="733">
      <contour>
        <pt x="240" y="320" on="1"/>
        <pt x="240" y="0" on="1"/>
        <pt x="208" y="0" on="1"/>
        <pt x="208" y="319" on="1"/>
        <pt x="20" y="733" on="1"/>
        <pt x="55" y="733" on="1"/>
        <pt x="225" y="354" on="1"/>
        <pt x="393" y="733" on="1"/>
        <pt x="428" y="733" on="1"/>
      </contour>
    </TTGlyph>
    <TTGlyph name="Yacute" xMin="20" yMin="0" xMax="428" yMax="897">
      <component glyphName="Y" x="0" y="0" flags="0x204"/>
      <component glyphName="acute" x="71" y="296" flags="0x4"/>
    </TTGlyph>
    <TTGlyph name="Ycircumflex" xMin="20" yMin="0" xMax="428" yMax="891">
      <component glyphName="Y" x="0" y="0" flags="0x204"/>
      <component glyphName="circumflex" x="14" y="296" flags="0x4"/>
    </TTGlyph>
    <TTGlyph name="Ydieresis" xMin="20" yMin="0" xMax="428" yMax="851">
      <component glyphName="Y" x="0" y="0" flags="0x204"/>
      <component glyphName="dieresis" x="15" y="296" flags="0x4"/>
    </TTGlyph>
    <TTGlyph name="Ygrave" xMin="20" yMin="0" xMax="428" yMax="897">
      <component glyphName="Y" x="0" y="0" flags="0x204"/>
      <component glyphName="grave" x="-40" y="296" flags="0x4"/>
    </TTGlyph>
    <TTGlyph name="Z" xMin="33" yMin="0" xMax="421" yMax="733">
      <contour>
        <pt x="78" y="29" on="1"/>
        <pt x="417" y="29" on="1"/>
        <pt x="417" y="0" on="1"/>
        <pt x="36" y="0" on="1"/>
        <pt x="33" y="6" on="1"/>
        <pt x="377" y="704" on="1"/>
        <pt x="53" y="704" on="1"/>
        <pt x="53" y="733" on="1"/>
        <pt x="419" y="733" on="1"/>
        <pt x="421" y="726" on="1"/>
      </contour>
    </TTGlyph>
    <TTGlyph name="Zacute" xMin="33" yMin="0" xMax="421" yMax="902">
      <component glyphName="acute" x="80" y="301" flags="0x4"/>
      <component glyphName="Z" x="0" y="0" flags="0x4"/>
    </TTGlyph>
    <TTGlyph name="Zcaron" xMin="33" yMin="0" xMax="421" yMax="896">
      <component glyphName="caron" x="23" y="301" flags="0x4"/>
      <component glyphName="Z" x="0" y="0" flags="0x4"/>
    </TTGlyph>
    <TTGlyph name="Zdotaccent" xMin="33" yMin="0" xMax="421" yMax="856">
      <component glyphName="Z" x="0" y="0" flags="0x204"/>
      <component glyphName="dotaccent" x="25" y="301" flags="0x4"/>
    </TTGlyph>
    <TTGlyph name="a" xMin="31" yMin="-9" xMax="287" yMax="439">
      <contour>
        <pt x="257" y="0" on="1"/>
        <pt x="257" y="46" on="1"/>
        <pt x="240" y="23" on="0"/>
        <pt x="188" y="-9" on="0"/>
        <pt x="156" y="-9" on="1"/>
        <pt x="102" y="-9" on="0"/>
        <pt x="31" y="62" on="0"/>
        <pt x="31" y="125" on="1"/>
        <pt x="31" y="158" on="0"/>
        <pt x="51" y="209" on="0"/>
        <pt x="86" y="244" on="0"/>
        <pt x="132" y="263" on="0"/>
        <pt x="159" y="263" on="1"/>
        <pt x="188" y="263" on="0"/>
        <pt x="236" y="243" on="0"/>
        <pt x="256" y="229" on="1"/>
        <pt x="256" y="308" on="1"/>
        <pt x="256" y="362" on="0"/>
        <pt x="207" y="411" on="0"/>
        <pt x="159" y="411" on="1"/>
        <pt x="139" y="411" on="0"/>
        <pt x="93" y="400" on="0"/>
        <pt x="72" y="390" on="1"/>
        <pt x="63" y="417" on="1"/>
        <pt x="84" y="427" on="0"/>
        <pt x="136" y="439" on="0"/>
        <pt x="162" y="439" on="1"/>
        <pt x="287" y="439" on="0"/>
        <pt x="287" y="313" on="1"/>
        <pt x="287" y="0" on="1"/>
      </contour>
      <contour>
        <pt x="256" y="203" on="1"/>
        <pt x="236" y="217" on="0"/>
        <pt x="188" y="236" on="0"/>
        <pt x="160" y="236" on="1"/>
        <pt x="118" y="236" on="0"/>
        <pt x="62" y="179" on="0"/>
        <pt x="62" y="128" on="1"/>
        <pt x="62" y="74" on="0"/>
        <pt x="115" y="18" on="0"/>
        <pt x="158" y="18" on="1"/>
        <pt x="189" y="18" on="0"/>
        <pt x="238" y="51" on="0"/>
        <pt x="256" y="78" on="1"/>
      </contour>
    </TTGlyph>
    <TTGlyph name="aacute" xMin="31" yMin="-9" xMax="300" yMax="601">
      <component glyphName="a" x="0" y="0" flags="0x204"/>
      <component glyphName="acute" x="17" y="0" flags="0x4"/>
    </TTGlyph>
    <TTGlyph name="abreve" xMin="31" yMin="-9" xMax="287" yMax="594">
      <component glyphName="a" x="0" y="0" flags="0x204"/>
      <component glyphName="breve" x="-36" y="0" flags="0x4"/>
    </TTGlyph>
    <TTGlyph name="acircumflex" xMin="31" yMin="-9" xMax="287" yMax="595">
      <component glyphName="a" x="0" y="0" flags="0x204"/>
      <component glyphName="circumflex" x="-38" y="0" flags="0x4"/>
    </TTGlyph>
    <TTGlyph name="acute" xMin="124" yMin="478" xMax="283" yMax="601">
      <contour>
        <pt x="137" y="478" on="1"/>
        <pt x="124" y="496" on="1"/>
        <pt x="264" y="601" on="1"/>
        <pt x="283" y="573" on="1"/>
      </contour>
    </TTGlyph>
    <TTGlyph name="adieresis" xMin="31" yMin="-9" xMax="287" yMax="555">
      <component glyphName="a" x="0" y="0" flags="0x204"/>
      <component glyphName="dieresis" x="-36" y="0" flags="0x4"/>
    </TTGlyph>
    <TTGlyph name="ae" xMin="32" yMin="-9" xMax="541" yMax="439">
      <contour>
        <pt x="257" y="308" on="1"/>
        <pt x="257" y="362" on="0"/>
        <pt x="208" y="411" on="0"/>
        <pt x="160" y="411" on="1"/>
        <pt x="140" y="411" on="0"/>
        <pt x="95" y="400" on="0"/>
        <pt x="73" y="390" on="1"/>
        <pt x="65" y="417" on="1"/>
        <pt x="86" y="427" on="0"/>
        <pt x="137" y="439" on="0"/>
        <pt x="163" y="439" on="1"/>
        <pt x="217" y="439" on="0"/>
        <pt x="274" y="394" on="0"/>
        <pt x="283" y="346" on="1"/>
        <pt x="300" y="391" on="0"/>
        <pt x="363" y="439" on="0"/>
        <pt x="405" y="439" on="1"/>
        <pt x="438" y="439" on="0"/>
        <pt x="489" y="409" on="0"/>
        <pt x="523" y="355" on="0"/>
        <pt x="541" y="280" on="0"/>
        <pt x="541" y="235" on="1"/>
        <pt x="541" y="228" on="0"/>
        <pt x="541" y="214" on="0"/>
        <pt x="540" y="209" on="1"/>
        <pt x="288" y="209" on="1"/>
        <pt x="289" y="122" on="0"/>
        <pt x="357" y="20" on="0"/>
        <pt x="423" y="20" on="1"/>
        <pt x="448" y="20" on="0"/>
        <pt x="494" y="34" on="0"/>
        <pt x="514" y="47" on="1"/>
        <pt x="520" y="35" on="1"/>
        <pt x="522" y="30" on="0"/>
        <pt x="526" y="22" on="0"/>
        <pt x="526" y="23" on="1"/>
        <pt x="506" y="10" on="0"/>
        <pt x="451" y="-8" on="0"/>
        <pt x="422" y="-8" on="1"/>
        <pt x="364" y="-8" on="0"/>
        <pt x="291" y="54" on="0"/>
        <pt x="275" y="110" on="1"/>
        <pt x="263" y="53" on="0"/>
        <pt x="199" y="-9" on="0"/>
        <pt x="151" y="-9" on="1"/>
        <pt x="100" y="-9" on="0"/>
        <pt x="32" y="62" on="0"/>
        <pt x="32" y="125" on="1"/>
        <pt x="32" y="157" on="0"/>
        <pt x="52" y="208" on="0"/>
        <pt x="87" y="244" on="0"/>
        <pt x="134" y="263" on="0"/>
        <pt x="161" y="263" on="1"/>
        <pt x="190" y="263" on="0"/>
        <pt x="239" y="239" on="0"/>
        <pt x="257" y="225" on="1"/>
      </contour>
      <contour>
        <pt x="510" y="236" on="1"/>
        <pt x="509" y="273" on="0"/>
        <pt x="495" y="337" on="0"/>
        <pt x="469" y="384" on="0"/>
        <pt x="429" y="411" on="0"/>
        <pt x="403" y="411" on="1"/>
        <pt x="354" y="411" on="0"/>
        <pt x="293" y="315" on="0"/>
        <pt x="288" y="236" on="1"/>
      </contour>
      <contour>
        <pt x="258" y="197" on="1"/>
        <pt x="238" y="213" on="0"/>
        <pt x="190" y="236" on="0"/>
        <pt x="162" y="236" on="1"/>
        <pt x="119" y="236" on="0"/>
        <pt x="63" y="179" on="0"/>
        <pt x="63" y="128" on="1"/>
        <pt x="63" y="75" on="0"/>
        <pt x="113" y="18" on="0"/>
        <pt x="153" y="18" on="1"/>
        <pt x="201" y="18" on="0"/>
        <pt x="256" y="117" on="0"/>
      </contour>
    </TTGlyph>
    <TTGlyph name="aeacute" xMin="32" yMin="-9" xMax="541" yMax="601">
      <component glyphName="acute" x="141" y="0" flags="0x4"/>
      <component glyphName="ae" x="0" y="0" flags="0x4"/>
    </TTGlyph>
    <TTGlyph name="agrave" xMin="31" yMin="-9" xMax="287" yMax="601">
      <component glyphName="a" x="0" y="0" flags="0x204"/>
      <component glyphName="grave" x="-93" y="0" flags="0x4"/>
    </TTGlyph>
    <TTGlyph name="amacron" xMin="31" yMin="-9" xMax="287" yMax="537">
      <component glyphName="a" x="0" y="0" flags="0x204"/>
      <component glyphName="macron" x="-36" y="0" flags="0x4"/>
    </TTGlyph>
    <TTGlyph name="ampersand" xMin="39" yMin="-13" xMax="454" yMax="671">
      <contour>
        <pt x="454" y="301" on="1"/>
        <pt x="434" y="252" on="0"/>
        <pt x="384" y="154" on="0"/>
        <pt x="357" y="116" on="1"/>
        <pt x="382" y="85" on="0"/>
        <pt x="428" y="29" on="0"/>
        <pt x="448" y="6" on="1"/>
        <pt x="424" y="-13" on="1"/>
        <pt x="406" y="7" on="0"/>
        <pt x="361" y="60" on="0"/>
        <pt x="338" y="89" on="1"/>
        <pt x="306" y="45" on="0"/>
        <pt x="228" y="-8" on="0"/>
        <pt x="183" y="-8" on="1"/>
        <pt x="151" y="-8" on="0"/>
        <pt x="98" y="16" on="0"/>
        <pt x="60" y="58" on="0"/>
        <pt x="39" y="118" on="0"/>
        <pt x="39" y="154" on="1"/>
        <pt x="39" y="223" on="0"/>
        <pt x="108" y="322" on="0"/>
        <pt x="163" y="359" on="1"/>
        <pt x="142" y="404" on="0"/>
        <pt x="115" y="490" on="0"/>
        <pt x="115" y="528" on="1"/>
        <pt x="115" y="558" on="0"/>
        <pt x="132" y="610" on="0"/>
        <pt x="163" y="649" on="0"/>
        <pt x="206" y="671" on="0"/>
        <pt x="231" y="671" on="1"/>
        <pt x="255" y="671" on="0"/>
        <pt x="293" y="652" on="0"/>
        <pt x="320" y="620" on="0"/>
        <pt x="335" y="576" on="0"/>
        <pt x="335" y="551" on="1"/>
        <pt x="335" y="517" on="0"/>
        <pt x="315" y="460" on="0"/>
        <pt x="279" y="411" on="0"/>
        <pt x="230" y="369" on="0"/>
        <pt x="202" y="350" on="1"/>
        <pt x="228" y="301" on="0"/>
        <pt x="300" y="193" on="0"/>
        <pt x="339" y="141" on="1"/>
        <pt x="365" y="179" on="0"/>
        <pt x="408" y="266" on="0"/>
        <pt x="428" y="315" on="1"/>
      </contour>
      <contour>
        <pt x="303" y="549" on="1"/>
        <pt x="303" y="590" on="0"/>
        <pt x="265" y="644" on="0"/>
        <pt x="230" y="644" on="1"/>
        <pt x="212" y="644" on="0"/>
        <pt x="182" y="625" on="0"/>
        <pt x="159" y="594" on="0"/>
        <pt x="146" y="552" on="0"/>
        <pt x="146" y="529" on="1"/>
        <pt x="146" y="495" on="0"/>
        <pt x="170" y="417" on="0"/>
        <pt x="189" y="375" on="1"/>
        <pt x="246" y="412" on="0"/>
        <pt x="303" y="494" on="0"/>
      </contour>
      <contour>
        <pt x="321" y="112" on="1"/>
        <pt x="280" y="166" on="0"/>
        <pt x="202" y="281" on="0"/>
        <pt x="175" y="334" on="1"/>
        <pt x="126" y="301" on="0"/>
        <pt x="69" y="213" on="0"/>
        <pt x="69" y="155" on="1"/>
        <pt x="69" y="126" on="0"/>
        <pt x="85" y="77" on="0"/>
        <pt x="115" y="41" on="0"/>
        <pt x="157" y="20" on="0"/>
        <pt x="183" y="20" on="1"/>
        <pt x="222" y="20" on="0"/>
        <pt x="289" y="70" on="0"/>
      </contour>
    </TTGlyph>
    <TTGlyph name="ampersand.cap" xMin="44" yMin="-15" xMax="517" yMax="740">
      <contour>
        <pt x="209" y="411" on="1"/>
        <pt x="280" y="453" on="0"/>
        <pt x="346" y="543" on="0"/>
        <pt x="346" y="605" on="1"/>
        <pt x="346" y="650" on="0"/>
        <pt x="303" y="712" on="0"/>
        <pt x="261" y="712" on="1"/>
        <pt x="240" y="712" on="0"/>
        <pt x="205" y="691" on="0"/>
        <pt x="179" y="655" on="0"/>
        <pt x="164" y="608" on="0"/>
        <pt x="164" y="582" on="1"/>
        <pt x="164" y="544" on="0"/>
        <pt x="188" y="457" on="0"/>
      </contour>
      <contour>
        <pt x="364" y="121" on="1"/>
        <pt x="319" y="178" on="0"/>
        <pt x="229" y="304" on="0"/>
        <pt x="195" y="369" on="1"/>
        <pt x="139" y="332" on="0"/>
        <pt x="76" y="235" on="0"/>
        <pt x="76" y="171" on="1"/>
        <pt x="76" y="139" on="0"/>
        <pt x="95" y="84" on="0"/>
        <pt x="129" y="44" on="0"/>
        <pt x="178" y="20" on="0"/>
        <pt x="208" y="20" on="1"/>
        <pt x="252" y="20" on="0"/>
        <pt x="329" y="76" on="0"/>
      </contour>
      <contour>
        <pt x="222" y="385" on="1"/>
        <pt x="253" y="325" on="0"/>
        <pt x="338" y="206" on="0"/>
        <pt x="383" y="150" on="1"/>
        <pt x="415" y="195" on="0"/>
        <pt x="467" y="293" on="0"/>
        <pt x="490" y="347" on="1"/>
        <pt x="517" y="333" on="1"/>
        <pt x="494" y="279" on="0"/>
        <pt x="435" y="170" on="0"/>
        <pt x="403" y="126" on="1"/>
        <pt x="432" y="91" on="0"/>
        <pt x="486" y="31" on="0"/>
        <pt x="509" y="5" on="1"/>
        <pt x="484" y="-15" on="1"/>
        <pt x="464" y="8" on="0"/>
        <pt x="412" y="65" on="0"/>
        <pt x="383" y="98" on="1"/>
        <pt x="346" y="50" on="0"/>
        <pt x="258" y="-9" on="0"/>
        <pt x="207" y="-9" on="1"/>
        <pt x="171" y="-9" on="0"/>
        <pt x="111" y="18" on="0"/>
        <pt x="68" y="65" on="0"/>
        <pt x="44" y="131" on="0"/>
        <pt x="44" y="170" on="1"/>
        <pt x="44" y="247" on="0"/>
        <pt x="121" y="355" on="0"/>
        <pt x="182" y="395" on="1"/>
        <pt x="159" y="444" on="0"/>
        <pt x="133" y="538" on="0"/>
        <pt x="133" y="581" on="1"/>
        <pt x="133" y="614" on="0"/>
        <pt x="152" y="672" on="0"/>
        <pt x="187" y="715" on="0"/>
        <pt x="234" y="740" on="0"/>
        <pt x="263" y="740" on="1"/>
        <pt x="290" y="740" on="0"/>
        <pt x="333" y="719" on="0"/>
        <pt x="363" y="683" on="0"/>
        <pt x="379" y="634" on="0"/>
        <pt x="379" y="607" on="1"/>
        <pt x="379" y="569" on="0"/>
        <pt x="355" y="506" on="0"/>
        <pt x="313" y="452" on="0"/>
        <pt x="256" y="406" on="0"/>
      </contour>
    </TTGlyph>
    <TTGlyph name="aogonek" xMin="31" yMin="-202" xMax="306" yMax="439">
      <contour>
        <pt x="306" y="-168" on="1"/>
        <pt x="295" y="-183" on="0"/>
        <pt x="264" y="-202" on="0"/>
        <pt x="243" y="-202" on="1"/>
        <pt x="215" y="-202" on="0"/>
        <pt x="181" y="-166" on="0"/>
        <pt x="181" y="-134" on="1"/>
        <pt x="181" y="-74" on="0"/>
        <pt x="257" y="6" on="1"/>
        <pt x="257" y="46" on="1"/>
        <pt x="240" y="23" on="0"/>
        <pt x="188" y="-9" on="0"/>
        <pt x="156" y="-9" on="1"/>
        <pt x="102" y="-9" on="0"/>
        <pt x="31" y="62" on="0"/>
        <pt x="31" y="125" on="1"/>
        <pt x="31" y="158" on="0"/>
        <pt x="51" y="209" on="0"/>
        <pt x="86" y="244" on="0"/>
        <pt x="132" y="263" on="0"/>
        <pt x="159" y="263" on="1"/>
        <pt x="188" y="263" on="0"/>
        <pt x="236" y="243" on="0"/>
        <pt x="256" y="229" on="1"/>
        <pt x="256" y="308" on="1"/>
        <pt x="256" y="362" on="0"/>
        <pt x="207" y="411" on="0"/>
        <pt x="159" y="411" on="1"/>
        <pt x="139" y="411" on="0"/>
        <pt x="93" y="400" on="0"/>
        <pt x="72" y="390" on="1"/>
        <pt x="63" y="417" on="1"/>
        <pt x="84" y="427" on="0"/>
        <pt x="136" y="439" on="0"/>
        <pt x="162" y="439" on="1"/>
        <pt x="287" y="439" on="0"/>
        <pt x="287" y="313" on="1"/>
        <pt x="287" y="0" on="1"/>
        <pt x="252" y="-35" on="0"/>
        <pt x="210" y="-102" on="0"/>
        <pt x="210" y="-132" on="1"/>
        <pt x="210" y="-152" on="0"/>
        <pt x="230" y="-175" on="0"/>
        <pt x="246" y="-175" on="1"/>
        <pt x="260" y="-175" on="0"/>
        <pt x="282" y="-161" on="0"/>
        <pt x="290" y="-150" on="1"/>
      </contour>
      <contour>
        <pt x="256" y="203" on="1"/>
        <pt x="236" y="217" on="0"/>
        <pt x="188" y="236" on="0"/>
        <pt x="160" y="236" on="1"/>
        <pt x="118" y="236" on="0"/>
        <pt x="62" y="179" on="0"/>
        <pt x="62" y="128" on="1"/>
        <pt x="62" y="74" on="0"/>
        <pt x="115" y="18" on="0"/>
        <pt x="158" y="18" on="1"/>
        <pt x="189" y="18" on="0"/>
        <pt x="238" y="51" on="0"/>
        <pt x="256" y="78" on="1"/>
      </contour>
    </TTGlyph>
    <TTGlyph name="aring" xMin="31" yMin="-9" xMax="287" yMax="646">
      <component glyphName="a" x="0" y="0" flags="0x204"/>
      <component glyphName="ring" x="-36" y="0" flags="0x4"/>
    </TTGlyph>
    <TTGlyph name="aringacute" xMin="31" yMin="-9" xMax="299" yMax="807">
      <component glyphName="a" x="0" y="0" flags="0x204"/>
      <component glyphName="acute" x="16" y="206" flags="0x4"/>
      <component glyphName="ring" x="-39" y="0" flags="0x4"/>
    </TTGlyph>
    <TTGlyph name="arrowleft" xMin="20" yMin="46" xMax="509" yMax="468">
      <contour>
        <pt x="71" y="243" on="1"/>
        <pt x="245" y="66" on="1"/>
        <pt x="225" y="46" on="1"/>
        <pt x="20" y="254" on="1"/>
        <pt x="20" y="260" on="1"/>
        <pt x="225" y="468" on="1"/>
        <pt x="245" y="448" on="1"/>
        <pt x="71" y="271" on="1"/>
        <pt x="509" y="271" on="1"/>
        <pt x="509" y="243" on="1"/>
      </contour>
    </TTGlyph>
    <TTGlyph name="arrowleft.cap" xMin="20" yMin="160" xMax="509" yMax="582">
      <component glyphName="arrowleft" x="0" y="114" flags="0x204"/>
    </TTGlyph>
    <TTGlyph name="arrowright" xMin="36" yMin="46" xMax="525" yMax="468">
      <contour>
        <pt x="475" y="271" on="1"/>
        <pt x="300" y="448" on="1"/>
        <pt x="321" y="468" on="1"/>
        <pt x="525" y="260" on="1"/>
        <pt x="525" y="254" on="1"/>
        <pt x="321" y="46" on="1"/>
        <pt x="300" y="66" on="1"/>
        <pt x="475" y="243" on="1"/>
        <pt x="36" y="243" on="1"/>
        <pt x="36" y="271" on="1"/>
      </contour>
    </TTGlyph>
    <TTGlyph name="arrowright.cap" xMin="36" yMin="160" xMax="525" yMax="582">
      <component glyphName="arrowright" x="0" y="114" flags="0x204"/>
    </TTGlyph>
    <TTGlyph name="asciicircum" xMin="106" yMin="541" xMax="312" yMax="650">
      <contour>
        <pt x="278" y="541" on="1"/>
        <pt x="208" y="619" on="1"/>
        <pt x="141" y="541" on="1"/>
        <pt x="106" y="541" on="1"/>
        <pt x="201" y="650" on="1"/>
        <pt x="216" y="650" on="1"/>
        <pt x="312" y="541" on="1"/>
      </contour>
    </TTGlyph>
    <TTGlyph name="asciitilde" xMin="90" yMin="253" xMax="326" yMax="320">
      <contour>
        <pt x="326" y="294" on="1"/>
        <pt x="291" y="253" on="0"/>
        <pt x="253" y="253" on="1"/>
        <pt x="240" y="254" on="0"/>
        <pt x="215" y="265" on="0"/>
        <pt x="203" y="272" on="1"/>
        <pt x="191" y="280" on="0"/>
        <pt x="170" y="290" on="0"/>
        <pt x="160" y="291" on="1"/>
        <pt x="136" y="291" on="0"/>
        <pt x="107" y="258" on="1"/>
        <pt x="90" y="279" on="1"/>
        <pt x="125" y="320" on="0"/>
        <pt x="162" y="320" on="1"/>
        <pt x="176" y="319" on="0"/>
        <pt x="201" y="308" on="0"/>
        <pt x="212" y="301" on="1"/>
        <pt x="224" y="293" on="0"/>
        <pt x="246" y="282" on="0"/>
        <pt x="255" y="282" on="1"/>
        <pt x="280" y="282" on="0"/>
        <pt x="309" y="315" on="1"/>
      </contour>
    </TTGlyph>
    <TTGlyph name="asterisk" xMin="17" yMin="512" xMax="253" yMax="736">
      <contour>
        <pt x="153" y="610" on="1"/>
        <pt x="216" y="527" on="1"/>
        <pt x="196" y="512" on="1"/>
        <pt x="135" y="596" on="1"/>
        <pt x="74" y="512" on="1"/>
        <pt x="54" y="527" on="1"/>
        <pt x="117" y="610" on="1"/>
        <pt x="17" y="641" on="1"/>
        <pt x="25" y="665" on="1"/>
        <pt x="124" y="632" on="1"/>
        <pt x="122" y="736" on="1"/>
        <pt x="148" y="736" on="1"/>
        <pt x="146" y="632" on="1"/>
        <pt x="245" y="665" on="1"/>
        <pt x="253" y="641" on="1"/>
      </contour>
    </TTGlyph>
    <TTGlyph name="at" xMin="43" yMin="-10" xMax="523" yMax="605">
      <contour>
        <pt x="523" y="321" on="1"/>
        <pt x="523" y="270" on="0"/>
        <pt x="504" y="198" on="0"/>
        <pt x="487" y="175" on="1"/>
        <pt x="462" y="143" on="0"/>
        <pt x="424" y="143" on="1"/>
        <pt x="399" y="143" on="0"/>
        <pt x="361" y="172" on="0"/>
        <pt x="353" y="197" on="1"/>
        <pt x="320" y="147" on="0"/>
        <pt x="274" y="147" on="1"/>
        <pt x="240" y="147" on="0"/>
        <pt x="193" y="193" on="0"/>
        <pt x="193" y="235" on="1"/>
        <pt x="193" y="274" on="0"/>
        <pt x="240" y="325" on="0"/>
        <pt x="278" y="325" on="1"/>
        <pt x="298" y="325" on="0"/>
        <pt x="332" y="310" on="0"/>
        <pt x="345" y="299" on="1"/>
        <pt x="345" y="333" on="1"/>
        <pt x="345" y="373" on="0"/>
        <pt x="311" y="404" on="0"/>
        <pt x="282" y="404" on="1"/>
        <pt x="254" y="404" on="0"/>
        <pt x="221" y="390" on="1"/>
        <pt x="213" y="415" on="1"/>
        <pt x="226" y="421" on="0"/>
        <pt x="263" y="432" on="0"/>
        <pt x="283" y="432" on="1"/>
        <pt x="327" y="432" on="0"/>
        <pt x="374" y="386" on="0"/>
        <pt x="374" y="335" on="1"/>
        <pt x="374" y="242" on="1"/>
        <pt x="374" y="201" on="0"/>
        <pt x="405" y="168" on="0"/>
        <pt x="425" y="168" on="1"/>
        <pt x="449" y="168" on="0"/>
        <pt x="466" y="189" on="1"/>
        <pt x="480" y="207" on="0"/>
        <pt x="494" y="270" on="0"/>
        <pt x="494" y="320" on="1"/>
        <pt x="494" y="371" on="0"/>
        <pt x="468" y="465" on="0"/>
        <pt x="416" y="537" on="0"/>
        <pt x="339" y="579" on="0"/>
        <pt x="289" y="579" on="1"/>
        <pt x="242" y="579" on="0"/>
        <pt x="162" y="534" on="0"/>
        <pt x="104" y="454" on="0"/>
        <pt x="71" y="347" on="0"/>
        <pt x="71" y="286" on="1"/>
        <pt x="71" y="227" on="0"/>
        <pt x="101" y="128" on="0"/>
        <pt x="160" y="56" on="0"/>
        <pt x="246" y="16" on="0"/>
        <pt x="302" y="16" on="1"/>
        <pt x="328" y="16" on="0"/>
        <pt x="383" y="30" on="0"/>
        <pt x="409" y="41" on="1"/>
        <pt x="418" y="17" on="1"/>
        <pt x="389" y="5" on="0"/>
        <pt x="330" y="-10" on="0"/>
        <pt x="302" y="-10" on="1"/>
        <pt x="240" y="-10" on="0"/>
        <pt x="144" y="34" on="0"/>
        <pt x="78" y="113" on="0"/>
        <pt x="43" y="222" on="0"/>
        <pt x="43" y="286" on="1"/>
        <pt x="43" y="353" on="0"/>
        <pt x="81" y="470" on="0"/>
        <pt x="147" y="556" on="0"/>
        <pt x="237" y="605" on="0"/>
        <pt x="290" y="605" on="1"/>
        <pt x="346" y="605" on="0"/>
        <pt x="433" y="560" on="0"/>
        <pt x="492" y="482" on="0"/>
        <pt x="523" y="379" on="0"/>
      </contour>
      <contour>
        <pt x="345" y="272" on="1"/>
        <pt x="334" y="282" on="0"/>
        <pt x="298" y="299" on="0"/>
        <pt x="279" y="299" on="1"/>
        <pt x="254" y="299" on="0"/>
        <pt x="223" y="264" on="0"/>
        <pt x="223" y="235" on="1"/>
        <pt x="223" y="206" on="0"/>
        <pt x="252" y="173" on="0"/>
        <pt x="275" y="173" on="1"/>
        <pt x="297" y="173" on="0"/>
        <pt x="331" y="200" on="0"/>
        <pt x="345" y="220" on="1"/>
      </contour>
    </TTGlyph>
    <TTGlyph name="at.cap" xMin="49" yMin="-8" xMax="594" yMax="741">
      <contour>
        <pt x="594" y="400" on="1"/>
        <pt x="594" y="274" on="0"/>
        <pt x="552" y="223" on="1"/>
        <pt x="525" y="188" on="0"/>
        <pt x="480" y="188" on="1"/>
        <pt x="454" y="188" on="0"/>
        <pt x="410" y="221" on="0"/>
        <pt x="403" y="249" on="1"/>
        <pt x="365" y="192" on="0"/>
        <pt x="312" y="192" on="1"/>
        <pt x="274" y="192" on="0"/>
        <pt x="221" y="245" on="0"/>
        <pt x="221" y="295" on="1"/>
        <pt x="221" y="343" on="0"/>
        <pt x="275" y="399" on="0"/>
        <pt x="317" y="399" on="1"/>
        <pt x="337" y="399" on="0"/>
        <pt x="377" y="382" on="0"/>
        <pt x="394" y="369" on="1"/>
        <pt x="394" y="423" on="1"/>
        <pt x="394" y="466" on="0"/>
        <pt x="358" y="505" on="0"/>
        <pt x="320" y="505" on="1"/>
        <pt x="288" y="505" on="0"/>
        <pt x="253" y="489" on="1"/>
        <pt x="245" y="515" on="1"/>
        <pt x="259" y="521" on="0"/>
        <pt x="300" y="533" on="0"/>
        <pt x="323" y="533" on="1"/>
        <pt x="372" y="533" on="0"/>
        <pt x="424" y="481" on="0"/>
        <pt x="424" y="425" on="1"/>
        <pt x="424" y="293" on="1"/>
        <pt x="424" y="249" on="0"/>
        <pt x="460" y="214" on="0"/>
        <pt x="482" y="214" on="1"/>
        <pt x="513" y="214" on="0"/>
        <pt x="531" y="239" on="1"/>
        <pt x="545" y="258" on="0"/>
        <pt x="564" y="335" on="0"/>
        <pt x="564" y="398" on="1"/>
        <pt x="564" y="452" on="0"/>
        <pt x="538" y="565" on="0"/>
        <pt x="482" y="656" on="0"/>
        <pt x="394" y="715" on="0"/>
        <pt x="332" y="715" on="1"/>
        <pt x="276" y="715" on="0"/>
        <pt x="183" y="660" on="0"/>
        <pt x="116" y="564" on="0"/>
        <pt x="79" y="437" on="0"/>
        <pt x="79" y="365" on="1"/>
        <pt x="79" y="293" on="0"/>
        <pt x="112" y="167" on="0"/>
        <pt x="178" y="73" on="0"/>
        <pt x="278" y="19" on="0"/>
        <pt x="345" y="19" on="1"/>
        <pt x="373" y="19" on="0"/>
        <pt x="435" y="33" on="0"/>
        <pt x="464" y="45" on="1"/>
        <pt x="472" y="21" on="1"/>
        <pt x="441" y="7" on="0"/>
        <pt x="375" y="-8" on="0"/>
        <pt x="347" y="-8" on="1"/>
        <pt x="272" y="-8" on="0"/>
        <pt x="160" y="50" on="0"/>
        <pt x="86" y="151" on="0"/>
        <pt x="49" y="287" on="0"/>
        <pt x="49" y="365" on="1"/>
        <pt x="49" y="443" on="0"/>
        <pt x="91" y="580" on="0"/>
        <pt x="166" y="682" on="0"/>
        <pt x="270" y="741" on="0"/>
        <pt x="332" y="741" on="1"/>
        <pt x="401" y="741" on="0"/>
        <pt x="500" y="680" on="0"/>
        <pt x="564" y="583" on="0"/>
        <pt x="594" y="461" on="0"/>
      </contour>
      <contour>
        <pt x="394" y="341" on="1"/>
        <pt x="380" y="353" on="0"/>
        <pt x="338" y="372" on="0"/>
        <pt x="317" y="372" on="1"/>
        <pt x="290" y="372" on="0"/>
        <pt x="252" y="332" on="0"/>
        <pt x="252" y="297" on="1"/>
        <pt x="252" y="260" on="0"/>
        <pt x="287" y="218" on="0"/>
        <pt x="313" y="218" on="1"/>
        <pt x="337" y="218" on="0"/>
        <pt x="379" y="249" on="0"/>
        <pt x="394" y="275" on="1"/>
      </contour>
    </TTGlyph>
    <TTGlyph name="atilde" xMin="31" yMin="-9" xMax="291" yMax="562">
      <component glyphName="a" x="0" y="0" flags="0x204"/>
      <component glyphName="tilde" x="-35" y="0" flags="0x4"/>
    </TTGlyph>
    <TTGlyph name="b" xMin="56" yMin="-7" xMax="355" yMax="733">
      <contour>
        <pt x="355" y="218" on="1"/>
        <pt x="355" y="166" on="0"/>
        <pt x="330" y="83" on="0"/>
        <pt x="286" y="24" on="0"/>
        <pt x="229" y="-7" on="0"/>
        <pt x="196" y="-7" on="1"/>
        <pt x="162" y="-7" on="0"/>
        <pt x="107" y="27" on="0"/>
        <pt x="87" y="50" on="1"/>
        <pt x="87" y="0" on="1"/>
        <pt x="56" y="0" on="1"/>
        <pt x="56" y="733" on="1"/>
        <pt x="87" y="733" on="1"/>
        <pt x="87" y="381" on="1"/>
        <pt x="107" y="404" on="0"/>
        <pt x="164" y="437" on="0"/>
        <pt x="200" y="437" on="1"/>
        <pt x="232" y="437" on="0"/>
        <pt x="288" y="408" on="0"/>
        <pt x="330" y="352" on="0"/>
        <pt x="355" y="270" on="0"/>
      </contour>
      <contour>
        <pt x="323" y="218" on="1"/>
        <pt x="323" y="265" on="0"/>
        <pt x="303" y="337" on="0"/>
        <pt x="269" y="385" on="0"/>
        <pt x="223" y="409" on="0"/>
        <pt x="198" y="409" on="1"/>
        <pt x="164" y="409" on="0"/>
        <pt x="107" y="371" on="0"/>
        <pt x="87" y="346" on="1"/>
        <pt x="87" y="84" on="1"/>
        <pt x="107" y="59" on="0"/>
        <pt x="163" y="21" on="0"/>
        <pt x="196" y="21" on="1"/>
        <pt x="223" y="21" on="0"/>
        <pt x="269" y="48" on="0"/>
        <pt x="303" y="99" on="0"/>
        <pt x="323" y="172" on="0"/>
      </contour>
    </TTGlyph>
    <TTGlyph name="backslash" xMin="3" yMin="-216" xMax="217" yMax="733">
      <contour>
        <pt x="188" y="-216" on="1"/>
        <pt x="3" y="733" on="1"/>
        <pt x="32" y="733" on="1"/>
        <pt x="217" y="-216" on="1"/>
      </contour>
    </TTGlyph>
    <TTGlyph name="backslash.cap" xMin="10" yMin="-112" xMax="224" yMax="837">
      <component glyphName="backslash" x="7" y="104" flags="0x204"/>
    </TTGlyph>
    <TTGlyph name="bar" xMin="76" yMin="-216" xMax="104" yMax="733">
      <contour>
        <pt x="76" y="-216" on="1"/>
        <pt x="76" y="733" on="1"/>
        <pt x="104" y="733" on="1"/>
        <pt x="104" y="-216" on="1"/>
      </contour>
    </TTGlyph>
    <TTGlyph name="bar.cap" xMin="76" yMin="-112" xMax="104" yMax="837">
      <component glyphName="bar" x="0" y="104" flags="0x204"/>
    </TTGlyph>
    <TTGlyph name="braceleft" xMin="17" yMin="-223" xMax="229" yMax="740">
      <contour>
        <pt x="229" y="-223" on="1"/>
        <pt x="170" y="-223" on="0"/>
        <pt x="99" y="-161" on="0"/>
        <pt x="99" y="-92" on="1"/>
        <pt x="99" y="171" on="1"/>
        <pt x="99" y="244" on="0"/>
        <pt x="35" y="244" on="1"/>
        <pt x="17" y="244" on="1"/>
        <pt x="17" y="274" on="1"/>
        <pt x="35" y="274" on="1"/>
        <pt x="99" y="274" on="0"/>
        <pt x="99" y="347" on="1"/>
        <pt x="99" y="609" on="1"/>
        <pt x="99" y="678" on="0"/>
        <pt x="170" y="740" on="0"/>
        <pt x="229" y="740" on="1"/>
        <pt x="229" y="712" on="1"/>
        <pt x="183" y="712" on="0"/>
        <pt x="131" y="663" on="0"/>
        <pt x="131" y="608" on="1"/>
        <pt x="131" y="352" on="1"/>
        <pt x="131" y="273" on="0"/>
        <pt x="75" y="259" on="1"/>
        <pt x="131" y="245" on="0"/>
        <pt x="131" y="165" on="1"/>
        <pt x="131" y="-91" on="1"/>
        <pt x="131" y="-146" on="0"/>
        <pt x="183" y="-195" on="0"/>
        <pt x="229" y="-195" on="1"/>
      </contour>
    </TTGlyph>
    <TTGlyph name="braceleft.cap" xMin="17" yMin="-119" xMax="229" yMax="844">
      <component glyphName="braceleft" x="0" y="104" flags="0x204"/>
    </TTGlyph>
    <TTGlyph name="braceright" xMin="11" yMin="-223" xMax="222" yMax="740">
      <contour>
        <pt x="205" y="244" on="1"/>
        <pt x="141" y="244" on="0"/>
        <pt x="141" y="171" on="1"/>
        <pt x="141" y="-92" on="1"/>
        <pt x="141" y="-161" on="0"/>
        <pt x="70" y="-223" on="0"/>
        <pt x="11" y="-223" on="1"/>
        <pt x="11" y="-195" on="1"/>
        <pt x="57" y="-195" on="0"/>
        <pt x="108" y="-146" on="0"/>
        <pt x="108" y="-91" on="1"/>
        <pt x="108" y="165" on="1"/>
        <pt x="108" y="245" on="0"/>
        <pt x="164" y="259" on="1"/>
        <pt x="108" y="273" on="0"/>
        <pt x="108" y="352" on="1"/>
        <pt x="108" y="608" on="1"/>
        <pt x="108" y="663" on="0"/>
        <pt x="57" y="712" on="0"/>
        <pt x="11" y="712" on="1"/>
        <pt x="11" y="740" on="1"/>
        <pt x="69" y="740" on="0"/>
        <pt x="141" y="678" on="0"/>
        <pt x="141" y="609" on="1"/>
        <pt x="141" y="347" on="1"/>
        <pt x="141" y="274" on="0"/>
        <pt x="205" y="274" on="1"/>
        <pt x="222" y="274" on="1"/>
        <pt x="222" y="244" on="1"/>
      </contour>
    </TTGlyph>
    <TTGlyph name="braceright.cap" xMin="11" yMin="-119" xMax="222" yMax="844">
      <component glyphName="braceright" x="0" y="104" flags="0x204"/>
    </TTGlyph>
    <TTGlyph name="bracketleft" xMin="67" yMin="-217" xMax="219" yMax="732">
      <contour>
        <pt x="67" y="-217" on="1"/>
        <pt x="67" y="732" on="1"/>
        <pt x="219" y="732" on="1"/>
        <pt x="219" y="705" on="1"/>
        <pt x="98" y="705" on="1"/>
        <pt x="98" y="-188" on="1"/>
        <pt x="219" y="-188" on="1"/>
        <pt x="219" y="-217" on="1"/>
      </contour>
    </TTGlyph>
    <TTGlyph name="bracketleft.cap" xMin="67" yMin="-112" xMax="219" yMax="837">
      <component glyphName="bracketleft" x="0" y="105" flags="0x204"/>
    </TTGlyph>
    <TTGlyph name="bracketright" xMin="14" yMin="-216" xMax="165" yMax="733">
      <contour>
        <pt x="14" y="-216" on="1"/>
        <pt x="14" y="-189" on="1"/>
        <pt x="134" y="-189" on="1"/>
        <pt x="134" y="706" on="1"/>
        <pt x="14" y="706" on="1"/>
        <pt x="14" y="733" on="1"/>
        <pt x="165" y="733" on="1"/>
        <pt x="165" y="-216" on="1"/>
      </contour>
    </TTGlyph>
    <TTGlyph name="bracketright.cap" xMin="14" yMin="-112" xMax="165" yMax="837">
      <component glyphName="bracketright" x="0" y="104" flags="0x204"/>
    </TTGlyph>
    <TTGlyph name="breve" xMin="108" yMin="490" xMax="308" yMax="594">
      <contour>
        <pt x="308" y="591" on="1"/>
        <pt x="308" y="550" on="0"/>
        <pt x="257" y="490" on="0"/>
        <pt x="208" y="490" on="1"/>
        <pt x="160" y="490" on="0"/>
        <pt x="109" y="550" on="0"/>
        <pt x="108" y="591" on="1"/>
        <pt x="136" y="594" on="1"/>
        <pt x="137" y="559" on="0"/>
        <pt x="173" y="514" on="0"/>
        <pt x="208" y="514" on="1"/>
        <pt x="243" y="514" on="0"/>
        <pt x="280" y="559" on="0"/>
        <pt x="281" y="594" on="1"/>
      </contour>
    </TTGlyph>
    <TTGlyph name="bullet" xMin="60" yMin="284" xMax="222" yMax="448">
      <contour>
        <pt x="222" y="366" on="1"/>
        <pt x="222" y="332" on="0"/>
        <pt x="176" y="284" on="0"/>
        <pt x="141" y="284" on="1"/>
        <pt x="107" y="284" on="0"/>
        <pt x="60" y="332" on="0"/>
        <pt x="60" y="366" on="1"/>
        <pt x="60" y="400" on="0"/>
        <pt x="107" y="448" on="0"/>
        <pt x="141" y="448" on="1"/>
        <pt x="176" y="448" on="0"/>
        <pt x="222" y="400" on="0"/>
      </contour>
    </TTGlyph>
    <TTGlyph name="c" xMin="33" yMin="-8" xMax="302" yMax="438">
      <contour>
        <pt x="300" y="30" on="1"/>
        <pt x="277" y="13" on="0"/>
        <pt x="229" y="-8" on="0"/>
        <pt x="197" y="-8" on="1"/>
        <pt x="159" y="-8" on="0"/>
        <pt x="99" y="25" on="0"/>
        <pt x="56" y="84" on="0"/>
        <pt x="33" y="165" on="0"/>
        <pt x="33" y="213" on="1"/>
        <pt x="33" y="261" on="0"/>
        <pt x="56" y="343" on="0"/>
        <pt x="99" y="403" on="0"/>
        <pt x="160" y="438" on="0"/>
        <pt x="198" y="438" on="1"/>
        <pt x="230" y="438" on="0"/>
        <pt x="282" y="415" on="0"/>
        <pt x="302" y="400" on="1"/>
        <pt x="285" y="376" on="1"/>
        <pt x="268" y="389" on="0"/>
        <pt x="224" y="409" on="0"/>
        <pt x="197" y="409" on="1"/>
        <pt x="165" y="409" on="0"/>
        <pt x="116" y="378" on="0"/>
        <pt x="82" y="325" on="0"/>
        <pt x="64" y="254" on="0"/>
        <pt x="64" y="214" on="1"/>
        <pt x="64" y="174" on="0"/>
        <pt x="82" y="104" on="0"/>
        <pt x="116" y="51" on="0"/>
        <pt x="166" y="20" on="0"/>
        <pt x="198" y="20" on="1"/>
        <pt x="223" y="20" on="0"/>
        <pt x="266" y="39" on="0"/>
        <pt x="285" y="53" on="1"/>
      </contour>
    </TTGlyph>
    <TTGlyph name="cacute" xMin="33" yMin="-8" xMax="318" yMax="601">
      <component glyphName="acute" x="35" y="0" flags="0x4"/>
      <component glyphName="c" x="0" y="0" flags="0x4"/>
    </TTGlyph>
    <TTGlyph name="caron" xMin="106" yMin="487" xMax="312" yMax="595">
      <contour>
        <pt x="217" y="487" on="1"/>
        <pt x="202" y="487" on="1"/>
        <pt x="106" y="595" on="1"/>
        <pt x="141" y="595" on="1"/>
        <pt x="211" y="518" on="1"/>
        <pt x="277" y="595" on="1"/>
        <pt x="312" y="595" on="1"/>
      </contour>
    </TTGlyph>
    <TTGlyph name="caron.alt" xMin="67" yMin="545" xMax="147" yMax="736">
      <contour>
        <pt x="147" y="732" on="1"/>
        <pt x="147" y="678" on="0"/>
        <pt x="118" y="582" on="0"/>
        <pt x="80" y="545" on="1"/>
        <pt x="67" y="556" on="1"/>
        <pt x="97" y="594" on="0"/>
        <pt x="117" y="685" on="0"/>
        <pt x="117" y="736" on="1"/>
      </contour>
    </TTGlyph>
    <TTGlyph name="ccaron" xMin="33" yMin="-8" xMax="302" yMax="595">
      <component glyphName="caron" x="-21" y="0" flags="0x4"/>
      <component glyphName="c" x="0" y="0" flags="0x4"/>
    </TTGlyph>
    <TTGlyph name="ccedilla" xMin="33" yMin="-198" xMax="302" yMax="438">
      <contour>
        <pt x="272" y="-129" on="1"/>
        <pt x="272" y="-157" on="0"/>
        <pt x="229" y="-198" on="0"/>
        <pt x="188" y="-198" on="1"/>
        <pt x="167" y="-198" on="0"/>
        <pt x="124" y="-183" on="0"/>
        <pt x="104" y="-171" on="1"/>
        <pt x="116" y="-147" on="1"/>
        <pt x="135" y="-158" on="0"/>
        <pt x="172" y="-171" on="0"/>
        <pt x="190" y="-171" on="1"/>
        <pt x="216" y="-171" on="0"/>
        <pt x="242" y="-148" on="0"/>
        <pt x="242" y="-130" on="1"/>
        <pt x="242" y="-109" on="0"/>
        <pt x="201" y="-76" on="0"/>
        <pt x="153" y="-71" on="1"/>
        <pt x="151" y="-67" on="1"/>
        <pt x="167" y="-5" on="1"/>
        <pt x="104" y="8" on="0"/>
        <pt x="33" y="127" on="0"/>
        <pt x="33" y="213" on="1"/>
        <pt x="33" y="261" on="0"/>
        <pt x="56" y="343" on="0"/>
        <pt x="99" y="403" on="0"/>
        <pt x="160" y="438" on="0"/>
        <pt x="198" y="438" on="1"/>
        <pt x="230" y="438" on="0"/>
        <pt x="282" y="415" on="0"/>
        <pt x="302" y="400" on="1"/>
        <pt x="285" y="376" on="1"/>
        <pt x="268" y="389" on="0"/>
        <pt x="224" y="409" on="0"/>
        <pt x="197" y="409" on="1"/>
        <pt x="165" y="409" on="0"/>
        <pt x="116" y="378" on="0"/>
        <pt x="82" y="325" on="0"/>
        <pt x="64" y="254" on="0"/>
        <pt x="64" y="214" on="1"/>
        <pt x="64" y="174" on="0"/>
        <pt x="82" y="104" on="0"/>
        <pt x="116" y="51" on="0"/>
        <pt x="166" y="20" on="0"/>
        <pt x="198" y="20" on="1"/>
        <pt x="223" y="20" on="0"/>
        <pt x="266" y="39" on="0"/>
        <pt x="285" y="53" on="1"/>
        <pt x="300" y="30" on="1"/>
        <pt x="277" y="13" on="0"/>
        <pt x="229" y="-8" on="0"/>
        <pt x="197" y="-8" on="1"/>
        <pt x="195" y="-8" on="1"/>
        <pt x="184" y="-50" on="1"/>
        <pt x="229" y="-59" on="0"/>
        <pt x="272" y="-102" on="0"/>
      </contour>
    </TTGlyph>
    <TTGlyph name="cdotaccent" xMin="33" yMin="-8" xMax="302" yMax="555">
      <component glyphName="c" x="0" y="0" flags="0x204"/>
      <component glyphName="dotaccent" x="-19" y="0" flags="0x4"/>
    </TTGlyph>
    <TTGlyph name="cedilla" xMin="131" yMin="-198" xMax="299" yMax="14">
      <contour>
        <pt x="299" y="-129" on="1"/>
        <pt x="299" y="-157" on="0"/>
        <pt x="256" y="-198" on="0"/>
        <pt x="215" y="-198" on="1"/>
        <pt x="194" y="-198" on="0"/>
        <pt x="151" y="-183" on="0"/>
        <pt x="131" y="-171" on="1"/>
        <pt x="143" y="-147" on="1"/>
        <pt x="162" y="-158" on="0"/>
        <pt x="199" y="-171" on="0"/>
        <pt x="217" y="-171" on="1"/>
        <pt x="243" y="-171" on="0"/>
        <pt x="269" y="-148" on="0"/>
        <pt x="269" y="-130" on="1"/>
        <pt x="269" y="-109" on="0"/>
        <pt x="228" y="-76" on="0"/>
        <pt x="180" y="-71" on="1"/>
        <pt x="178" y="-67" on="1"/>
        <pt x="199" y="14" on="1"/>
        <pt x="226" y="7" on="1"/>
        <pt x="211" y="-50" on="1"/>
        <pt x="256" y="-59" on="0"/>
        <pt x="299" y="-102" on="0"/>
      </contour>
    </TTGlyph>
    <TTGlyph name="cent" xMin="32" yMin="-84" xMax="301" yMax="521">
      <contour>
        <pt x="159" y="-4" on="1"/>
        <pt x="101" y="9" on="0"/>
        <pt x="32" y="124" on="0"/>
        <pt x="32" y="212" on="1"/>
        <pt x="32" y="260" on="0"/>
        <pt x="55" y="341" on="0"/>
        <pt x="97" y="401" on="0"/>
        <pt x="155" y="436" on="0"/>
        <pt x="190" y="438" on="1"/>
        <pt x="196" y="521" on="1"/>
        <pt x="224" y="519" on="1"/>
        <pt x="223" y="514" on="0"/>
        <pt x="219" y="469" on="0"/>
        <pt x="217" y="436" on="1"/>
        <pt x="243" y="433" on="0"/>
        <pt x="283" y="414" on="0"/>
        <pt x="301" y="400" on="1"/>
        <pt x="284" y="376" on="1"/>
        <pt x="269" y="387" on="0"/>
        <pt x="237" y="404" on="0"/>
        <pt x="215" y="407" on="1"/>
        <pt x="212" y="365" on="0"/>
        <pt x="205" y="264" on="0"/>
        <pt x="197" y="160" on="0"/>
        <pt x="191" y="60" on="0"/>
        <pt x="188" y="20" on="1"/>
        <pt x="194" y="20" on="1"/>
        <pt x="220" y="20" on="0"/>
        <pt x="265" y="39" on="0"/>
        <pt x="284" y="53" on="1"/>
        <pt x="299" y="30" on="1"/>
        <pt x="277" y="13" on="0"/>
        <pt x="224" y="-8" on="0"/>
        <pt x="192" y="-8" on="1"/>
        <pt x="186" y="-8" on="1"/>
        <pt x="184" y="-25" on="0"/>
        <pt x="183" y="-53" on="0"/>
        <pt x="182" y="-63" on="1"/>
        <pt x="181" y="-74" on="0"/>
        <pt x="181" y="-84" on="1"/>
        <pt x="154" y="-82" on="1"/>
      </contour>
      <contour>
        <pt x="63" y="213" on="1"/>
        <pt x="63" y="178" on="0"/>
        <pt x="76" y="116" on="0"/>
        <pt x="102" y="66" on="0"/>
        <pt x="138" y="32" on="0"/>
        <pt x="161" y="25" on="1"/>
        <pt x="188" y="409" on="1"/>
        <pt x="159" y="407" on="0"/>
        <pt x="112" y="375" on="0"/>
        <pt x="80" y="322" on="0"/>
        <pt x="63" y="252" on="0"/>
      </contour>
    </TTGlyph>
    <TTGlyph name="cent.lin" xMin="32" yMin="63" xMax="301" yMax="668">
      <component glyphName="cent" x="0" y="147" flags="0x204"/>
    </TTGlyph>
    <TTGlyph name="circumflex" xMin="106" yMin="486" xMax="312" yMax="595">
      <contour>
        <pt x="277" y="486" on="1"/>
        <pt x="208" y="564" on="1"/>
        <pt x="142" y="486" on="1"/>
        <pt x="106" y="486" on="1"/>
        <pt x="201" y="595" on="1"/>
        <pt x="216" y="595" on="1"/>
        <pt x="312" y="486" on="1"/>
      </contour>
    </TTGlyph>
    <TTGlyph name="colon" xMin="26" yMin="-8" xMax="89" yMax="382">
      <contour>
        <pt x="26" y="24" on="1"/>
        <pt x="26" y="37" on="0"/>
        <pt x="44" y="56" on="0"/>
        <pt x="57" y="56" on="1"/>
        <pt x="70" y="56" on="0"/>
        <pt x="89" y="37" on="0"/>
        <pt x="89" y="24" on="1"/>
        <pt x="89" y="10" on="0"/>
        <pt x="70" y="-8" on="0"/>
        <pt x="57" y="-8" on="1"/>
        <pt x="44" y="-8" on="0"/>
        <pt x="26" y="10" on="0"/>
      </contour>
      <contour>
        <pt x="26" y="350" on="1"/>
        <pt x="26" y="363" on="0"/>
        <pt x="44" y="382" on="0"/>
        <pt x="57" y="382" on="1"/>
        <pt x="70" y="382" on="0"/>
        <pt x="89" y="363" on="0"/>
        <pt x="89" y="350" on="1"/>
        <pt x="89" y="337" on="0"/>
        <pt x="70" y="318" on="0"/>
        <pt x="57" y="318" on="1"/>
        <pt x="44" y="318" on="0"/>
        <pt x="26" y="337" on="0"/>
      </contour>
    </TTGlyph>
    <TTGlyph name="comma" xMin="17" yMin="-97" xMax="90" yMax="56">
      <contour>
        <pt x="90" y="11" on="1"/>
        <pt x="90" y="-6" on="0"/>
        <pt x="78" y="-40" on="0"/>
        <pt x="59" y="-68" on="0"/>
        <pt x="37" y="-91" on="0"/>
        <pt x="27" y="-97" on="1"/>
        <pt x="17" y="-88" on="1"/>
        <pt x="34" y="-70" on="0"/>
        <pt x="59" y="-31" on="0"/>
        <pt x="61" y="-8" on="1"/>
        <pt x="43" y="-6" on="0"/>
        <pt x="25" y="13" on="0"/>
        <pt x="25" y="25" on="1"/>
        <pt x="25" y="38" on="0"/>
        <pt x="42" y="56" on="0"/>
        <pt x="54" y="56" on="1"/>
        <pt x="68" y="56" on="0"/>
        <pt x="90" y="31" on="0"/>
      </contour>
    </TTGlyph>
    <TTGlyph name="commaaccent" xMin="31" yMin="-214" xMax="103" yMax="-64">
      <contour>
        <pt x="103" y="-108" on="1"/>
        <pt x="103" y="-125" on="0"/>
        <pt x="91" y="-157" on="0"/>
        <pt x="73" y="-185" on="0"/>
        <pt x="51" y="-208" on="0"/>
        <pt x="41" y="-214" on="1"/>
        <pt x="31" y="-205" on="1"/>
        <pt x="49" y="-188" on="0"/>
        <pt x="73" y="-148" on="0"/>
        <pt x="75" y="-127" on="1"/>
        <pt x="58" y="-125" on="0"/>
        <pt x="39" y="-106" on="0"/>
        <pt x="39" y="-94" on="1"/>
        <pt x="39" y="-82" on="0"/>
        <pt x="57" y="-64" on="0"/>
        <pt x="68" y="-64" on="1"/>
        <pt x="82" y="-64" on="0"/>
        <pt x="103" y="-88" on="0"/>
      </contour>
    </TTGlyph>
    <TTGlyph name="copyright" xMin="37" yMin="-12" xMax="613" yMax="745">
      <contour>
        <pt x="613" y="366" on="1"/>
        <pt x="613" y="288" on="0"/>
        <pt x="569" y="150" on="0"/>
        <pt x="492" y="47" on="0"/>
        <pt x="387" y="-12" on="0"/>
        <pt x="325" y="-12" on="1"/>
        <pt x="263" y="-12" on="0"/>
        <pt x="158" y="47" on="0"/>
        <pt x="81" y="150" on="0"/>
        <pt x="37" y="288" on="0"/>
        <pt x="37" y="366" on="1"/>
        <pt x="37" y="444" on="0"/>
        <pt x="81" y="582" on="0"/>
        <pt x="158" y="685" on="0"/>
        <pt x="263" y="745" on="0"/>
        <pt x="325" y="745" on="1"/>
        <pt x="387" y="745" on="0"/>
        <pt x="492" y="685" on="0"/>
        <pt x="569" y="582" on="0"/>
        <pt x="613" y="444" on="0"/>
      </contour>
      <contour>
        <pt x="586" y="366" on="1"/>
        <pt x="586" y="438" on="0"/>
        <pt x="547" y="566" on="0"/>
        <pt x="478" y="663" on="0"/>
        <pt x="382" y="720" on="0"/>
        <pt x="325" y="720" on="1"/>
        <pt x="268" y="720" on="0"/>
        <pt x="172" y="663" on="0"/>
        <pt x="103" y="566" on="0"/>
        <pt x="64" y="438" on="0"/>
        <pt x="64" y="366" on="1"/>
        <pt x="64" y="294" on="0"/>
        <pt x="103" y="166" on="0"/>
        <pt x="173" y="70" on="0"/>
        <pt x="268" y="13" on="0"/>
        <pt x="325" y="13" on="1"/>
        <pt x="382" y="13" on="0"/>
        <pt x="477" y="70" on="0"/>
        <pt x="547" y="166" on="0"/>
        <pt x="586" y="294" on="0"/>
      </contour>
      <contour>
        <pt x="426" y="211" on="1"/>
        <pt x="407" y="197" on="0"/>
        <pt x="365" y="181" on="0"/>
        <pt x="339" y="181" on="1"/>
        <pt x="310" y="181" on="0"/>
        <pt x="258" y="205" on="0"/>
        <pt x="219" y="253" on="0"/>
        <pt x="197" y="323" on="0"/>
        <pt x="197" y="368" on="1"/>
        <pt x="197" y="411" on="0"/>
        <pt x="219" y="481" on="0"/>
        <pt x="257" y="530" on="0"/>
        <pt x="309" y="556" on="0"/>
        <pt x="339" y="556" on="1"/>
        <pt x="366" y="556" on="0"/>
        <pt x="408" y="540" on="0"/>
        <pt x="428" y="526" on="1"/>
        <pt x="414" y="502" on="1"/>
        <pt x="398" y="513" on="0"/>
        <pt x="361" y="528" on="0"/>
        <pt x="339" y="528" on="1"/>
        <pt x="316" y="528" on="0"/>
        <pt x="276" y="507" on="0"/>
        <pt x="246" y="466" on="0"/>
        <pt x="228" y="407" on="0"/>
        <pt x="228" y="369" on="1"/>
        <pt x="228" y="330" on="0"/>
        <pt x="246" y="270" on="0"/>
        <pt x="278" y="229" on="0"/>
        <pt x="318" y="209" on="0"/>
        <pt x="341" y="209" on="1"/>
        <pt x="361" y="209" on="0"/>
        <pt x="399" y="223" on="0"/>
        <pt x="414" y="234" on="1"/>
      </contour>
    </TTGlyph>
    <TTGlyph name="d" xMin="34" yMin="-7" xMax="332" yMax="733">
      <contour>
        <pt x="301" y="0" on="1"/>
        <pt x="301" y="49" on="1"/>
        <pt x="281" y="27" on="0"/>
        <pt x="225" y="-7" on="0"/>
        <pt x="188" y="-7" on="1"/>
        <pt x="156" y="-7" on="0"/>
        <pt x="100" y="22" on="0"/>
        <pt x="58" y="78" on="0"/>
        <pt x="34" y="159" on="0"/>
        <pt x="34" y="212" on="1"/>
        <pt x="34" y="264" on="0"/>
        <pt x="59" y="347" on="0"/>
        <pt x="102" y="406" on="0"/>
        <pt x="159" y="437" on="0"/>
        <pt x="192" y="437" on="1"/>
        <pt x="227" y="437" on="0"/>
        <pt x="281" y="405" on="0"/>
        <pt x="301" y="382" on="1"/>
        <pt x="301" y="733" on="1"/>
        <pt x="332" y="733" on="1"/>
        <pt x="332" y="0" on="1"/>
      </contour>
      <contour>
        <pt x="301" y="347" on="1"/>
        <pt x="281" y="371" on="0"/>
        <pt x="225" y="409" on="0"/>
        <pt x="192" y="409" on="1"/>
        <pt x="165" y="409" on="0"/>
        <pt x="119" y="382" on="0"/>
        <pt x="85" y="331" on="0"/>
        <pt x="65" y="258" on="0"/>
        <pt x="65" y="212" on="1"/>
        <pt x="65" y="165" on="0"/>
        <pt x="85" y="93" on="0"/>
        <pt x="120" y="45" on="0"/>
        <pt x="165" y="21" on="0"/>
        <pt x="190" y="21" on="1"/>
        <pt x="224" y="21" on="0"/>
        <pt x="281" y="59" on="0"/>
        <pt x="301" y="84" on="1"/>
      </contour>
    </TTGlyph>
    <TTGlyph name="dagger" xMin="35" yMin="188" xMax="296" yMax="733">
      <contour>
        <pt x="180" y="564" on="1"/>
        <pt x="180" y="188" on="1"/>
        <pt x="151" y="188" on="1"/>
        <pt x="151" y="564" on="1"/>
        <pt x="35" y="564" on="1"/>
        <pt x="35" y="592" on="1"/>
        <pt x="151" y="592" on="1"/>
        <pt x="151" y="733" on="1"/>
        <pt x="180" y="733" on="1"/>
        <pt x="180" y="592" on="1"/>
        <pt x="296" y="592" on="1"/>
        <pt x="296" y="564" on="1"/>
      </contour>
    </TTGlyph>
    <TTGlyph name="daggerdbl" xMin="48" yMin="188" xMax="309" yMax="733">
      <contour>
        <pt x="194" y="335" on="1"/>
        <pt x="194" y="188" on="1"/>
        <pt x="164" y="188" on="1"/>
        <pt x="164" y="335" on="1"/>
        <pt x="48" y="335" on="1"/>
        <pt x="48" y="364" on="1"/>
        <pt x="164" y="364" on="1"/>
        <pt x="164" y="558" on="1"/>
        <pt x="48" y="558" on="1"/>
        <pt x="48" y="586" on="1"/>
        <pt x="164" y="586" on="1"/>
        <pt x="164" y="733" on="1"/>
        <pt x="194" y="733" on="1"/>
        <pt x="194" y="586" on="1"/>
        <pt x="309" y="586" on="1"/>
        <pt x="309" y="558" on="1"/>
        <pt x="194" y="558" on="1"/>
        <pt x="194" y="364" on="1"/>
        <pt x="309" y="364" on="1"/>
        <pt x="309" y="335" on="1"/>
      </contour>
    </TTGlyph>
    <TTGlyph name="dcaron" xMin="34" yMin="-7" xMax="434" yMax="735">
      <component glyphName="caron.alt" x="287" y="-1" flags="0x4"/>
      <component glyphName="d" x="0" y="0" flags="0x4"/>
    </TTGlyph>
    <TTGlyph name="dcroat" xMin="34" yMin="-7" xMax="383" yMax="733">
      <contour>
        <pt x="301" y="0" on="1"/>
        <pt x="301" y="49" on="1"/>
        <pt x="281" y="27" on="0"/>
        <pt x="225" y="-7" on="0"/>
        <pt x="188" y="-7" on="1"/>
        <pt x="156" y="-7" on="0"/>
        <pt x="100" y="22" on="0"/>
        <pt x="58" y="78" on="0"/>
        <pt x="34" y="159" on="0"/>
        <pt x="34" y="212" on="1"/>
        <pt x="34" y="264" on="0"/>
        <pt x="59" y="347" on="0"/>
        <pt x="102" y="406" on="0"/>
        <pt x="159" y="437" on="0"/>
        <pt x="192" y="437" on="1"/>
        <pt x="227" y="437" on="0"/>
        <pt x="281" y="405" on="0"/>
        <pt x="301" y="382" on="1"/>
        <pt x="301" y="580" on="1"/>
        <pt x="183" y="580" on="1"/>
        <pt x="183" y="608" on="1"/>
        <pt x="301" y="608" on="1"/>
        <pt x="301" y="733" on="1"/>
        <pt x="332" y="733" on="1"/>
        <pt x="332" y="608" on="1"/>
        <pt x="383" y="608" on="1"/>
        <pt x="383" y="580" on="1"/>
        <pt x="332" y="580" on="1"/>
        <pt x="332" y="0" on="1"/>
      </contour>
      <contour>
        <pt x="301" y="347" on="1"/>
        <pt x="281" y="371" on="0"/>
        <pt x="225" y="409" on="0"/>
        <pt x="192" y="409" on="1"/>
        <pt x="165" y="409" on="0"/>
        <pt x="119" y="382" on="0"/>
        <pt x="85" y="331" on="0"/>
        <pt x="65" y="258" on="0"/>
        <pt x="65" y="212" on="1"/>
        <pt x="65" y="165" on="0"/>
        <pt x="85" y="93" on="0"/>
        <pt x="120" y="45" on="0"/>
        <pt x="165" y="21" on="0"/>
        <pt x="190" y="21" on="1"/>
        <pt x="224" y="21" on="0"/>
        <pt x="281" y="59" on="0"/>
        <pt x="301" y="84" on="1"/>
      </contour>
    </TTGlyph>
    <TTGlyph name="degree" xMin="41" yMin="484" xMax="261" yMax="711">
      <contour>
        <pt x="261" y="597" on="1"/>
        <pt x="261" y="574" on="0"/>
        <pt x="245" y="534" on="0"/>
        <pt x="216" y="502" on="0"/>
        <pt x="176" y="484" on="0"/>
        <pt x="151" y="484" on="1"/>
        <pt x="126" y="484" on="0"/>
        <pt x="85" y="502" on="0"/>
        <pt x="57" y="534" on="0"/>
        <pt x="41" y="574" on="0"/>
        <pt x="41" y="597" on="1"/>
        <pt x="41" y="620" on="0"/>
        <pt x="57" y="662" on="0"/>
        <pt x="86" y="693" on="0"/>
        <pt x="127" y="711" on="0"/>
        <pt x="151" y="711" on="1"/>
        <pt x="175" y="711" on="0"/>
        <pt x="216" y="693" on="0"/>
        <pt x="245" y="662" on="0"/>
        <pt x="261" y="620" on="0"/>
      </contour>
      <contour>
        <pt x="235" y="598" on="1"/>
        <pt x="235" y="636" on="0"/>
        <pt x="188" y="686" on="0"/>
        <pt x="150" y="686" on="1"/>
        <pt x="112" y="686" on="0"/>
        <pt x="67" y="636" on="0"/>
        <pt x="67" y="598" on="1"/>
        <pt x="67" y="561" on="0"/>
        <pt x="112" y="508" on="0"/>
        <pt x="150" y="508" on="1"/>
        <pt x="188" y="508" on="0"/>
        <pt x="235" y="561" on="0"/>
      </contour>
    </TTGlyph>
    <TTGlyph name="degree.lin" xMin="41" yMin="484" xMax="285" yMax="735">
      <contour>
        <pt x="285" y="609" on="1"/>
        <pt x="285" y="584" on="0"/>
        <pt x="268" y="539" on="0"/>
        <pt x="236" y="504" on="0"/>
        <pt x="191" y="484" on="0"/>
        <pt x="163" y="484" on="1"/>
        <pt x="135" y="484" on="0"/>
        <pt x="90" y="504" on="0"/>
        <pt x="58" y="539" on="0"/>
        <pt x="41" y="584" on="0"/>
        <pt x="41" y="609" on="1"/>
        <pt x="41" y="634" on="0"/>
        <pt x="59" y="680" on="0"/>
        <pt x="90" y="715" on="0"/>
        <pt x="135" y="735" on="0"/>
        <pt x="162" y="735" on="1"/>
        <pt x="190" y="735" on="0"/>
        <pt x="235" y="715" on="0"/>
        <pt x="267" y="680" on="0"/>
        <pt x="285" y="634" on="0"/>
      </contour>
      <contour>
        <pt x="257" y="610" on="1"/>
        <pt x="257" y="652" on="0"/>
        <pt x="205" y="710" on="0"/>
        <pt x="162" y="710" on="1"/>
        <pt x="120" y="710" on="0"/>
        <pt x="68" y="652" on="0"/>
        <pt x="68" y="610" on="1"/>
        <pt x="68" y="589" on="0"/>
        <pt x="82" y="552" on="0"/>
        <pt x="106" y="524" on="0"/>
        <pt x="141" y="508" on="0"/>
        <pt x="162" y="508" on="1"/>
        <pt x="183" y="508" on="0"/>
        <pt x="218" y="524" on="0"/>
        <pt x="243" y="552" on="0"/>
        <pt x="257" y="589" on="0"/>
      </contour>
    </TTGlyph>
    <TTGlyph name="dieresis" xMin="115" yMin="496" xMax="302" yMax="555">
      <contour>
        <pt x="302" y="526" on="1"/>
        <pt x="302" y="514" on="0"/>
        <pt x="285" y="496" on="0"/>
        <pt x="273" y="496" on="1"/>
        <pt x="261" y="496" on="0"/>
        <pt x="244" y="514" on="0"/>
        <pt x="244" y="526" on="1"/>
        <pt x="244" y="538" on="0"/>
        <pt x="261" y="555" on="0"/>
        <pt x="273" y="555" on="1"/>
        <pt x="285" y="555" on="0"/>
        <pt x="302" y="538" on="0"/>
      </contour>
      <contour>
        <pt x="173" y="526" on="1"/>
        <pt x="173" y="514" on="0"/>
        <pt x="156" y="496" on="0"/>
        <pt x="144" y="496" on="1"/>
        <pt x="132" y="496" on="0"/>
        <pt x="115" y="514" on="0"/>
        <pt x="115" y="526" on="1"/>
        <pt x="115" y="538" on="0"/>
        <pt x="132" y="555" on="0"/>
        <pt x="144" y="555" on="1"/>
        <pt x="156" y="555" on="0"/>
        <pt x="173" y="538" on="0"/>
      </contour>
    </TTGlyph>
    <TTGlyph name="divide" xMin="41" yMin="171" xMax="335" yMax="486">
      <contour>
        <pt x="41" y="343" on="1"/>
        <pt x="335" y="343" on="1"/>
        <pt x="335" y="314" on="1"/>
        <pt x="41" y="314" on="1"/>
      </contour>
      <contour>
        <pt x="161" y="458" on="1"/>
        <pt x="161" y="469" on="0"/>
        <pt x="177" y="486" on="0"/>
        <pt x="188" y="486" on="1"/>
        <pt x="199" y="486" on="0"/>
        <pt x="215" y="469" on="0"/>
        <pt x="215" y="458" on="1"/>
        <pt x="215" y="447" on="0"/>
        <pt x="199" y="430" on="0"/>
        <pt x="188" y="430" on="1"/>
        <pt x="177" y="430" on="0"/>
        <pt x="161" y="447" on="0"/>
      </contour>
      <contour>
        <pt x="161" y="199" on="1"/>
        <pt x="161" y="210" on="0"/>
        <pt x="177" y="227" on="0"/>
        <pt x="188" y="227" on="1"/>
        <pt x="199" y="227" on="0"/>
        <pt x="215" y="210" on="0"/>
        <pt x="215" y="199" on="1"/>
        <pt x="215" y="188" on="0"/>
        <pt x="199" y="171" on="0"/>
        <pt x="188" y="171" on="1"/>
        <pt x="177" y="171" on="0"/>
        <pt x="161" y="188" on="0"/>
      </contour>
    </TTGlyph>
    <TTGlyph name="divide.lin" xMin="41" yMin="213" xMax="335" yMax="528">
      <component glyphName="divide" x="0" y="42" flags="0x204"/>
    </TTGlyph>
    <TTGlyph name="dollar" xMin="14" yMin="-73" xMax="323" yMax="722">
      <contour>
        <pt x="238" y="718" on="1"/>
        <pt x="231" y="663" on="1"/>
        <pt x="255" y="658" on="0"/>
        <pt x="300" y="634" on="0"/>
        <pt x="319" y="619" on="1"/>
        <pt x="302" y="595" on="1"/>
        <pt x="288" y="608" on="0"/>
        <pt x="251" y="630" on="0"/>
        <pt x="228" y="635" on="1"/>
        <pt x="194" y="348" on="1"/>
        <pt x="221" y="328" on="0"/>
        <pt x="268" y="288" on="0"/>
        <pt x="303" y="243" on="0"/>
        <pt x="323" y="188" on="0"/>
        <pt x="323" y="153" on="1"/>
        <pt x="323" y="116" on="0"/>
        <pt x="299" y="56" on="0"/>
        <pt x="256" y="14" on="0"/>
        <pt x="198" y="-8" on="0"/>
        <pt x="165" y="-8" on="1"/>
        <pt x="155" y="-8" on="0"/>
        <pt x="150" y="-7" on="1"/>
        <pt x="142" y="-73" on="1"/>
        <pt x="117" y="-70" on="1"/>
        <pt x="125" y="-4" on="1"/>
        <pt x="94" y="2" on="0"/>
        <pt x="39" y="32" on="0"/>
        <pt x="14" y="52" on="1"/>
        <pt x="31" y="76" on="1"/>
        <pt x="51" y="59" on="0"/>
        <pt x="101" y="31" on="0"/>
        <pt x="128" y="24" on="1"/>
        <pt x="165" y="329" on="1"/>
        <pt x="141" y="347" on="0"/>
        <pt x="97" y="384" on="0"/>
        <pt x="64" y="429" on="0"/>
        <pt x="44" y="483" on="0"/>
        <pt x="44" y="517" on="1"/>
        <pt x="44" y="549" on="0"/>
        <pt x="66" y="604" on="0"/>
        <pt x="107" y="644" on="0"/>
        <pt x="163" y="667" on="0"/>
        <pt x="197" y="667" on="1"/>
        <pt x="206" y="667" on="1"/>
        <pt x="213" y="722" on="1"/>
      </contour>
      <contour>
        <pt x="293" y="151" on="1"/>
        <pt x="293" y="179" on="0"/>
        <pt x="276" y="225" on="0"/>
        <pt x="248" y="263" on="0"/>
        <pt x="210" y="296" on="0"/>
        <pt x="189" y="312" on="1"/>
        <pt x="153" y="19" on="1"/>
        <pt x="167" y="19" on="1"/>
        <pt x="191" y="19" on="0"/>
        <pt x="237" y="37" on="0"/>
        <pt x="272" y="70" on="0"/>
        <pt x="293" y="119" on="0"/>
      </contour>
      <contour>
        <pt x="74" y="520" on="1"/>
        <pt x="74" y="493" on="0"/>
        <pt x="90" y="448" on="0"/>
        <pt x="117" y="411" on="0"/>
        <pt x="151" y="379" on="0"/>
        <pt x="170" y="365" on="1"/>
        <pt x="203" y="639" on="1"/>
        <pt x="194" y="639" on="1"/>
        <pt x="164" y="639" on="0"/>
        <pt x="119" y="620" on="0"/>
        <pt x="89" y="587" on="0"/>
        <pt x="74" y="544" on="0"/>
      </contour>
    </TTGlyph>
    <TTGlyph name="dollar.lin" xMin="16" yMin="-82" xMax="365" yMax="797">
      <contour>
        <pt x="265" y="794" on="1"/>
        <pt x="257" y="732" on="1"/>
        <pt x="287" y="727" on="0"/>
        <pt x="338" y="701" on="0"/>
        <pt x="358" y="684" on="1"/>
        <pt x="341" y="659" on="1"/>
        <pt x="324" y="673" on="0"/>
        <pt x="279" y="697" on="0"/>
        <pt x="254" y="703" on="1"/>
        <pt x="216" y="383" on="1"/>
        <pt x="244" y="363" on="0"/>
        <pt x="298" y="321" on="0"/>
        <pt x="340" y="270" on="0"/>
        <pt x="365" y="208" on="0"/>
        <pt x="365" y="168" on="1"/>
        <pt x="365" y="127" on="0"/>
        <pt x="336" y="61" on="0"/>
        <pt x="287" y="15" on="0"/>
        <pt x="222" y="-10" on="0"/>
        <pt x="186" y="-10" on="1"/>
        <pt x="182" y="-10" on="0"/>
        <pt x="174" y="-10" on="0"/>
        <pt x="170" y="-9" on="1"/>
        <pt x="162" y="-82" on="1"/>
        <pt x="136" y="-78" on="1"/>
        <pt x="144" y="-6" on="1"/>
        <pt x="108" y="1" on="0"/>
        <pt x="44" y="34" on="0"/>
        <pt x="16" y="56" on="1"/>
        <pt x="33" y="81" on="1"/>
        <pt x="59" y="61" on="0"/>
        <pt x="116" y="29" on="0"/>
        <pt x="148" y="22" on="1"/>
        <pt x="188" y="363" on="1"/>
        <pt x="161" y="382" on="0"/>
        <pt x="111" y="423" on="0"/>
        <pt x="72" y="471" on="0"/>
        <pt x="49" y="531" on="0"/>
        <pt x="49" y="569" on="1"/>
        <pt x="49" y="605" on="0"/>
        <pt x="75" y="667" on="0"/>
        <pt x="120" y="711" on="0"/>
        <pt x="183" y="736" on="0"/>
        <pt x="220" y="736" on="1"/>
        <pt x="232" y="736" on="1"/>
        <pt x="239" y="797" on="1"/>
      </contour>
      <contour>
        <pt x="334" y="164" on="1"/>
        <pt x="334" y="197" on="0"/>
        <pt x="314" y="250" on="0"/>
        <pt x="280" y="293" on="0"/>
        <pt x="236" y="329" on="0"/>
        <pt x="212" y="346" on="1"/>
        <pt x="174" y="18" on="1"/>
        <pt x="188" y="18" on="1"/>
        <pt x="217" y="18" on="0"/>
        <pt x="270" y="38" on="0"/>
        <pt x="310" y="76" on="0"/>
        <pt x="334" y="130" on="0"/>
      </contour>
      <contour>
        <pt x="80" y="573" on="1"/>
        <pt x="80" y="541" on="0"/>
        <pt x="98" y="491" on="0"/>
        <pt x="130" y="450" on="0"/>
        <pt x="170" y="416" on="0"/>
        <pt x="193" y="400" on="1"/>
        <pt x="228" y="707" on="1"/>
        <pt x="218" y="707" on="1"/>
        <pt x="188" y="707" on="0"/>
        <pt x="137" y="687" on="0"/>
        <pt x="100" y="651" on="0"/>
        <pt x="80" y="602" on="0"/>
      </contour>
    </TTGlyph>
    <TTGlyph name="dotaccent" xMin="180" yMin="496" xMax="237" yMax="555">
      <contour>
        <pt x="180" y="526" on="1"/>
        <pt x="180" y="538" on="0"/>
        <pt x="196" y="555" on="0"/>
        <pt x="209" y="555" on="1"/>
        <pt x="221" y="555" on="0"/>
        <pt x="237" y="538" on="0"/>
        <pt x="237" y="526" on="1"/>
        <pt x="237" y="514" on="0"/>
        <pt x="221" y="496" on="0"/>
        <pt x="209" y="496" on="1"/>
        <pt x="196" y="496" on="0"/>
        <pt x="180" y="514" on="0"/>
      </contour>
    </TTGlyph>
    <TTGlyph name="dotlessi" xMin="59" yMin="0" xMax="90" yMax="430">
      <contour>
        <pt x="59" y="0" on="1"/>
        <pt x="59" y="430" on="1"/>
        <pt x="90" y="430" on="1"/>
        <pt x="90" y="0" on="1"/>
      </contour>
    </TTGlyph>
    <TTGlyph name="e" xMin="33" yMin="-8" xMax="318" yMax="439">
      <contour>
        <pt x="318" y="209" on="1"/>
        <pt x="65" y="209" on="1"/>
        <pt x="66" y="122" on="0"/>
        <pt x="134" y="20" on="0"/>
        <pt x="200" y="20" on="1"/>
        <pt x="225" y="20" on="0"/>
        <pt x="271" y="34" on="0"/>
        <pt x="291" y="47" on="1"/>
        <pt x="297" y="35" on="1"/>
        <pt x="299" y="30" on="0"/>
        <pt x="303" y="22" on="0"/>
        <pt x="303" y="23" on="1"/>
        <pt x="283" y="10" on="0"/>
        <pt x="228" y="-8" on="0"/>
        <pt x="199" y="-8" on="1"/>
        <pt x="118" y="-8" on="0"/>
        <pt x="33" y="111" on="0"/>
        <pt x="33" y="214" on="1"/>
        <pt x="33" y="265" on="0"/>
        <pt x="55" y="348" on="0"/>
        <pt x="94" y="407" on="0"/>
        <pt x="149" y="439" on="0"/>
        <pt x="182" y="439" on="1"/>
        <pt x="215" y="439" on="0"/>
        <pt x="266" y="408" on="0"/>
        <pt x="300" y="353" on="0"/>
        <pt x="318" y="277" on="0"/>
        <pt x="318" y="232" on="1"/>
      </contour>
      <contour>
        <pt x="287" y="236" on="1"/>
        <pt x="286" y="273" on="0"/>
        <pt x="272" y="337" on="0"/>
        <pt x="246" y="384" on="0"/>
        <pt x="206" y="411" on="0"/>
        <pt x="180" y="411" on="1"/>
        <pt x="131" y="411" on="0"/>
        <pt x="70" y="315" on="0"/>
        <pt x="65" y="236" on="1"/>
      </contour>
    </TTGlyph>
    <TTGlyph name="eacute" xMin="33" yMin="-8" xMax="318" yMax="601">
      <component glyphName="acute" x="28" y="0" flags="0x4"/>
      <component glyphName="e" x="0" y="0" flags="0x4"/>
    </TTGlyph>
    <TTGlyph name="ebreve" xMin="33" yMin="-8" xMax="318" yMax="594">
      <component glyphName="e" x="0" y="0" flags="0x204"/>
      <component glyphName="breve" x="-26" y="0" flags="0x4"/>
    </TTGlyph>
    <TTGlyph name="ecaron" xMin="33" yMin="-8" xMax="318" yMax="595">
      <component glyphName="caron" x="-27" y="0" flags="0x4"/>
      <component glyphName="e" x="0" y="0" flags="0x4"/>
    </TTGlyph>
    <TTGlyph name="ecircumflex" xMin="33" yMin="-8" xMax="318" yMax="595">
      <component glyphName="circumflex" x="-27" y="0" flags="0x4"/>
      <component glyphName="e" x="0" y="0" flags="0x4"/>
    </TTGlyph>
    <TTGlyph name="edieresis" xMin="33" yMin="-8" xMax="318" yMax="555">
      <component glyphName="dieresis" x="-26" y="0" flags="0x4"/>
      <component glyphName="e" x="0" y="0" flags="0x4"/>
    </TTGlyph>
    <TTGlyph name="edotaccent" xMin="33" yMin="-8" xMax="318" yMax="555">
      <component glyphName="e" x="0" y="0" flags="0x204"/>
      <component glyphName="dotaccent" x="-26" y="0" flags="0x4"/>
    </TTGlyph>
    <TTGlyph name="egrave" xMin="33" yMin="-8" xMax="318" yMax="601">
      <component glyphName="e" x="0" y="0" flags="0x204"/>
      <component glyphName="grave" x="-83" y="0" flags="0x4"/>
    </TTGlyph>
    <TTGlyph name="eight" xMin="38" yMin="-8" xMax="331" yMax="667">
      <contour>
        <pt x="331" y="170" on="1"/>
        <pt x="331" y="130" on="0"/>
        <pt x="308" y="64" on="0"/>
        <pt x="267" y="18" on="0"/>
        <pt x="214" y="-8" on="0"/>
        <pt x="184" y="-8" on="1"/>
        <pt x="153" y="-8" on="0"/>
        <pt x="100" y="17" on="0"/>
        <pt x="61" y="64" on="0"/>
        <pt x="38" y="129" on="0"/>
        <pt x="38" y="169" on="1"/>
        <pt x="38" y="194" on="0"/>
        <pt x="50" y="246" on="0"/>
        <pt x="74" y="291" on="0"/>
        <pt x="109" y="326" on="0"/>
        <pt x="132" y="336" on="1"/>
        <pt x="91" y="356" on="0"/>
        <pt x="47" y="444" on="0"/>
        <pt x="47" y="498" on="1"/>
        <pt x="47" y="536" on="0"/>
        <pt x="68" y="598" on="0"/>
        <pt x="105" y="643" on="0"/>
        <pt x="155" y="667" on="0"/>
        <pt x="184" y="667" on="1"/>
        <pt x="214" y="667" on="0"/>
        <pt x="265" y="643" on="0"/>
        <pt x="301" y="598" on="0"/>
        <pt x="322" y="536" on="0"/>
        <pt x="322" y="498" on="1"/>
        <pt x="322" y="444" on="0"/>
        <pt x="277" y="356" on="0"/>
        <pt x="238" y="336" on="1"/>
        <pt x="261" y="326" on="0"/>
        <pt x="296" y="291" on="0"/>
        <pt x="319" y="246" on="0"/>
        <pt x="331" y="195" on="0"/>
      </contour>
      <contour>
        <pt x="292" y="497" on="1"/>
        <pt x="292" y="528" on="0"/>
        <pt x="277" y="581" on="0"/>
        <pt x="248" y="619" on="0"/>
        <pt x="208" y="640" on="0"/>
        <pt x="184" y="640" on="1"/>
        <pt x="160" y="640" on="0"/>
        <pt x="121" y="619" on="0"/>
        <pt x="93" y="581" on="0"/>
        <pt x="78" y="528" on="0"/>
        <pt x="78" y="497" on="1"/>
        <pt x="78" y="467" on="0"/>
        <pt x="93" y="413" on="0"/>
        <pt x="120" y="372" on="0"/>
        <pt x="160" y="349" on="0"/>
        <pt x="184" y="349" on="1"/>
        <pt x="209" y="349" on="0"/>
        <pt x="249" y="372" on="0"/>
        <pt x="277" y="413" on="0"/>
        <pt x="292" y="467" on="0"/>
      </contour>
      <contour>
        <pt x="300" y="169" on="1"/>
        <pt x="300" y="200" on="0"/>
        <pt x="283" y="255" on="0"/>
        <pt x="253" y="297" on="0"/>
        <pt x="210" y="322" on="0"/>
        <pt x="184" y="322" on="1"/>
        <pt x="158" y="322" on="0"/>
        <pt x="116" y="297" on="0"/>
        <pt x="86" y="255" on="0"/>
        <pt x="70" y="200" on="0"/>
        <pt x="70" y="169" on="1"/>
        <pt x="70" y="137" on="0"/>
        <pt x="87" y="82" on="0"/>
        <pt x="118" y="42" on="0"/>
        <pt x="160" y="19" on="0"/>
        <pt x="184" y="19" on="1"/>
        <pt x="208" y="19" on="0"/>
        <pt x="251" y="42" on="0"/>
        <pt x="282" y="82" on="0"/>
        <pt x="300" y="137" on="0"/>
      </contour>
    </TTGlyph>
    <TTGlyph name="eight.lin" xMin="44" yMin="-8" xMax="374" yMax="735">
      <contour>
        <pt x="374" y="187" on="1"/>
        <pt x="374" y="143" on="0"/>
        <pt x="348" y="71" on="0"/>
        <pt x="303" y="20" on="0"/>
        <pt x="243" y="-8" on="0"/>
        <pt x="209" y="-8" on="1"/>
        <pt x="175" y="-8" on="0"/>
        <pt x="115" y="20" on="0"/>
        <pt x="70" y="71" on="0"/>
        <pt x="44" y="142" on="0"/>
        <pt x="44" y="186" on="1"/>
        <pt x="44" y="214" on="0"/>
        <pt x="58" y="271" on="0"/>
        <pt x="85" y="321" on="0"/>
        <pt x="125" y="359" on="0"/>
        <pt x="151" y="370" on="1"/>
        <pt x="105" y="392" on="0"/>
        <pt x="53" y="490" on="0"/>
        <pt x="53" y="549" on="1"/>
        <pt x="53" y="590" on="0"/>
        <pt x="77" y="659" on="0"/>
        <pt x="119" y="708" on="0"/>
        <pt x="176" y="735" on="0"/>
        <pt x="209" y="735" on="1"/>
        <pt x="243" y="735" on="0"/>
        <pt x="300" y="708" on="0"/>
        <pt x="342" y="659" on="0"/>
        <pt x="365" y="591" on="0"/>
        <pt x="365" y="549" on="1"/>
        <pt x="365" y="490" on="0"/>
        <pt x="313" y="393" on="0"/>
        <pt x="267" y="370" on="1"/>
        <pt x="293" y="359" on="0"/>
        <pt x="333" y="320" on="0"/>
        <pt x="360" y="271" on="0"/>
        <pt x="374" y="215" on="0"/>
      </contour>
      <contour>
        <pt x="333" y="548" on="1"/>
        <pt x="333" y="583" on="0"/>
        <pt x="315" y="641" on="0"/>
        <pt x="282" y="683" on="0"/>
        <pt x="236" y="707" on="0"/>
        <pt x="208" y="707" on="1"/>
        <pt x="152" y="707" on="0"/>
        <pt x="85" y="618" on="0"/>
        <pt x="85" y="548" on="1"/>
        <pt x="85" y="514" on="0"/>
        <pt x="102" y="454" on="0"/>
        <pt x="135" y="409" on="0"/>
        <pt x="180" y="383" on="0"/>
        <pt x="209" y="383" on="1"/>
        <pt x="237" y="383" on="0"/>
        <pt x="283" y="409" on="0"/>
        <pt x="316" y="454" on="0"/>
        <pt x="333" y="514" on="0"/>
      </contour>
      <contour>
        <pt x="342" y="186" on="1"/>
        <pt x="342" y="221" on="0"/>
        <pt x="323" y="283" on="0"/>
        <pt x="288" y="330" on="0"/>
        <pt x="239" y="357" on="0"/>
        <pt x="209" y="357" on="1"/>
        <pt x="179" y="357" on="0"/>
        <pt x="130" y="330" on="0"/>
        <pt x="95" y="283" on="0"/>
        <pt x="75" y="221" on="0"/>
        <pt x="75" y="186" on="1"/>
        <pt x="75" y="150" on="0"/>
        <pt x="96" y="89" on="0"/>
        <pt x="132" y="45" on="0"/>
        <pt x="181" y="20" on="0"/>
        <pt x="209" y="20" on="1"/>
        <pt x="237" y="20" on="0"/>
        <pt x="286" y="45" on="0"/>
        <pt x="322" y="90" on="0"/>
        <pt x="342" y="150" on="0"/>
      </contour>
    </TTGlyph>
    <TTGlyph name="ellipsis" xMin="42" yMin="-8" xMax="401" yMax="56">
      <contour>
        <pt x="42" y="24" on="1"/>
        <pt x="42" y="37" on="0"/>
        <pt x="60" y="56" on="0"/>
        <pt x="73" y="56" on="1"/>
        <pt x="86" y="56" on="0"/>
        <pt x="104" y="37" on="0"/>
        <pt x="104" y="24" on="1"/>
        <pt x="104" y="10" on="0"/>
        <pt x="86" y="-8" on="0"/>
        <pt x="73" y="-8" on="1"/>
        <pt x="60" y="-8" on="0"/>
        <pt x="42" y="10" on="0"/>
      </contour>
      <contour>
        <pt x="190" y="24" on="1"/>
        <pt x="190" y="37" on="0"/>
        <pt x="208" y="56" on="0"/>
        <pt x="221" y="56" on="1"/>
        <pt x="235" y="56" on="0"/>
        <pt x="253" y="37" on="0"/>
        <pt x="253" y="24" on="1"/>
        <pt x="253" y="10" on="0"/>
        <pt x="235" y="-8" on="0"/>
        <pt x="221" y="-8" on="1"/>
        <pt x="208" y="-8" on="0"/>
        <pt x="190" y="10" on="0"/>
      </contour>
      <contour>
        <pt x="338" y="24" on="1"/>
        <pt x="338" y="37" on="0"/>
        <pt x="357" y="56" on="0"/>
        <pt x="370" y="56" on="1"/>
        <pt x="383" y="56" on="0"/>
        <pt x="401" y="37" on="0"/>
        <pt x="401" y="24" on="1"/>
        <pt x="401" y="10" on="0"/>
        <pt x="383" y="-8" on="0"/>
        <pt x="370" y="-8" on="1"/>
        <pt x="357" y="-8" on="0"/>
        <pt x="338" y="10" on="0"/>
      </contour>
    </TTGlyph>
    <TTGlyph name="emacron" xMin="33" yMin="-8" xMax="318" yMax="537">
      <component glyphName="e" x="0" y="0" flags="0x204"/>
      <component glyphName="macron" x="-26" y="0" flags="0x4"/>
    </TTGlyph>
    <TTGlyph name="emdash" xMin="42" yMin="243" xMax="522" yMax="271">
      <contour>
        <pt x="42" y="243" on="1"/>
        <pt x="42" y="271" on="1"/>
        <pt x="522" y="271" on="1"/>
        <pt x="522" y="243" on="1"/>
      </contour>
    </TTGlyph>
    <TTGlyph name="emdash.cap" xMin="42" yMin="357" xMax="522" yMax="385">
      <component glyphName="emdash" x="0" y="114" flags="0x204"/>
    </TTGlyph>
    <TTGlyph name="endash" xMin="42" yMin="243" xMax="337" yMax="271">
      <contour>
        <pt x="42" y="243" on="1"/>
        <pt x="42" y="271" on="1"/>
        <pt x="337" y="271" on="1"/>
        <pt x="337" y="243" on="1"/>
      </contour>
    </TTGlyph>
    <TTGlyph name="endash.cap" xMin="42" yMin="357" xMax="337" yMax="385">
      <component glyphName="endash" x="0" y="114" flags="0x204"/>
    </TTGlyph>
    <TTGlyph name="eogonek" xMin="33" yMin="-201" xMax="318" yMax="439">
      <contour>
        <pt x="318" y="209" on="1"/>
        <pt x="65" y="209" on="1"/>
        <pt x="66" y="122" on="0"/>
        <pt x="134" y="20" on="0"/>
        <pt x="200" y="20" on="1"/>
        <pt x="225" y="20" on="0"/>
        <pt x="271" y="34" on="0"/>
        <pt x="291" y="47" on="1"/>
        <pt x="297" y="35" on="1"/>
        <pt x="299" y="30" on="0"/>
        <pt x="303" y="22" on="0"/>
        <pt x="303" y="23" on="1"/>
        <pt x="262" y="-13" on="0"/>
        <pt x="209" y="-96" on="0"/>
        <pt x="209" y="-132" on="1"/>
        <pt x="209" y="-152" on="0"/>
        <pt x="229" y="-175" on="0"/>
        <pt x="244" y="-175" on="1"/>
        <pt x="270" y="-175" on="0"/>
        <pt x="289" y="-150" on="1"/>
        <pt x="304" y="-168" on="1"/>
        <pt x="293" y="-183" on="0"/>
        <pt x="262" y="-201" on="0"/>
        <pt x="242" y="-201" on="1"/>
        <pt x="214" y="-201" on="0"/>
        <pt x="180" y="-165" on="0"/>
        <pt x="180" y="-134" on="1"/>
        <pt x="180" y="-103" on="0"/>
        <pt x="214" y="-34" on="0"/>
        <pt x="243" y="-2" on="1"/>
        <pt x="222" y="-8" on="0"/>
        <pt x="199" y="-8" on="1"/>
        <pt x="118" y="-8" on="0"/>
        <pt x="33" y="111" on="0"/>
        <pt x="33" y="214" on="1"/>
        <pt x="33" y="265" on="0"/>
        <pt x="55" y="348" on="0"/>
        <pt x="94" y="407" on="0"/>
        <pt x="149" y="439" on="0"/>
        <pt x="182" y="439" on="1"/>
        <pt x="215" y="439" on="0"/>
        <pt x="266" y="408" on="0"/>
        <pt x="300" y="353" on="0"/>
        <pt x="318" y="277" on="0"/>
        <pt x="318" y="232" on="1"/>
      </contour>
      <contour>
        <pt x="287" y="236" on="1"/>
        <pt x="286" y="273" on="0"/>
        <pt x="272" y="337" on="0"/>
        <pt x="246" y="384" on="0"/>
        <pt x="206" y="411" on="0"/>
        <pt x="180" y="411" on="1"/>
        <pt x="131" y="411" on="0"/>
        <pt x="70" y="315" on="0"/>
        <pt x="65" y="236" on="1"/>
      </contour>
    </TTGlyph>
    <TTGlyph name="equal" xMin="45" yMin="255" xMax="257" yMax="402">
      <contour>
        <pt x="45" y="373" on="1"/>
        <pt x="45" y="402" on="1"/>
        <pt x="257" y="402" on="1"/>
        <pt x="257" y="373" on="1"/>
      </contour>
      <contour>
        <pt x="45" y="255" on="1"/>
        <pt x="45" y="284" on="1"/>
        <pt x="257" y="284" on="1"/>
        <pt x="257" y="255" on="1"/>
      </contour>
    </TTGlyph>
    <TTGlyph name="equal.lin" xMin="45" yMin="297" xMax="257" yMax="444">
      <component glyphName="equal" x="0" y="42" flags="0x204"/>
    </TTGlyph>
    <TTGlyph name="eth" xMin="34" yMin="-9" xMax="346" yMax="734">
      <contour>
        <pt x="80" y="580" on="1"/>
        <pt x="153" y="643" on="1"/>
        <pt x="114" y="680" on="0"/>
        <pt x="69" y="712" on="1"/>
        <pt x="85" y="734" on="1"/>
        <pt x="108" y="717" on="0"/>
        <pt x="153" y="681" on="0"/>
        <pt x="173" y="661" on="1"/>
        <pt x="240" y="718" on="1"/>
        <pt x="258" y="697" on="1"/>
        <pt x="192" y="641" on="1"/>
        <pt x="226" y="605" on="0"/>
        <pt x="282" y="520" on="0"/>
        <pt x="323" y="417" on="0"/>
        <pt x="346" y="296" on="0"/>
        <pt x="346" y="225" on="1"/>
        <pt x="346" y="172" on="0"/>
        <pt x="323" y="86" on="0"/>
        <pt x="282" y="24" on="0"/>
        <pt x="224" y="-9" on="0"/>
        <pt x="189" y="-9" on="1"/>
        <pt x="153" y="-9" on="0"/>
        <pt x="96" y="24" on="0"/>
        <pt x="56" y="83" on="0"/>
        <pt x="34" y="166" on="0"/>
        <pt x="34" y="216" on="1"/>
        <pt x="34" y="264" on="0"/>
        <pt x="55" y="345" on="0"/>
        <pt x="94" y="405" on="0"/>
        <pt x="149" y="439" on="0"/>
        <pt x="182" y="439" on="1"/>
        <pt x="224" y="439" on="0"/>
        <pt x="286" y="390" on="0"/>
        <pt x="306" y="349" on="1"/>
        <pt x="292" y="431" on="0"/>
        <pt x="222" y="568" on="0"/>
        <pt x="171" y="623" on="1"/>
        <pt x="97" y="560" on="1"/>
      </contour>
      <contour>
        <pt x="315" y="215" on="1"/>
        <pt x="315" y="256" on="0"/>
        <pt x="296" y="328" on="0"/>
        <pt x="261" y="381" on="0"/>
        <pt x="213" y="411" on="0"/>
        <pt x="183" y="411" on="1"/>
        <pt x="156" y="411" on="0"/>
        <pt x="112" y="379" on="0"/>
        <pt x="82" y="326" on="0"/>
        <pt x="65" y="255" on="0"/>
        <pt x="65" y="216" on="1"/>
        <pt x="65" y="175" on="0"/>
        <pt x="82" y="103" on="0"/>
        <pt x="115" y="50" on="0"/>
        <pt x="160" y="19" on="0"/>
        <pt x="189" y="19" on="1"/>
        <pt x="218" y="19" on="0"/>
        <pt x="264" y="51" on="0"/>
        <pt x="297" y="105" on="0"/>
        <pt x="315" y="176" on="0"/>
      </contour>
    </TTGlyph>
    <TTGlyph name="exclam" xMin="45" yMin="-8" xMax="108" yMax="733">
      <contour>
        <pt x="89" y="182" on="1"/>
        <pt x="64" y="182" on="1"/>
        <pt x="60" y="733" on="1"/>
        <pt x="92" y="733" on="1"/>
      </contour>
      <contour>
        <pt x="108" y="24" on="1"/>
        <pt x="108" y="10" on="0"/>
        <pt x="90" y="-8" on="0"/>
        <pt x="76" y="-8" on="1"/>
        <pt x="63" y="-8" on="0"/>
        <pt x="45" y="10" on="0"/>
        <pt x="45" y="24" on="1"/>
        <pt x="45" y="37" on="0"/>
        <pt x="63" y="56" on="0"/>
        <pt x="76" y="56" on="1"/>
        <pt x="90" y="56" on="0"/>
        <pt x="108" y="37" on="0"/>
      </contour>
    </TTGlyph>
    <TTGlyph name="exclamdown" xMin="45" yMin="0" xMax="108" yMax="741">
      <contour>
        <pt x="45" y="710" on="1"/>
        <pt x="45" y="723" on="0"/>
        <pt x="63" y="741" on="0"/>
        <pt x="76" y="741" on="1"/>
        <pt x="90" y="741" on="0"/>
        <pt x="108" y="723" on="0"/>
        <pt x="108" y="710" on="1"/>
        <pt x="108" y="697" on="0"/>
        <pt x="90" y="678" on="0"/>
        <pt x="76" y="678" on="1"/>
        <pt x="63" y="678" on="0"/>
        <pt x="45" y="697" on="0"/>
      </contour>
      <contour>
        <pt x="64" y="551" on="1"/>
        <pt x="89" y="551" on="1"/>
        <pt x="92" y="0" on="1"/>
        <pt x="60" y="0" on="1"/>
      </contour>
    </TTGlyph>
    <TTGlyph name="f" xMin="12" yMin="0" xMax="237" yMax="740">
      <contour>
        <pt x="230" y="703" on="1"/>
        <pt x="220" y="707" on="0"/>
        <pt x="191" y="712" on="0"/>
        <pt x="180" y="712" on="1"/>
        <pt x="147" y="712" on="0"/>
        <pt x="107" y="661" on="0"/>
        <pt x="107" y="603" on="1"/>
        <pt x="107" y="430" on="1"/>
        <pt x="203" y="430" on="1"/>
        <pt x="203" y="401" on="1"/>
        <pt x="107" y="401" on="1"/>
        <pt x="107" y="0" on="1"/>
        <pt x="76" y="0" on="1"/>
        <pt x="76" y="400" on="1"/>
        <pt x="12" y="400" on="1"/>
        <pt x="12" y="416" on="1"/>
        <pt x="76" y="430" on="1"/>
        <pt x="76" y="602" on="1"/>
        <pt x="76" y="675" on="0"/>
        <pt x="137" y="740" on="0"/>
        <pt x="181" y="740" on="1"/>
        <pt x="195" y="740" on="0"/>
        <pt x="226" y="735" on="0"/>
        <pt x="237" y="731" on="1"/>
      </contour>
    </TTGlyph>
    <TTGlyph name="f_f" xMin="12" yMin="0" xMax="447" yMax="740">
      <contour>
        <pt x="230" y="703" on="1"/>
        <pt x="220" y="707" on="0"/>
        <pt x="191" y="712" on="0"/>
        <pt x="180" y="712" on="1"/>
        <pt x="147" y="712" on="0"/>
        <pt x="107" y="661" on="0"/>
        <pt x="107" y="603" on="1"/>
        <pt x="107" y="430" on="1"/>
        <pt x="203" y="430" on="1"/>
        <pt x="203" y="401" on="1"/>
        <pt x="107" y="401" on="1"/>
        <pt x="107" y="0" on="1"/>
        <pt x="76" y="0" on="1"/>
        <pt x="76" y="400" on="1"/>
        <pt x="12" y="400" on="1"/>
        <pt x="12" y="416" on="1"/>
        <pt x="76" y="430" on="1"/>
        <pt x="76" y="602" on="1"/>
        <pt x="76" y="675" on="0"/>
        <pt x="137" y="740" on="0"/>
        <pt x="181" y="740" on="1"/>
        <pt x="195" y="740" on="0"/>
        <pt x="226" y="735" on="0"/>
        <pt x="237" y="731" on="1"/>
      </contour>
      <contour>
        <pt x="440" y="703" on="1"/>
        <pt x="430" y="707" on="0"/>
        <pt x="401" y="712" on="0"/>
        <pt x="390" y="712" on="1"/>
        <pt x="357" y="712" on="0"/>
        <pt x="317" y="661" on="0"/>
        <pt x="317" y="603" on="1"/>
        <pt x="317" y="430" on="1"/>
        <pt x="413" y="430" on="1"/>
        <pt x="413" y="401" on="1"/>
        <pt x="317" y="401" on="1"/>
        <pt x="317" y="0" on="1"/>
        <pt x="286" y="0" on="1"/>
        <pt x="286" y="400" on="1"/>
        <pt x="222" y="400" on="1"/>
        <pt x="222" y="416" on="1"/>
        <pt x="286" y="430" on="1"/>
        <pt x="286" y="602" on="1"/>
        <pt x="286" y="675" on="0"/>
        <pt x="347" y="740" on="0"/>
        <pt x="391" y="740" on="1"/>
        <pt x="405" y="740" on="0"/>
        <pt x="436" y="735" on="0"/>
        <pt x="447" y="731" on="1"/>
      </contour>
    </TTGlyph>
    <TTGlyph name="f_f_i" xMin="12" yMin="0" xMax="521" yMax="740">
      <contour>
        <pt x="230" y="703" on="1"/>
        <pt x="220" y="707" on="0"/>
        <pt x="191" y="712" on="0"/>
        <pt x="180" y="712" on="1"/>
        <pt x="147" y="712" on="0"/>
        <pt x="107" y="661" on="0"/>
        <pt x="107" y="603" on="1"/>
        <pt x="107" y="430" on="1"/>
        <pt x="203" y="430" on="1"/>
        <pt x="203" y="401" on="1"/>
        <pt x="107" y="401" on="1"/>
        <pt x="107" y="0" on="1"/>
        <pt x="76" y="0" on="1"/>
        <pt x="76" y="400" on="1"/>
        <pt x="12" y="400" on="1"/>
        <pt x="12" y="416" on="1"/>
        <pt x="76" y="430" on="1"/>
        <pt x="76" y="602" on="1"/>
        <pt x="76" y="675" on="0"/>
        <pt x="137" y="740" on="0"/>
        <pt x="181" y="740" on="1"/>
        <pt x="195" y="740" on="0"/>
        <pt x="226" y="735" on="0"/>
        <pt x="237" y="731" on="1"/>
      </contour>
      <contour>
        <pt x="440" y="703" on="1"/>
        <pt x="430" y="707" on="0"/>
        <pt x="401" y="712" on="0"/>
        <pt x="390" y="712" on="1"/>
        <pt x="357" y="712" on="0"/>
        <pt x="317" y="661" on="0"/>
        <pt x="317" y="603" on="1"/>
        <pt x="317" y="430" on="1"/>
        <pt x="413" y="430" on="1"/>
        <pt x="413" y="401" on="1"/>
        <pt x="317" y="401" on="1"/>
        <pt x="317" y="0" on="1"/>
        <pt x="286" y="0" on="1"/>
        <pt x="286" y="400" on="1"/>
        <pt x="222" y="400" on="1"/>
        <pt x="222" y="416" on="1"/>
        <pt x="286" y="430" on="1"/>
        <pt x="286" y="602" on="1"/>
        <pt x="286" y="675" on="0"/>
        <pt x="347" y="740" on="0"/>
        <pt x="391" y="740" on="1"/>
        <pt x="405" y="740" on="0"/>
        <pt x="436" y="735" on="0"/>
        <pt x="447" y="731" on="1"/>
      </contour>
      <contour>
        <pt x="521" y="582" on="1"/>
        <pt x="521" y="571" on="0"/>
        <pt x="506" y="555" on="0"/>
        <pt x="494" y="555" on="1"/>
        <pt x="483" y="555" on="0"/>
        <pt x="467" y="571" on="0"/>
        <pt x="467" y="582" on="1"/>
        <pt x="467" y="594" on="0"/>
        <pt x="483" y="610" on="0"/>
        <pt x="494" y="610" on="1"/>
        <pt x="506" y="610" on="0"/>
        <pt x="521" y="594" on="0"/>
      </contour>
      <contour>
        <pt x="479" y="0" on="1"/>
        <pt x="479" y="430" on="1"/>
        <pt x="510" y="430" on="1"/>
        <pt x="510" y="0" on="1"/>
      </contour>
    </TTGlyph>
    <TTGlyph name="f_f_l" xMin="12" yMin="0" xMax="510" yMax="740">
      <contour>
        <pt x="230" y="703" on="1"/>
        <pt x="220" y="707" on="0"/>
        <pt x="191" y="712" on="0"/>
        <pt x="180" y="712" on="1"/>
        <pt x="147" y="712" on="0"/>
        <pt x="107" y="661" on="0"/>
        <pt x="107" y="603" on="1"/>
        <pt x="107" y="430" on="1"/>
        <pt x="203" y="430" on="1"/>
        <pt x="203" y="401" on="1"/>
        <pt x="107" y="401" on="1"/>
        <pt x="107" y="0" on="1"/>
        <pt x="76" y="0" on="1"/>
        <pt x="76" y="400" on="1"/>
        <pt x="12" y="400" on="1"/>
        <pt x="12" y="416" on="1"/>
        <pt x="76" y="430" on="1"/>
        <pt x="76" y="602" on="1"/>
        <pt x="76" y="675" on="0"/>
        <pt x="137" y="740" on="0"/>
        <pt x="181" y="740" on="1"/>
        <pt x="195" y="740" on="0"/>
        <pt x="226" y="735" on="0"/>
        <pt x="237" y="731" on="1"/>
      </contour>
      <contour>
        <pt x="440" y="703" on="1"/>
        <pt x="430" y="707" on="0"/>
        <pt x="401" y="712" on="0"/>
        <pt x="390" y="712" on="1"/>
        <pt x="357" y="712" on="0"/>
        <pt x="317" y="661" on="0"/>
        <pt x="317" y="603" on="1"/>
        <pt x="317" y="430" on="1"/>
        <pt x="413" y="430" on="1"/>
        <pt x="413" y="401" on="1"/>
        <pt x="317" y="401" on="1"/>
        <pt x="317" y="0" on="1"/>
        <pt x="286" y="0" on="1"/>
        <pt x="286" y="400" on="1"/>
        <pt x="222" y="400" on="1"/>
        <pt x="222" y="416" on="1"/>
        <pt x="286" y="430" on="1"/>
        <pt x="286" y="602" on="1"/>
        <pt x="286" y="675" on="0"/>
        <pt x="347" y="740" on="0"/>
        <pt x="391" y="740" on="1"/>
        <pt x="405" y="740" on="0"/>
        <pt x="436" y="735" on="0"/>
        <pt x="447" y="731" on="1"/>
      </contour>
      <contour>
        <pt x="479" y="0" on="1"/>
        <pt x="479" y="733" on="1"/>
        <pt x="510" y="733" on="1"/>
        <pt x="510" y="0" on="1"/>
      </contour>
    </TTGlyph>
    <TTGlyph name="fi" xMin="12" yMin="0" xMax="311" yMax="740">
      <contour>
        <pt x="311" y="582" on="1"/>
        <pt x="311" y="571" on="0"/>
        <pt x="295" y="555" on="0"/>
        <pt x="284" y="555" on="1"/>
        <pt x="273" y="555" on="0"/>
        <pt x="257" y="571" on="0"/>
        <pt x="257" y="582" on="1"/>
        <pt x="257" y="594" on="0"/>
        <pt x="273" y="610" on="0"/>
        <pt x="284" y="610" on="1"/>
        <pt x="295" y="610" on="0"/>
        <pt x="311" y="594" on="0"/>
      </contour>
      <contour>
        <pt x="230" y="703" on="1"/>
        <pt x="220" y="707" on="0"/>
        <pt x="191" y="712" on="0"/>
        <pt x="180" y="712" on="1"/>
        <pt x="147" y="712" on="0"/>
        <pt x="107" y="661" on="0"/>
        <pt x="107" y="603" on="1"/>
        <pt x="107" y="430" on="1"/>
        <pt x="203" y="430" on="1"/>
        <pt x="203" y="401" on="1"/>
        <pt x="107" y="401" on="1"/>
        <pt x="107" y="0" on="1"/>
        <pt x="76" y="0" on="1"/>
        <pt x="76" y="400" on="1"/>
        <pt x="12" y="400" on="1"/>
        <pt x="12" y="416" on="1"/>
        <pt x="76" y="430" on="1"/>
        <pt x="76" y="602" on="1"/>
        <pt x="76" y="675" on="0"/>
        <pt x="137" y="740" on="0"/>
        <pt x="181" y="740" on="1"/>
        <pt x="195" y="740" on="0"/>
        <pt x="226" y="735" on="0"/>
        <pt x="237" y="731" on="1"/>
      </contour>
      <contour>
        <pt x="269" y="0" on="1"/>
        <pt x="269" y="430" on="1"/>
        <pt x="300" y="430" on="1"/>
        <pt x="300" y="0" on="1"/>
      </contour>
    </TTGlyph>
    <TTGlyph name="five" xMin="40" yMin="-8" xMax="323" yMax="660">
      <contour>
        <pt x="323" y="201" on="1"/>
        <pt x="323" y="154" on="0"/>
        <pt x="298" y="77" on="0"/>
        <pt x="253" y="22" on="0"/>
        <pt x="191" y="-8" on="0"/>
        <pt x="153" y="-8" on="1"/>
        <pt x="121" y="-8" on="0"/>
        <pt x="66" y="8" on="0"/>
        <pt x="40" y="21" on="1"/>
        <pt x="52" y="48" on="1"/>
        <pt x="75" y="36" on="0"/>
        <pt x="126" y="20" on="0"/>
        <pt x="154" y="20" on="1"/>
        <pt x="184" y="20" on="0"/>
        <pt x="234" y="43" on="0"/>
        <pt x="271" y="89" on="0"/>
        <pt x="292" y="155" on="0"/>
        <pt x="292" y="199" on="1"/>
        <pt x="292" y="280" on="0"/>
        <pt x="218" y="360" on="0"/>
        <pt x="155" y="360" on="1"/>
        <pt x="124" y="360" on="0"/>
        <pt x="84" y="351" on="0"/>
        <pt x="67" y="346" on="1"/>
        <pt x="62" y="350" on="1"/>
        <pt x="62" y="660" on="1"/>
        <pt x="307" y="660" on="1"/>
        <pt x="307" y="633" on="1"/>
        <pt x="93" y="633" on="1"/>
        <pt x="93" y="381" on="1"/>
        <pt x="117" y="388" on="0"/>
        <pt x="156" y="388" on="1"/>
        <pt x="231" y="388" on="0"/>
        <pt x="323" y="293" on="0"/>
      </contour>
    </TTGlyph>
    <TTGlyph name="five.lin" xMin="40" yMin="-8" xMax="357" yMax="727">
      <contour>
        <pt x="357" y="219" on="1"/>
        <pt x="357" y="168" on="0"/>
        <pt x="329" y="85" on="0"/>
        <pt x="278" y="25" on="0"/>
        <pt x="208" y="-8" on="0"/>
        <pt x="166" y="-8" on="1"/>
        <pt x="132" y="-8" on="0"/>
        <pt x="69" y="9" on="0"/>
        <pt x="40" y="23" on="1"/>
        <pt x="52" y="51" on="1"/>
        <pt x="78" y="37" on="0"/>
        <pt x="136" y="20" on="0"/>
        <pt x="168" y="20" on="1"/>
        <pt x="201" y="20" on="0"/>
        <pt x="259" y="46" on="0"/>
        <pt x="301" y="97" on="0"/>
        <pt x="326" y="170" on="0"/>
        <pt x="326" y="217" on="1"/>
        <pt x="326" y="307" on="0"/>
        <pt x="237" y="395" on="0"/>
        <pt x="168" y="395" on="1"/>
        <pt x="133" y="395" on="0"/>
        <pt x="88" y="385" on="0"/>
        <pt x="70" y="380" on="1"/>
        <pt x="66" y="384" on="1"/>
        <pt x="66" y="727" on="1"/>
        <pt x="340" y="727" on="1"/>
        <pt x="340" y="699" on="1"/>
        <pt x="97" y="699" on="1"/>
        <pt x="97" y="416" on="1"/>
        <pt x="111" y="419" on="0"/>
        <pt x="146" y="423" on="0"/>
        <pt x="169" y="423" on="1"/>
        <pt x="211" y="423" on="0"/>
        <pt x="280" y="397" on="0"/>
        <pt x="329" y="346" on="0"/>
        <pt x="357" y="269" on="0"/>
      </contour>
    </TTGlyph>
    <TTGlyph name="fl" xMin="12" yMin="0" xMax="300" yMax="740">
      <contour>
        <pt x="230" y="703" on="1"/>
        <pt x="220" y="707" on="0"/>
        <pt x="191" y="712" on="0"/>
        <pt x="180" y="712" on="1"/>
        <pt x="147" y="712" on="0"/>
        <pt x="107" y="661" on="0"/>
        <pt x="107" y="603" on="1"/>
        <pt x="107" y="430" on="1"/>
        <pt x="203" y="430" on="1"/>
        <pt x="203" y="401" on="1"/>
        <pt x="107" y="401" on="1"/>
        <pt x="107" y="0" on="1"/>
        <pt x="76" y="0" on="1"/>
        <pt x="76" y="400" on="1"/>
        <pt x="12" y="400" on="1"/>
        <pt x="12" y="416" on="1"/>
        <pt x="76" y="430" on="1"/>
        <pt x="76" y="602" on="1"/>
        <pt x="76" y="675" on="0"/>
        <pt x="137" y="740" on="0"/>
        <pt x="181" y="740" on="1"/>
        <pt x="195" y="740" on="0"/>
        <pt x="226" y="735" on="0"/>
        <pt x="237" y="731" on="1"/>
      </contour>
      <contour>
        <pt x="269" y="0" on="1"/>
        <pt x="269" y="733" on="1"/>
        <pt x="300" y="733" on="1"/>
        <pt x="300" y="0" on="1"/>
      </contour>
    </TTGlyph>
    <TTGlyph name="florin" xMin="45" yMin="0" xMax="294" yMax="667">
      <contour>
        <pt x="286" y="632" on="1"/>
        <pt x="278" y="634" on="0"/>
        <pt x="255" y="638" on="0"/>
        <pt x="244" y="638" on="1"/>
        <pt x="201" y="638" on="0"/>
        <pt x="157" y="580" on="0"/>
        <pt x="150" y="520" on="1"/>
        <pt x="137" y="387" on="1"/>
        <pt x="222" y="387" on="1"/>
        <pt x="220" y="359" on="1"/>
        <pt x="134" y="359" on="1"/>
        <pt x="97" y="0" on="1"/>
        <pt x="66" y="0" on="1"/>
        <pt x="103" y="359" on="1"/>
        <pt x="45" y="359" on="1"/>
        <pt x="48" y="374" on="1"/>
        <pt x="105" y="387" on="1"/>
        <pt x="119" y="522" on="1"/>
        <pt x="123" y="563" on="0"/>
        <pt x="146" y="619" on="0"/>
        <pt x="181" y="653" on="0"/>
        <pt x="223" y="667" on="0"/>
        <pt x="247" y="667" on="1"/>
        <pt x="260" y="667" on="0"/>
        <pt x="284" y="663" on="0"/>
        <pt x="294" y="660" on="1"/>
      </contour>
    </TTGlyph>
    <TTGlyph name="florin.lin" xMin="53" yMin="0" xMax="334" yMax="735">
      <contour>
        <pt x="325" y="697" on="1"/>
        <pt x="314" y="701" on="0"/>
        <pt x="288" y="706" on="0"/>
        <pt x="275" y="706" on="1"/>
        <pt x="225" y="706" on="0"/>
        <pt x="175" y="636" on="0"/>
        <pt x="167" y="566" on="1"/>
        <pt x="152" y="425" on="1"/>
        <pt x="249" y="425" on="1"/>
        <pt x="246" y="396" on="1"/>
        <pt x="149" y="396" on="1"/>
        <pt x="108" y="0" on="1"/>
        <pt x="76" y="0" on="1"/>
        <pt x="118" y="395" on="1"/>
        <pt x="53" y="395" on="1"/>
        <pt x="55" y="411" on="1"/>
        <pt x="120" y="424" on="1"/>
        <pt x="135" y="568" on="1"/>
        <pt x="140" y="615" on="0"/>
        <pt x="166" y="679" on="0"/>
        <pt x="204" y="718" on="0"/>
        <pt x="252" y="735" on="0"/>
        <pt x="279" y="735" on="1"/>
        <pt x="294" y="735" on="0"/>
        <pt x="322" y="730" on="0"/>
        <pt x="334" y="726" on="1"/>
      </contour>
    </TTGlyph>
    <TTGlyph name="four" xMin="12" yMin="0" xMax="366" yMax="669">
      <contour>
        <pt x="287" y="199" on="1"/>
        <pt x="287" y="0" on="1"/>
        <pt x="259" y="0" on="1"/>
        <pt x="259" y="199" on="1"/>
        <pt x="12" y="199" on="1"/>
        <pt x="12" y="209" on="1"/>
        <pt x="271" y="669" on="1"/>
        <pt x="287" y="669" on="1"/>
        <pt x="287" y="225" on="1"/>
        <pt x="366" y="225" on="1"/>
        <pt x="366" y="199" on="1"/>
      </contour>
      <contour>
        <pt x="259" y="593" on="1"/>
        <pt x="53" y="225" on="1"/>
        <pt x="259" y="225" on="1"/>
      </contour>
    </TTGlyph>
    <TTGlyph name="four.lin" xMin="15" yMin="0" xMax="417" yMax="737">
      <contour>
        <pt x="326" y="220" on="1"/>
        <pt x="326" y="0" on="1"/>
        <pt x="297" y="0" on="1"/>
        <pt x="297" y="220" on="1"/>
        <pt x="15" y="220" on="1"/>
        <pt x="15" y="231" on="1"/>
        <pt x="311" y="737" on="1"/>
        <pt x="326" y="737" on="1"/>
        <pt x="326" y="247" on="1"/>
        <pt x="417" y="247" on="1"/>
        <pt x="417" y="220" on="1"/>
      </contour>
      <contour>
        <pt x="297" y="660" on="1"/>
        <pt x="55" y="247" on="1"/>
        <pt x="297" y="247" on="1"/>
      </contour>
    </TTGlyph>
    <TTGlyph name="fraction" xMin="8" yMin="-11" xMax="450" yMax="681">
      <contour>
        <pt x="32" y="-11" on="1"/>
        <pt x="8" y="5" on="1"/>
        <pt x="425" y="681" on="1"/>
        <pt x="450" y="666" on="1"/>
      </contour>
    </TTGlyph>
    <TTGlyph name="fraction.lin" xMin="9" yMin="-11" xMax="508" yMax="749">
      <contour>
        <pt x="33" y="-11" on="1"/>
        <pt x="9" y="5" on="1"/>
        <pt x="483" y="749" on="1"/>
        <pt x="508" y="733" on="1"/>
      </contour>
    </TTGlyph>
    <TTGlyph name="g" xMin="34" yMin="-207" xMax="332" yMax="437">
      <contour>
        <pt x="332" y="-66" on="1"/>
        <pt x="332" y="-207" on="0"/>
        <pt x="203" y="-207" on="1"/>
        <pt x="171" y="-207" on="0"/>
        <pt x="110" y="-192" on="0"/>
        <pt x="87" y="-181" on="1"/>
        <pt x="97" y="-153" on="1"/>
        <pt x="152" y="-179" on="0"/>
        <pt x="204" y="-179" on="1"/>
        <pt x="255" y="-179" on="0"/>
        <pt x="301" y="-126" on="0"/>
        <pt x="301" y="-67" on="1"/>
        <pt x="301" y="49" on="1"/>
        <pt x="281" y="26" on="0"/>
        <pt x="225" y="-7" on="0"/>
        <pt x="188" y="-7" on="1"/>
        <pt x="156" y="-7" on="0"/>
        <pt x="100" y="22" on="0"/>
        <pt x="58" y="78" on="0"/>
        <pt x="34" y="159" on="0"/>
        <pt x="34" y="212" on="1"/>
        <pt x="34" y="264" on="0"/>
        <pt x="59" y="347" on="0"/>
        <pt x="102" y="406" on="0"/>
        <pt x="159" y="437" on="0"/>
        <pt x="192" y="437" on="1"/>
        <pt x="227" y="437" on="0"/>
        <pt x="282" y="403" on="0"/>
        <pt x="302" y="380" on="1"/>
        <pt x="302" y="430" on="1"/>
        <pt x="332" y="430" on="1"/>
      </contour>
      <contour>
        <pt x="301" y="345" on="1"/>
        <pt x="281" y="370" on="0"/>
        <pt x="225" y="409" on="0"/>
        <pt x="192" y="409" on="1"/>
        <pt x="165" y="409" on="0"/>
        <pt x="119" y="382" on="0"/>
        <pt x="85" y="331" on="0"/>
        <pt x="65" y="258" on="0"/>
        <pt x="65" y="212" on="1"/>
        <pt x="65" y="165" on="0"/>
        <pt x="85" y="93" on="0"/>
        <pt x="120" y="45" on="0"/>
        <pt x="165" y="21" on="0"/>
        <pt x="190" y="21" on="1"/>
        <pt x="224" y="21" on="0"/>
        <pt x="281" y="59" on="0"/>
        <pt x="301" y="84" on="1"/>
      </contour>
    </TTGlyph>
    <TTGlyph name="gbreve" xMin="34" yMin="-207" xMax="332" yMax="594">
      <component glyphName="g" x="0" y="0" flags="0x204"/>
      <component glyphName="breve" x="-5" y="0" flags="0x4"/>
    </TTGlyph>
    <TTGlyph name="gcommaaccent" xMin="34" yMin="-207" xMax="332" yMax="646">
      <contour>
        <pt x="332" y="-66" on="1"/>
        <pt x="332" y="-207" on="0"/>
        <pt x="203" y="-207" on="1"/>
        <pt x="171" y="-207" on="0"/>
        <pt x="110" y="-192" on="0"/>
        <pt x="87" y="-181" on="1"/>
        <pt x="97" y="-153" on="1"/>
        <pt x="152" y="-179" on="0"/>
        <pt x="204" y="-179" on="1"/>
        <pt x="255" y="-179" on="0"/>
        <pt x="301" y="-126" on="0"/>
        <pt x="301" y="-67" on="1"/>
        <pt x="301" y="49" on="1"/>
        <pt x="281" y="26" on="0"/>
        <pt x="225" y="-7" on="0"/>
        <pt x="188" y="-7" on="1"/>
        <pt x="156" y="-7" on="0"/>
        <pt x="100" y="22" on="0"/>
        <pt x="58" y="78" on="0"/>
        <pt x="34" y="159" on="0"/>
        <pt x="34" y="212" on="1"/>
        <pt x="34" y="264" on="0"/>
        <pt x="59" y="347" on="0"/>
        <pt x="102" y="406" on="0"/>
        <pt x="159" y="437" on="0"/>
        <pt x="192" y="437" on="1"/>
        <pt x="227" y="437" on="0"/>
        <pt x="282" y="403" on="0"/>
        <pt x="302" y="380" on="1"/>
        <pt x="302" y="430" on="1"/>
        <pt x="332" y="430" on="1"/>
      </contour>
      <contour>
        <pt x="301" y="345" on="1"/>
        <pt x="281" y="370" on="0"/>
        <pt x="225" y="409" on="0"/>
        <pt x="192" y="409" on="1"/>
        <pt x="165" y="409" on="0"/>
        <pt x="119" y="382" on="0"/>
        <pt x="85" y="331" on="0"/>
        <pt x="65" y="258" on="0"/>
        <pt x="65" y="212" on="1"/>
        <pt x="65" y="165" on="0"/>
        <pt x="85" y="93" on="0"/>
        <pt x="120" y="45" on="0"/>
        <pt x="165" y="21" on="0"/>
        <pt x="190" y="21" on="1"/>
        <pt x="224" y="21" on="0"/>
        <pt x="281" y="59" on="0"/>
        <pt x="301" y="84" on="1"/>
      </contour>
      <contour>
        <pt x="167" y="540" on="1"/>
        <pt x="167" y="556" on="0"/>
        <pt x="179" y="589" on="0"/>
        <pt x="197" y="617" on="0"/>
        <pt x="219" y="640" on="0"/>
        <pt x="229" y="646" on="1"/>
        <pt x="239" y="637" on="1"/>
        <pt x="221" y="620" on="0"/>
        <pt x="197" y="580" on="0"/>
        <pt x="195" y="559" on="1"/>
        <pt x="212" y="557" on="0"/>
        <pt x="231" y="538" on="0"/>
        <pt x="231" y="526" on="1"/>
        <pt x="231" y="514" on="0"/>
        <pt x="213" y="496" on="0"/>
        <pt x="202" y="496" on="1"/>
        <pt x="188" y="496" on="0"/>
        <pt x="167" y="520" on="0"/>
      </contour>
    </TTGlyph>
    <TTGlyph name="gdotaccent" xMin="34" yMin="-207" xMax="332" yMax="555">
      <component glyphName="g" x="0" y="0" flags="0x204"/>
      <component glyphName="dotaccent" x="-5" y="0" flags="0x4"/>
    </TTGlyph>
    <TTGlyph name="germandbls" xMin="58" yMin="-94" xMax="332" yMax="740">
      <contour>
        <pt x="201" y="207" on="1"/>
        <pt x="228" y="205" on="0"/>
        <pt x="276" y="185" on="0"/>
        <pt x="311" y="148" on="0"/>
        <pt x="332" y="96" on="0"/>
        <pt x="332" y="64" on="1"/>
        <pt x="332" y="30" on="0"/>
        <pt x="310" y="-28" on="0"/>
        <pt x="270" y="-70" on="0"/>
        <pt x="213" y="-94" on="0"/>
        <pt x="179" y="-94" on="1"/>
        <pt x="165" y="-94" on="0"/>
        <pt x="146" y="-91" on="0"/>
        <pt x="138" y="-89" on="1"/>
        <pt x="141" y="-62" on="1"/>
        <pt x="148" y="-64" on="0"/>
        <pt x="166" y="-66" on="0"/>
        <pt x="178" y="-66" on="1"/>
        <pt x="233" y="-66" on="0"/>
        <pt x="302" y="4" on="0"/>
        <pt x="302" y="64" on="1"/>
        <pt x="302" y="92" on="0"/>
        <pt x="282" y="137" on="0"/>
        <pt x="249" y="167" on="0"/>
        <pt x="206" y="183" on="0"/>
        <pt x="182" y="183" on="1"/>
        <pt x="177" y="183" on="0"/>
        <pt x="163" y="183" on="0"/>
        <pt x="158" y="181" on="1"/>
        <pt x="158" y="182" on="0"/>
        <pt x="155" y="187" on="0"/>
        <pt x="155" y="188" on="1"/>
        <pt x="275" y="401" on="1"/>
        <pt x="89" y="401" on="1"/>
        <pt x="89" y="0" on="1"/>
        <pt x="58" y="0" on="1"/>
        <pt x="58" y="602" on="1"/>
        <pt x="58" y="675" on="0"/>
        <pt x="119" y="740" on="0"/>
        <pt x="163" y="740" on="1"/>
        <pt x="177" y="740" on="0"/>
        <pt x="208" y="735" on="0"/>
        <pt x="219" y="731" on="1"/>
        <pt x="212" y="703" on="1"/>
        <pt x="202" y="707" on="0"/>
        <pt x="173" y="712" on="0"/>
        <pt x="162" y="712" on="1"/>
        <pt x="129" y="712" on="0"/>
        <pt x="89" y="661" on="0"/>
        <pt x="89" y="603" on="1"/>
        <pt x="89" y="430" on="1"/>
        <pt x="319" y="430" on="1"/>
        <pt x="321" y="424" on="1"/>
      </contour>
    </TTGlyph>
    <TTGlyph name="grave" xMin="133" yMin="478" xMax="292" yMax="601">
      <contour>
        <pt x="279" y="478" on="1"/>
        <pt x="133" y="573" on="1"/>
        <pt x="152" y="601" on="1"/>
        <pt x="292" y="496" on="1"/>
      </contour>
    </TTGlyph>
    <TTGlyph name="greater" xMin="29" yMin="90" xMax="246" yMax="571">
      <contour>
        <pt x="50" y="90" on="1"/>
        <pt x="29" y="108" on="1"/>
        <pt x="209" y="330" on="1"/>
        <pt x="29" y="552" on="1"/>
        <pt x="50" y="571" on="1"/>
        <pt x="246" y="330" on="1"/>
      </contour>
    </TTGlyph>
    <TTGlyph name="greater.lin" xMin="29" yMin="131" xMax="246" yMax="612">
      <component glyphName="greater" x="0" y="41" flags="0x204"/>
    </TTGlyph>
    <TTGlyph name="guillemotleft" xMin="30" yMin="38" xMax="248" yMax="365">
      <contour>
        <pt x="216" y="38" on="1"/>
        <pt x="134" y="202" on="1"/>
        <pt x="216" y="365" on="1"/>
        <pt x="248" y="365" on="1"/>
        <pt x="166" y="202" on="1"/>
        <pt x="248" y="38" on="1"/>
      </contour>
      <contour>
        <pt x="111" y="38" on="1"/>
        <pt x="30" y="202" on="1"/>
        <pt x="111" y="365" on="1"/>
        <pt x="143" y="365" on="1"/>
        <pt x="62" y="202" on="1"/>
        <pt x="143" y="38" on="1"/>
      </contour>
    </TTGlyph>
    <TTGlyph name="guillemotleft.cap" xMin="30" yMin="207" xMax="248" yMax="534">
      <component glyphName="guillemotleft" x="0" y="169" flags="0x204"/>
    </TTGlyph>
    <TTGlyph name="guillemotright" xMin="31" yMin="38" xMax="249" yMax="365">
      <contour>
        <pt x="168" y="38" on="1"/>
        <pt x="136" y="38" on="1"/>
        <pt x="217" y="202" on="1"/>
        <pt x="136" y="365" on="1"/>
        <pt x="168" y="365" on="1"/>
        <pt x="249" y="202" on="1"/>
      </contour>
      <contour>
        <pt x="63" y="38" on="1"/>
        <pt x="31" y="38" on="1"/>
        <pt x="113" y="202" on="1"/>
        <pt x="31" y="365" on="1"/>
        <pt x="63" y="365" on="1"/>
        <pt x="145" y="202" on="1"/>
      </contour>
    </TTGlyph>
    <TTGlyph name="guillemotright.cap" xMin="31" yMin="207" xMax="249" yMax="534">
      <component glyphName="guillemotright" x="0" y="169" flags="0x204"/>
    </TTGlyph>
    <TTGlyph name="guilsinglleft" xMin="30" yMin="38" xMax="143" yMax="365">
      <contour>
        <pt x="111" y="38" on="1"/>
        <pt x="30" y="202" on="1"/>
        <pt x="111" y="365" on="1"/>
        <pt x="143" y="365" on="1"/>
        <pt x="62" y="202" on="1"/>
        <pt x="143" y="38" on="1"/>
      </contour>
    </TTGlyph>
    <TTGlyph name="guilsinglleft.cap" xMin="30" yMin="207" xMax="143" yMax="534">
      <component glyphName="guilsinglleft" x="0" y="169" flags="0x204"/>
    </TTGlyph>
    <TTGlyph name="guilsinglright" xMin="31" yMin="38" xMax="144" yMax="365">
      <contour>
        <pt x="63" y="38" on="1"/>
        <pt x="31" y="38" on="1"/>
        <pt x="112" y="202" on="1"/>
        <pt x="31" y="365" on="1"/>
        <pt x="63" y="365" on="1"/>
        <pt x="144" y="202" on="1"/>
      </contour>
    </TTGlyph>
    <TTGlyph name="guilsinglright.cap" xMin="31" yMin="207" xMax="144" yMax="534">
      <component glyphName="guilsinglright" x="0" y="169" flags="0x204"/>
    </TTGlyph>
    <TTGlyph name="h" xMin="52" yMin="0" xMax="316" yMax="733">
      <contour>
        <pt x="285" y="0" on="1"/>
        <pt x="285" y="317" on="1"/>
        <pt x="285" y="360" on="0"/>
        <pt x="248" y="410" on="0"/>
        <pt x="207" y="410" on="1"/>
        <pt x="172" y="410" on="0"/>
        <pt x="109" y="362" on="0"/>
        <pt x="83" y="329" on="1"/>
        <pt x="83" y="0" on="1"/>
        <pt x="52" y="0" on="1"/>
        <pt x="52" y="733" on="1"/>
        <pt x="83" y="733" on="1"/>
        <pt x="83" y="363" on="1"/>
        <pt x="106" y="392" on="0"/>
        <pt x="170" y="438" on="0"/>
        <pt x="211" y="438" on="1"/>
        <pt x="265" y="438" on="0"/>
        <pt x="316" y="373" on="0"/>
        <pt x="316" y="320" on="1"/>
        <pt x="316" y="0" on="1"/>
      </contour>
    </TTGlyph>
    <TTGlyph name="hbar" xMin="1" yMin="0" xMax="316" yMax="733">
      <contour>
        <pt x="285" y="0" on="1"/>
        <pt x="285" y="317" on="1"/>
        <pt x="285" y="360" on="0"/>
        <pt x="248" y="410" on="0"/>
        <pt x="207" y="410" on="1"/>
        <pt x="172" y="410" on="0"/>
        <pt x="109" y="362" on="0"/>
        <pt x="83" y="329" on="1"/>
        <pt x="83" y="0" on="1"/>
        <pt x="52" y="0" on="1"/>
        <pt x="52" y="580" on="1"/>
        <pt x="1" y="580" on="1"/>
        <pt x="1" y="608" on="1"/>
        <pt x="52" y="608" on="1"/>
        <pt x="52" y="733" on="1"/>
        <pt x="83" y="733" on="1"/>
        <pt x="83" y="608" on="1"/>
        <pt x="200" y="608" on="1"/>
        <pt x="200" y="580" on="1"/>
        <pt x="83" y="580" on="1"/>
        <pt x="83" y="363" on="1"/>
        <pt x="106" y="392" on="0"/>
        <pt x="170" y="438" on="0"/>
        <pt x="211" y="438" on="1"/>
        <pt x="265" y="438" on="0"/>
        <pt x="316" y="373" on="0"/>
        <pt x="316" y="320" on="1"/>
        <pt x="316" y="0" on="1"/>
      </contour>
    </TTGlyph>
    <TTGlyph name="hcoslug" xMin="50" yMin="-100" xMax="644" yMax="700">
      <contour>
        <pt x="273" y="18" on="1"/>
        <pt x="275" y="40" on="0"/>
        <pt x="254" y="40" on="1"/>
        <pt x="245" y="40" on="0"/>
        <pt x="234" y="29" on="0"/>
        <pt x="234" y="19" on="1"/>
        <pt x="235" y="-1" on="0"/>
        <pt x="255" y="-1" on="1"/>
        <pt x="270" y="-1" on="0"/>
        <pt x="273" y="13" on="1"/>
        <pt x="266" y="13" on="1"/>
        <pt x="264" y="6" on="0"/>
        <pt x="257" y="6" on="1"/>
        <pt x="247" y="6" on="0"/>
        <pt x="247" y="18" on="1"/>
      </contour>
      <contour>
        <pt x="254" y="35" on="1"/>
        <pt x="261" y="35" on="0"/>
        <pt x="261" y="23" on="1"/>
        <pt x="247" y="23" on="1"/>
        <pt x="247" y="35" on="0"/>
      </contour>
      <contour>
        <pt x="195" y="78" on="1"/>
        <pt x="187" y="78" on="0"/>
        <pt x="187" y="94" on="1"/>
        <pt x="187" y="109" on="0"/>
        <pt x="195" y="109" on="1"/>
        <pt x="203" y="109" on="0"/>
        <pt x="203" y="94" on="1"/>
        <pt x="203" y="78" on="0"/>
      </contour>
      <contour>
        <pt x="210" y="4" on="1"/>
        <pt x="202" y="4" on="0"/>
        <pt x="202" y="20" on="1"/>
        <pt x="202" y="35" on="0"/>
        <pt x="210" y="35" on="1"/>
        <pt x="218" y="35" on="0"/>
        <pt x="218" y="20" on="1"/>
        <pt x="218" y="4" on="0"/>
      </contour>
      <contour>
        <pt x="210" y="-1" on="1"/>
        <pt x="219" y="-1" on="0"/>
        <pt x="231" y="11" on="0"/>
        <pt x="231" y="20" on="1"/>
        <pt x="231" y="29" on="0"/>
        <pt x="219" y="40" on="0"/>
        <pt x="210" y="40" on="1"/>
        <pt x="201" y="40" on="0"/>
        <pt x="189" y="29" on="0"/>
        <pt x="189" y="20" on="1"/>
        <pt x="189" y="10" on="0"/>
        <pt x="201" y="-1" on="0"/>
      </contour>
      <contour>
        <pt x="546" y="4" on="1"/>
        <pt x="538" y="4" on="0"/>
        <pt x="538" y="20" on="1"/>
        <pt x="538" y="35" on="0"/>
        <pt x="546" y="35" on="1"/>
        <pt x="554" y="35" on="0"/>
        <pt x="554" y="20" on="1"/>
        <pt x="554" y="4" on="0"/>
      </contour>
      <contour>
        <pt x="546" y="-1" on="1"/>
        <pt x="555" y="-1" on="0"/>
        <pt x="567" y="11" on="0"/>
        <pt x="567" y="20" on="1"/>
        <pt x="567" y="29" on="0"/>
        <pt x="555" y="40" on="0"/>
        <pt x="546" y="40" on="1"/>
        <pt x="537" y="40" on="0"/>
        <pt x="525" y="29" on="0"/>
        <pt x="525" y="20" on="1"/>
        <pt x="525" y="10" on="0"/>
        <pt x="537" y="-1" on="0"/>
      </contour>
      <contour>
        <pt x="125" y="74" on="1"/>
        <pt x="155" y="74" on="1"/>
        <pt x="155" y="81" on="1"/>
        <pt x="145" y="81" on="1"/>
        <pt x="145" y="97" on="1"/>
        <pt x="149" y="97" on="1"/>
        <pt x="154" y="97" on="0"/>
        <pt x="155" y="89" on="1"/>
        <pt x="162" y="89" on="1"/>
        <pt x="162" y="112" on="1"/>
        <pt x="155" y="112" on="1"/>
        <pt x="154" y="104" on="0"/>
        <pt x="149" y="104" on="1"/>
        <pt x="145" y="104" on="1"/>
        <pt x="145" y="122" on="1"/>
        <pt x="157" y="122" on="1"/>
        <pt x="162" y="122" on="0"/>
        <pt x="166" y="117" on="0"/>
        <pt x="168" y="109" on="1"/>
        <pt x="176" y="109" on="1"/>
        <pt x="176" y="129" on="1"/>
        <pt x="125" y="129" on="1"/>
        <pt x="125" y="122" on="1"/>
        <pt x="132" y="122" on="1"/>
        <pt x="132" y="81" on="1"/>
        <pt x="125" y="81" on="1"/>
      </contour>
      <contour>
        <pt x="195" y="73" on="1"/>
        <pt x="204" y="73" on="0"/>
        <pt x="216" y="85" on="0"/>
        <pt x="216" y="94" on="1"/>
        <pt x="216" y="103" on="0"/>
        <pt x="204" y="114" on="0"/>
        <pt x="195" y="114" on="1"/>
        <pt x="186" y="114" on="0"/>
        <pt x="174" y="103" on="0"/>
        <pt x="174" y="94" on="1"/>
        <pt x="174" y="84" on="0"/>
        <pt x="186" y="73" on="0"/>
      </contour>
      <contour>
        <pt x="644" y="-100" on="1"/>
        <pt x="50" y="-100" on="1"/>
        <pt x="50" y="700" on="1"/>
        <pt x="644" y="700" on="1"/>
      </contour>
      <contour>
        <pt x="498" y="-1" on="1"/>
        <pt x="520" y="-1" on="0"/>
        <pt x="522" y="22" on="1"/>
        <pt x="514" y="22" on="1"/>
        <pt x="512" y="6" on="0"/>
        <pt x="500" y="6" on="1"/>
        <pt x="484" y="6" on="0"/>
        <pt x="484" y="28" on="1"/>
        <pt x="484" y="50" on="0"/>
        <pt x="498" y="50" on="1"/>
        <pt x="508" y="50" on="0"/>
        <pt x="513" y="34" on="1"/>
        <pt x="521" y="34" on="1"/>
        <pt x="521" y="56" on="1"/>
        <pt x="513" y="56" on="1"/>
        <pt x="512" y="50" on="1"/>
        <pt x="505" y="57" on="0"/>
        <pt x="496" y="57" on="1"/>
        <pt x="485" y="57" on="0"/>
        <pt x="469" y="41" on="0"/>
        <pt x="469" y="27" on="1"/>
        <pt x="469" y="-1" on="0"/>
      </contour>
      <contour>
        <pt x="372" y="80" on="1"/>
        <pt x="364" y="80" on="0"/>
        <pt x="364" y="93" on="1"/>
        <pt x="364" y="106" on="0"/>
        <pt x="372" y="106" on="1"/>
        <pt x="379" y="106" on="0"/>
        <pt x="379" y="93" on="1"/>
        <pt x="379" y="80" on="0"/>
      </contour>
      <contour>
        <pt x="276" y="0" on="1"/>
        <pt x="299" y="0" on="1"/>
        <pt x="299" y="7" on="1"/>
        <pt x="294" y="7" on="1"/>
        <pt x="294" y="32" on="1"/>
        <pt x="308" y="32" on="1"/>
        <pt x="308" y="7" on="1"/>
        <pt x="303" y="7" on="1"/>
        <pt x="303" y="0" on="1"/>
        <pt x="326" y="0" on="1"/>
        <pt x="326" y="7" on="1"/>
        <pt x="320" y="7" on="1"/>
        <pt x="320" y="59" on="1"/>
        <pt x="310" y="57" on="1"/>
        <pt x="306" y="59" on="0"/>
        <pt x="301" y="59" on="1"/>
        <pt x="293" y="59" on="0"/>
        <pt x="282" y="50" on="0"/>
        <pt x="282" y="40" on="1"/>
        <pt x="282" y="39" on="1"/>
        <pt x="275" y="39" on="1"/>
        <pt x="275" y="32" on="1"/>
        <pt x="282" y="32" on="1"/>
        <pt x="282" y="7" on="1"/>
        <pt x="276" y="7" on="1"/>
      </contour>
      <contour>
        <pt x="368" y="0" on="1"/>
        <pt x="394" y="0" on="1"/>
        <pt x="394" y="7" on="1"/>
        <pt x="386" y="7" on="1"/>
        <pt x="386" y="23" on="1"/>
        <pt x="390" y="32" on="0"/>
        <pt x="393" y="32" on="1"/>
        <pt x="393" y="31" on="1"/>
        <pt x="393" y="25" on="0"/>
        <pt x="399" y="25" on="1"/>
        <pt x="406" y="25" on="0"/>
        <pt x="406" y="32" on="1"/>
        <pt x="406" y="40" on="0"/>
        <pt x="398" y="40" on="1"/>
        <pt x="390" y="40" on="0"/>
        <pt x="386" y="29" on="1"/>
        <pt x="386" y="39" on="1"/>
        <pt x="368" y="39" on="1"/>
        <pt x="368" y="32" on="1"/>
        <pt x="374" y="32" on="1"/>
        <pt x="374" y="7" on="1"/>
        <pt x="368" y="7" on="1"/>
      </contour>
      <contour>
        <pt x="352" y="73" on="1"/>
        <pt x="358" y="73" on="1"/>
        <pt x="362" y="81" on="1"/>
        <pt x="367" y="73" on="0"/>
        <pt x="376" y="73" on="1"/>
        <pt x="385" y="73" on="0"/>
        <pt x="392" y="87" on="0"/>
        <pt x="392" y="94" on="1"/>
        <pt x="392" y="114" on="0"/>
        <pt x="377" y="114" on="1"/>
        <pt x="367" y="114" on="0"/>
        <pt x="364" y="105" on="1"/>
        <pt x="364" y="132" on="1"/>
        <pt x="346" y="132" on="1"/>
        <pt x="346" y="125" on="1"/>
        <pt x="352" y="125" on="1"/>
      </contour>
      <contour>
        <pt x="400" y="75" on="1"/>
        <pt x="393" y="75" on="0"/>
        <pt x="393" y="68" on="1"/>
        <pt x="393" y="59" on="0"/>
        <pt x="404" y="59" on="1"/>
        <pt x="416" y="59" on="0"/>
        <pt x="422" y="75" on="1"/>
        <pt x="435" y="106" on="1"/>
        <pt x="440" y="106" on="1"/>
        <pt x="440" y="113" on="1"/>
        <pt x="423" y="113" on="1"/>
        <pt x="423" y="106" on="1"/>
        <pt x="428" y="106" on="1"/>
        <pt x="420" y="86" on="1"/>
        <pt x="411" y="106" on="1"/>
        <pt x="417" y="106" on="1"/>
        <pt x="417" y="113" on="1"/>
        <pt x="392" y="113" on="1"/>
        <pt x="392" y="106" on="1"/>
        <pt x="397" y="106" on="1"/>
        <pt x="399" y="101" on="0"/>
        <pt x="403" y="93" on="1"/>
        <pt x="406" y="87" on="0"/>
        <pt x="411" y="77" on="0"/>
        <pt x="413" y="73" on="1"/>
        <pt x="411" y="65" on="0"/>
        <pt x="405" y="65" on="1"/>
        <pt x="407" y="67" on="0"/>
        <pt x="405" y="75" on="0"/>
      </contour>
      <contour>
        <pt x="247" y="428" on="1"/>
        <pt x="247" y="441" on="0"/>
        <pt x="262" y="457" on="0"/>
        <pt x="274" y="457" on="1"/>
        <pt x="287" y="457" on="0"/>
        <pt x="303" y="436" on="0"/>
        <pt x="303" y="419" on="1"/>
        <pt x="303" y="406" on="0"/>
        <pt x="293" y="382" on="0"/>
        <pt x="285" y="369" on="1"/>
        <pt x="268" y="386" on="0"/>
        <pt x="247" y="411" on="0"/>
      </contour>
      <contour>
        <pt x="302" y="74" on="1"/>
        <pt x="309" y="74" on="1"/>
        <pt x="310" y="78" on="1"/>
        <pt x="312" y="76" on="0"/>
        <pt x="318" y="73" on="0"/>
        <pt x="323" y="73" on="1"/>
        <pt x="337" y="73" on="0"/>
        <pt x="337" y="86" on="1"/>
        <pt x="337" y="92" on="0"/>
        <pt x="329" y="97" on="0"/>
        <pt x="320" y="99" on="0"/>
        <pt x="313" y="101" on="0"/>
        <pt x="313" y="104" on="1"/>
        <pt x="313" y="108" on="0"/>
        <pt x="318" y="108" on="1"/>
        <pt x="323" y="108" on="0"/>
        <pt x="328" y="101" on="1"/>
        <pt x="335" y="101" on="1"/>
        <pt x="335" y="114" on="1"/>
        <pt x="329" y="114" on="1"/>
        <pt x="327" y="109" on="1"/>
        <pt x="324" y="114" on="0"/>
        <pt x="316" y="114" on="1"/>
        <pt x="309" y="114" on="0"/>
        <pt x="302" y="107" on="0"/>
        <pt x="302" y="102" on="1"/>
        <pt x="302" y="96" on="0"/>
        <pt x="309" y="91" on="0"/>
        <pt x="318" y="88" on="0"/>
        <pt x="326" y="86" on="0"/>
        <pt x="326" y="83" on="1"/>
        <pt x="326" y="79" on="0"/>
        <pt x="321" y="79" on="1"/>
        <pt x="315" y="79" on="0"/>
        <pt x="309" y="88" on="1"/>
        <pt x="302" y="88" on="1"/>
      </contour>
      <contour>
        <pt x="261" y="219" on="1"/>
        <pt x="238" y="219" on="0"/>
        <pt x="209" y="250" on="0"/>
        <pt x="209" y="273" on="1"/>
        <pt x="209" y="297" on="0"/>
        <pt x="225" y="313" on="1"/>
        <pt x="239" y="300" on="0"/>
        <pt x="278" y="257" on="0"/>
        <pt x="299" y="231" on="1"/>
        <pt x="284" y="219" on="0"/>
      </contour>
      <contour>
        <pt x="274" y="122" on="1"/>
        <pt x="274" y="113" on="1"/>
        <pt x="267" y="113" on="1"/>
        <pt x="267" y="106" on="1"/>
        <pt x="274" y="106" on="1"/>
        <pt x="274" y="86" on="1"/>
        <pt x="274" y="73" on="0"/>
        <pt x="286" y="73" on="1"/>
        <pt x="297" y="73" on="0"/>
        <pt x="300" y="86" on="1"/>
        <pt x="295" y="88" on="1"/>
        <pt x="294" y="81" on="0"/>
        <pt x="290" y="81" on="1"/>
        <pt x="286" y="81" on="0"/>
        <pt x="286" y="86" on="1"/>
        <pt x="286" y="106" on="1"/>
        <pt x="299" y="106" on="1"/>
        <pt x="299" y="113" on="1"/>
        <pt x="286" y="113" on="1"/>
        <pt x="286" y="124" on="1"/>
      </contour>
      <contour>
        <pt x="428" y="306" on="1"/>
        <pt x="435" y="295" on="0"/>
        <pt x="457" y="281" on="0"/>
        <pt x="471" y="281" on="1"/>
        <pt x="492" y="281" on="0"/>
        <pt x="521" y="312" on="0"/>
        <pt x="521" y="335" on="1"/>
        <pt x="521" y="358" on="0"/>
        <pt x="492" y="387" on="0"/>
        <pt x="471" y="387" on="1"/>
        <pt x="436" y="387" on="0"/>
        <pt x="411" y="349" on="1"/>
        <pt x="409" y="369" on="0"/>
        <pt x="382" y="387" on="0"/>
        <pt x="362" y="386" on="1"/>
        <pt x="371" y="401" on="0"/>
        <pt x="371" y="420" on="1"/>
        <pt x="371" y="433" on="0"/>
        <pt x="359" y="460" on="0"/>
        <pt x="335" y="481" on="0"/>
        <pt x="299" y="494" on="0"/>
        <pt x="276" y="494" on="1"/>
        <pt x="251" y="494" on="0"/>
        <pt x="211" y="480" on="0"/>
        <pt x="182" y="456" on="0"/>
        <pt x="167" y="425" on="0"/>
        <pt x="167" y="409" on="1"/>
        <pt x="167" y="387" on="0"/>
        <pt x="182" y="357" on="0"/>
        <pt x="198" y="340" on="1"/>
        <pt x="116" y="312" on="0"/>
        <pt x="116" y="249" on="1"/>
        <pt x="116" y="229" on="0"/>
        <pt x="133" y="195" on="0"/>
        <pt x="163" y="170" on="0"/>
        <pt x="202" y="156" on="0"/>
        <pt x="225" y="156" on="1"/>
        <pt x="288" y="156" on="0"/>
        <pt x="329" y="201" on="1"/>
        <pt x="354" y="175" on="0"/>
        <pt x="391" y="156" on="0"/>
        <pt x="414" y="156" on="1"/>
        <pt x="446" y="156" on="0"/>
        <pt x="492" y="206" on="0"/>
        <pt x="494" y="250" on="1"/>
        <pt x="487" y="252" on="1"/>
        <pt x="479" y="239" on="0"/>
        <pt x="460" y="223" on="0"/>
        <pt x="444" y="223" on="1"/>
        <pt x="429" y="223" on="0"/>
        <pt x="401" y="242" on="0"/>
        <pt x="382" y="264" on="1"/>
        <pt x="393" y="279" on="0"/>
        <pt x="417" y="299" on="0"/>
      </contour>
      <contour>
        <pt x="219" y="74" on="1"/>
        <pt x="241" y="74" on="1"/>
        <pt x="241" y="81" on="1"/>
        <pt x="237" y="81" on="1"/>
        <pt x="237" y="96" on="1"/>
        <pt x="237" y="106" on="0"/>
        <pt x="244" y="106" on="1"/>
        <pt x="250" y="106" on="0"/>
        <pt x="250" y="99" on="1"/>
        <pt x="250" y="81" on="1"/>
        <pt x="246" y="81" on="1"/>
        <pt x="246" y="74" on="1"/>
        <pt x="268" y="74" on="1"/>
        <pt x="268" y="81" on="1"/>
        <pt x="262" y="81" on="1"/>
        <pt x="262" y="100" on="1"/>
        <pt x="262" y="114" on="0"/>
        <pt x="250" y="114" on="1"/>
        <pt x="241" y="114" on="0"/>
        <pt x="236" y="103" on="1"/>
        <pt x="236" y="113" on="1"/>
        <pt x="219" y="113" on="1"/>
        <pt x="219" y="106" on="1"/>
        <pt x="225" y="106" on="1"/>
        <pt x="225" y="81" on="1"/>
        <pt x="219" y="81" on="1"/>
      </contour>
      <contour>
        <pt x="446" y="33" on="1"/>
        <pt x="446" y="26" on="1"/>
        <pt x="452" y="26" on="1"/>
        <pt x="450" y="21" on="0"/>
        <pt x="446" y="17" on="1"/>
        <pt x="443" y="20" on="0"/>
        <pt x="438" y="26" on="0"/>
        <pt x="434" y="30" on="1"/>
        <pt x="445" y="35" on="0"/>
        <pt x="445" y="42" on="1"/>
        <pt x="445" y="47" on="0"/>
        <pt x="438" y="54" on="0"/>
        <pt x="431" y="54" on="1"/>
        <pt x="423" y="54" on="0"/>
        <pt x="414" y="46" on="0"/>
        <pt x="414" y="40" on="1"/>
        <pt x="414" y="34" on="0"/>
        <pt x="420" y="28" on="1"/>
        <pt x="407" y="24" on="0"/>
        <pt x="407" y="13" on="1"/>
        <pt x="407" y="-1" on="0"/>
        <pt x="425" y="-1" on="1"/>
        <pt x="434" y="-1" on="0"/>
        <pt x="440" y="5" on="1"/>
        <pt x="445" y="-1" on="0"/>
        <pt x="452" y="-1" on="1"/>
        <pt x="462" y="-1" on="0"/>
        <pt x="465" y="11" on="1"/>
        <pt x="460" y="12" on="1"/>
        <pt x="459" y="7" on="0"/>
        <pt x="456" y="7" on="1"/>
        <pt x="453" y="7" on="0"/>
        <pt x="450" y="12" on="1"/>
        <pt x="453" y="15" on="0"/>
        <pt x="457" y="21" on="0"/>
        <pt x="459" y="26" on="1"/>
        <pt x="464" y="26" on="1"/>
        <pt x="464" y="33" on="1"/>
      </contour>
      <contour>
        <pt x="429" y="6" on="1"/>
        <pt x="419" y="6" on="0"/>
        <pt x="419" y="16" on="1"/>
        <pt x="419" y="21" on="0"/>
        <pt x="423" y="25" on="1"/>
        <pt x="427" y="21" on="0"/>
        <pt x="433" y="14" on="0"/>
        <pt x="437" y="9" on="1"/>
        <pt x="433" y="6" on="0"/>
      </contour>
      <contour>
        <pt x="294" y="42" on="1"/>
        <pt x="294" y="49" on="0"/>
        <pt x="297" y="54" on="0"/>
        <pt x="300" y="54" on="1"/>
        <pt x="302" y="54" on="0"/>
        <pt x="303" y="53" on="1"/>
        <pt x="302" y="51" on="0"/>
        <pt x="302" y="49" on="1"/>
        <pt x="302" y="44" on="0"/>
        <pt x="308" y="44" on="1"/>
        <pt x="308" y="39" on="1"/>
        <pt x="294" y="39" on="1"/>
      </contour>
      <contour>
        <pt x="425" y="43" on="1"/>
        <pt x="425" y="48" on="0"/>
        <pt x="430" y="48" on="1"/>
        <pt x="436" y="48" on="0"/>
        <pt x="436" y="42" on="1"/>
        <pt x="436" y="36" on="0"/>
        <pt x="431" y="33" on="1"/>
        <pt x="425" y="39" on="0"/>
      </contour>
      <contour>
        <pt x="312" y="342" on="1"/>
        <pt x="342" y="362" on="0"/>
        <pt x="354" y="376" on="1"/>
        <pt x="371" y="359" on="0"/>
        <pt x="367" y="321" on="0"/>
        <pt x="353" y="296" on="1"/>
        <pt x="343" y="307" on="0"/>
        <pt x="324" y="330" on="0"/>
      </contour>
      <contour>
        <pt x="366" y="18" on="1"/>
        <pt x="368" y="40" on="0"/>
        <pt x="347" y="40" on="1"/>
        <pt x="339" y="40" on="0"/>
        <pt x="327" y="28" on="0"/>
        <pt x="327" y="19" on="1"/>
        <pt x="327" y="-1" on="0"/>
        <pt x="348" y="-1" on="1"/>
        <pt x="362" y="-1" on="0"/>
        <pt x="366" y="13" on="1"/>
        <pt x="359" y="13" on="1"/>
        <pt x="358" y="6" on="0"/>
        <pt x="350" y="6" on="1"/>
        <pt x="340" y="6" on="0"/>
        <pt x="340" y="18" on="1"/>
      </contour>
      <contour>
        <pt x="347" y="35" on="1"/>
        <pt x="354" y="35" on="0"/>
        <pt x="354" y="23" on="1"/>
        <pt x="340" y="23" on="1"/>
        <pt x="340" y="35" on="0"/>
      </contour>
      <contour>
        <pt x="124" y="0" on="1"/>
        <pt x="153" y="0" on="1"/>
        <pt x="153" y="7" on="1"/>
        <pt x="145" y="7" on="1"/>
        <pt x="145" y="25" on="1"/>
        <pt x="167" y="25" on="1"/>
        <pt x="167" y="7" on="1"/>
        <pt x="159" y="7" on="1"/>
        <pt x="159" y="0" on="1"/>
        <pt x="188" y="0" on="1"/>
        <pt x="188" y="7" on="1"/>
        <pt x="180" y="7" on="1"/>
        <pt x="180" y="48" on="1"/>
        <pt x="188" y="48" on="1"/>
        <pt x="188" y="55" on="1"/>
        <pt x="159" y="55" on="1"/>
        <pt x="159" y="48" on="1"/>
        <pt x="167" y="48" on="1"/>
        <pt x="167" y="32" on="1"/>
        <pt x="145" y="32" on="1"/>
        <pt x="145" y="48" on="1"/>
        <pt x="153" y="48" on="1"/>
        <pt x="153" y="55" on="1"/>
        <pt x="124" y="55" on="1"/>
        <pt x="124" y="48" on="1"/>
        <pt x="132" y="48" on="1"/>
        <pt x="132" y="7" on="1"/>
        <pt x="124" y="7" on="1"/>
      </contour>
      <contour>
        <pt x="576" y="13" on="1"/>
        <pt x="569" y="13" on="0"/>
        <pt x="569" y="6" on="1"/>
        <pt x="569" y="-1" on="0"/>
        <pt x="576" y="-1" on="1"/>
        <pt x="583" y="-1" on="0"/>
        <pt x="583" y="6" on="1"/>
        <pt x="583" y="13" on="0"/>
      </contour>
    </TTGlyph>
    <TTGlyph name="hungarumlaut" xMin="108" yMin="476" xMax="326" yMax="647">
      <contour>
        <pt x="126" y="485" on="1"/>
        <pt x="108" y="496" on="1"/>
        <pt x="190" y="647" on="1"/>
        <pt x="219" y="629" on="1"/>
      </contour>
      <contour>
        <pt x="234" y="476" on="1"/>
        <pt x="216" y="487" on="1"/>
        <pt x="296" y="634" on="1"/>
        <pt x="326" y="616" on="1"/>
      </contour>
    </TTGlyph>
</ttFont>
